<?xml version="1.0" encoding="UTF-8" standalone="no"?>
<!-- Created with Inkscape (http://www.inkscape.org/) -->

<svg
   xmlns:dc="http://purl.org/dc/elements/1.1/"
   xmlns:cc="http://creativecommons.org/ns#"
   xmlns:rdf="http://www.w3.org/1999/02/22-rdf-syntax-ns#"
   xmlns:svg="http://www.w3.org/2000/svg"
   xmlns="http://www.w3.org/2000/svg"
   xmlns:sodipodi="http://sodipodi.sourceforge.net/DTD/sodipodi-0.dtd"
   xmlns:inkscape="http://www.inkscape.org/namespaces/inkscape"
   width="288.99554mm"
   height="288.99554mm"
   viewBox="0 0 1024 1024"
   id="svg4151"
   version="1.1"
   inkscape:version="0.91 r13725"
   sodipodi:docname="boost-bee-isotype--dark--circle-ffffff-background.svg">
  <defs
     id="defs4153" />
  <sodipodi:namedview
     id="base"
     pagecolor="#ffffff"
     bordercolor="#666666"
     borderopacity="1.0"
     inkscape:pageopacity="0.0"
     inkscape:pageshadow="2"
     inkscape:zoom="0.35"
     inkscape:cx="247.00001"
     inkscape:cy="640.57142"
     inkscape:document-units="px"
     inkscape:current-layer="layer1"
     showgrid="false"
     fit-margin-top="0"
     fit-margin-left="0"
     fit-margin-right="0"
     fit-margin-bottom="0"
     inkscape:window-width="1366"
     inkscape:window-height="669"
     inkscape:window-x="0"
     inkscape:window-y="32"
     inkscape:window-maximized="1" />
  <metadata
     id="metadata4156">
    <rdf:RDF>
      <cc:Work
         rdf:about="">
        <dc:format>image/svg+xml</dc:format>
        <dc:type
           rdf:resource="http://purl.org/dc/dcmitype/StillImage" />
        <dc:title></dc:title>
      </cc:Work>
    </rdf:RDF>
  </metadata>
  <g
     inkscape:label="Layer 1"
     inkscape:groupmode="layer"
     id="layer1"
     transform="translate(-142.28571,308.20923)">
    <circle
       style="opacity:1;fill:#ffffff;fill-opacity:1;stroke:none;stroke-width:0.5;stroke-miterlimit:4;stroke-dasharray:none;stroke-opacity:1"
       id="path4152"
       cx="654.28571"
       cy="203.79077"
       r="512" />
    <g
       id="g946"
       transform="matrix(1.6769436,0,0,1.6769436,-12953.272,-2358.5799)"
       inkscape:export-xdpi="90"
       inkscape:export-ydpi="90">
      <path
         d="m 8306.488,1517.316 c -0.427,0.373 -1.33,0.747 -1.759,1.118 -0.199,0.173 -0.638,0.345 -0.837,0.517 -0.779,0.669 -0.481,1.336 -1.261,2.001 -4.036,3.445 -9.132,6.852 -11.132,10.214 0,26.976 0,53.951 0,80.927 0,11.096 -7.111,21.35 -16.723,26.899 -46.628,26.921 -93.854,53.841 -140.48,80.762 -2.17,9.909 -4.526,19.299 -6.694,29.208 1.638,-0.641 3.055,-1.397 4.578,-2.275 54.064,-31.214 108.85,-62.341 162.914,-93.555 10.85,-6.264 18.405,-17.839 18.405,-30.364 0,-36.958 0,-73.913 0,-110.869 -1.999,1.826 -4.971,3.633 -7.011,5.417 z"
         id="path948"
         inkscape:connector-curvature="0"
         style="fill:#1d1d1b" />
      <g
         id="g950">
        <path
           d="m 8241.07,1280.563 c 7.168,-11.016 9.394,-16.688 7.094,-16.688 -1.842,0 -6.585,3.636 -14.016,11.077 l -60.701,60.696 c 7.706,4.449 15.411,8.897 23.116,13.346 l 44.507,-68.431 z"
           id="path952"
           inkscape:connector-curvature="0"
           style="fill:none" />
        <path
           d="m 7976.156,1783.758 c -3.588,5.523 -4.697,8.367 -3.526,8.367 0.933,0 3.312,-1.806 7.036,-5.501 l 68.564,-68.077 c -7.188,-4.151 -14.377,-8.301 -21.566,-12.451 l -50.508,77.662 z"
           id="path954"
           inkscape:connector-curvature="0"
           style="fill:none" />
        <path
           d="m 8243.287,1479 c -0.09,0 -0.179,0 -0.269,0 l -110.896,2 c -0.041,0 -0.081,0 -0.121,0 -11.754,0 -16.056,-7.997 -9.634,-17.909 l 61.916,-95.208 c -9.101,-5.254 -18.201,-10.513 -27.301,-15.768 l -183.635,183.183 c -16.68,16.678 -11.158,29.701 12.309,29.701 0.082,0 0.167,0 0.249,0 l 89.448,0 c 0.073,0 0.143,0 0.216,0 23.491,0 32.148,16.215 19.284,35.995 l -55.911,86.095 c 8.608,4.97 17.217,10.003 25.826,14.973 l 101.295,-100.545 c 8.387,-8.346 21.93,-21.903 30.208,-30.337 l 59.513,-61.094 c 16.55,-16.768 10.925,-31.086 -12.497,-31.086 z"
           id="path956"
           inkscape:connector-curvature="0"
           style="fill:none" />
        <path
           d="m 8223.04,1390.249 c 6.881,-2.746 13.78,-5.441 20.708,-8.067 2.079,-0.787 4.158,-1.568 6.242,-2.343 -13.424,-7.75 -26.848,-15.501 -40.271,-23.251 l -12.279,18.88 c 8.533,4.927 17.067,9.854 25.6,14.781 z"
           id="path958"
           inkscape:connector-curvature="0"
           style="fill:#1d1d1b" />
        <path
           d="m 8132.032,1311.736 c -10.846,-6.264 -24.213,-6.264 -35.062,0 -39.32,22.701 -78.642,45.403 -117.962,68.106 2.081,0.774 4.161,1.554 6.237,2.342 6.928,2.626 13.83,5.321 20.712,8.069 24.947,-14.404 49.894,-28.807 74.841,-43.21 6.057,-3.497 12.115,-6.994 18.175,-10.492 9.609,-5.549 21.448,-5.549 31.06,0 4.451,2.569 8.9,5.138 13.35,7.707 l 16.465,-16.463 c -9.273,-5.353 -18.544,-10.706 -27.816,-16.059 z"
           id="path960"
           inkscape:connector-curvature="0"
           style="fill:#1d1d1b" />
        <path
           d="m 8096.97,1746.687 c 1.468,0.848 2.98,1.58 4.556,2.209 -2.134,-9.748 -4.269,-19.496 -6.403,-29.244 -5.58,-3.222 -11.161,-6.444 -16.742,-9.666 l -16.538,16.421 c 11.709,6.76 23.418,13.52 35.127,20.28 z"
           id="path962"
           inkscape:connector-curvature="0"
           style="fill:#1d1d1b" />
        <path
           d="m 7955.724,1638.991 c -9.61,-5.549 -15.224,-15.803 -15.224,-26.9 0,-26.973 0,-53.949 0,-80.922 -4,-3.364 -8.478,-6.772 -12.513,-10.217 -0.78,-0.666 -1.711,-1.332 -2.488,-2.001 -0.2,-0.172 -0.478,-0.344 -0.677,-0.517 -0.429,-0.371 -1.345,-0.744 -1.772,-1.118 -2.038,-1.784 -4.549,-3.59 -6.549,-5.414 0,36.954 0,73.909 0,110.864 0,12.528 7.13,24.101 17.979,30.364 26.194,15.124 52.612,30.247 78.807,45.37 l 12.543,-18.88 c -23.458,-13.543 -46.649,-27.086 -70.106,-40.629 z"
           id="path964"
           inkscape:connector-curvature="0"
           style="fill:#1d1d1b" />
      </g>
      <path
         d="m 8255.784,1510.85 -59.513,60.348 c -8.278,8.433 -21.821,22.006 -30.208,30.353 l -186.397,185.074 c -8.401,8.335 -9.957,7.055 -3.51,-2.866 l 118.697,-182.514 c 12.904,-19.842 4.157,-35.844 -19.501,-35.746 l -89.447,0.363 c -23.674,0.096 -29.296,-13.398 -12.557,-30.134 l 260.8,-260.776 c 16.712,-16.733 19.828,-14.225 6.922,5.611 l -118.703,182.508 c -6.444,9.946 -2.091,17.943 9.754,17.888 l 110.896,-0.45 c 23.648,-0.104 29.38,13.507 12.767,30.341 z m -127.831,185.243 c 41.448,-23.93 82.896,-47.859 124.346,-71.791 8.324,-4.806 13.451,-13.688 13.451,-23.299 0,-47.86 0,-95.722 0,-143.582 0,-9.613 -5.127,-18.495 -13.451,-23.301 -41.447,-23.93 -82.896,-47.86 -124.346,-71.792 -8.324,-4.806 -18.58,-4.806 -26.904,0 -41.448,23.93 -82.897,47.86 -124.346,71.79 -8.324,4.807 -13.452,13.688 -13.452,23.301 0,47.859 0,95.721 0,143.581 0,9.613 5.128,18.494 13.453,23.301 41.448,23.931 82.896,47.86 124.344,71.792 8.326,4.807 18.58,4.807 26.906,0 z"
         id="path966"
         inkscape:connector-curvature="0"
         style="fill:#fcbe00" />
      <g
         id="g968">
        <path
           d="m 8155.967,1427.88 c -0.546,-0.405 -1.079,-0.782 -1.614,-1.175 1.736,-2.604 3.473,-5.206 5.211,-7.81 3.254,-4.872 4.449,-12.776 2.782,-18.386 -2.376,-7.988 -8.388,-27.932 -13.431,-42.305 -2.031,3.518 -4.06,7.036 -6.089,10.554 3.343,10.09 7.221,22.544 10.739,34.356 0.89,2.993 0.115,8.103 -1.612,10.706 -1.724,2.585 -3.448,5.168 -5.172,7.752 -22.928,-14.346 -41.201,-14.327 -64.52,0.071 -1.736,-2.608 -3.475,-5.215 -5.211,-7.822 -1.741,-2.603 -2.503,-7.713 -1.614,-10.706 3.204,-10.795 6.722,-22.136 9.861,-31.712 -2.036,-3.534 -4.074,-7.066 -6.113,-10.599 -4.841,14.08 -10.292,32.189 -12.53,39.707 -1.664,5.61 -0.47,13.514 2.77,18.386 1.741,2.613 3.482,5.224 5.223,7.836 -0.544,0.381 -1.079,0.755 -1.625,1.15 -3.108,2.935 -6.218,5.872 -9.329,8.808 1.844,0.966 3.47,2.465 4.729,4.441 3.609,5.668 12.251,25.81 18.208,41.225 14.4,37.329 12.048,41.606 10.167,45.038 -0.077,0.145 -0.177,0.266 -0.266,0.411 0.017,0.018 0.034,0.035 0.05,0.052 0.292,0.385 0.59,0.756 0.892,1.119 -5.321,0.881 -9.817,3.888 -8.148,10.292 0,0 10.396,18.364 18.4,19.889 7.105,1.367 -1.583,-14.6 0.887,-22.464 3.863,1.205 7.901,1.206 11.765,10e-4 2.478,7.863 -6.208,23.829 0.897,22.463 7.99,-1.525 18.4,-19.889 18.4,-19.889 1.671,-6.405 -2.832,-9.412 -8.161,-10.294 0.302,-0.362 0.6,-0.733 0.892,-1.118 0.017,-0.017 0.034,-0.034 0.05,-0.052 -0.077,-0.145 -0.177,-0.273 -0.266,-0.424 -1.882,-3.432 -4.221,-7.707 10.18,-45.025 5.945,-15.422 14.599,-35.557 18.196,-41.225 1.449,-2.263 3.127,-3.622 4.727,-4.462 -3.107,-2.931 -6.217,-5.86 -9.325,-8.789 z"
           id="path970"
           inkscape:connector-curvature="0"
           style="fill:#1d1d1b" />
        <path
           d="m 8181.626,1617.924 c -2.343,1.897 -8.54,-0.108 -10.842,1.681 12.105,7.529 -17.647,55.122 -42.851,55.122 -4.482,20.342 -8.957,40.676 -13.434,61.014 -4.477,-20.338 -8.955,-40.672 -13.434,-61.014 -25.206,0 -54.954,-47.593 -42.851,-55.122 -2.302,-1.789 -8.499,0.216 -10.839,-1.681 -3.979,-2.417 -17.26,-29.601 -1.139,-33.533 -3.503,-4.528 -28.15,-50.967 -7.46,-52.785 -0.012,-0.714 -0.05,-1.445 -0.05,-2.149 0,-8.163 12.77,-19.916 14.985,-27.431 0.218,2.031 0.52,4.007 0.971,5.882 3.443,14.416 35.009,57.015 35.009,57.015 6.511,9.488 15.316,14.72 24.808,14.72 9.492,0 18.297,-5.233 24.808,-14.72 0,0 31.568,-42.599 35.012,-57.015 0.446,-1.875 0.75,-3.851 0.966,-5.882 2.221,7.516 14.988,19.268 14.988,27.431 0,0.704 -0.036,1.434 -0.05,2.149 20.688,1.818 -3.952,48.257 -7.46,52.785 16.127,3.931 2.844,31.116 -1.137,33.533 z m -111.313,-29.546 c 4.626,0.356 17.208,-13.548 17.208,-13.548 0,0 -8.058,5.135 -15.468,3.604 -3.583,-0.737 -12.187,-12.463 -20.117,-24.381 -4.904,4.243 -8.652,10.662 -1.803,18.452 8.883,7.999 17.97,15.701 20.18,15.873 z m -13.038,11.915 c -1.41,-0.306 -3.609,-2.041 -6.24,-4.665 -3.353,3.214 -5.962,7.593 -2.655,12.008 3.521,2.707 6.213,4.513 7.28,4.62 4.755,0.452 26.508,-12.836 26.508,-12.836 0,0 -17.279,2.542 -24.893,0.873 z m 25.926,35.899 c -1.995,-0.278 -5.427,-2.097 -9.671,-4.886 -2.554,4.054 -3.621,8.87 2.098,12.033 0.914,0.42 1.75,0.789 2.54,1.131 0.077,0.022 0.142,0.053 0.218,0.076 2.173,0.757 3.583,1.261 4.434,1.572 0.192,0.036 0.369,0.064 0.506,0.068 6.75,0.339 23.422,-13.699 23.422,-13.699 0,0 -12.49,5.205 -23.547,3.705 z m 62.598,0 c -11.055,1.5 -23.546,-3.705 -23.546,-3.705 0,0 16.671,14.038 23.422,13.699 0.062,0 0.151,-0.023 0.24,-0.023 0.825,-0.321 2.273,-0.827 4.537,-1.617 8.705,-3.017 7.765,-8.571 4.904,-13.164 -4.194,2.744 -7.573,4.538 -9.557,4.81 z m 25.938,-35.899 c -7.624,1.669 -24.906,-0.873 -24.906,-0.873 0,0 21.755,13.288 26.508,12.836 1.029,-0.102 3.547,-1.765 6.863,-4.294 3.66,-4.495 1.079,-8.968 -2.326,-12.253 -2.581,2.568 -4.753,4.285 -6.139,4.584 z m -13.05,-11.915 c 2.223,-0.172 11.297,-7.874 20.18,-15.873 6.837,-7.79 3.101,-14.208 -1.803,-18.452 -7.931,11.918 -16.535,23.644 -20.118,24.381 -7.41,1.531 -15.465,-3.604 -15.465,-3.604 0,0 12.565,13.904 17.206,13.548 z"
           id="path972"
           inkscape:connector-curvature="0"
           style="fill:#1d1d1b" />
        <path
           d="m 8168.308,1443.812 c 0.115,-0.181 0.245,-0.362 0.379,-0.532 0.12,-0.149 0.242,-0.293 0.379,-0.422 0.115,-0.116 0.242,-0.221 0.376,-0.318 0.115,-0.079 0.237,-0.152 0.369,-0.217 0.113,-0.054 0.235,-0.098 0.362,-0.131 0.12,-0.029 0.243,-0.047 0.367,-0.049 0.129,-0.01 0.252,0 0.379,0.017 0.134,0.019 0.264,0.055 0.393,0.095 0.144,0.046 0.283,0.104 0.413,0.173 0.151,0.077 0.297,0.163 0.434,0.253 0.151,0.106 0.302,0.217 0.444,0.337 0.221,0.18 0.427,0.375 0.625,0.578 0.333,0.35 0.638,0.723 0.928,1.106 0.333,0.448 0.64,0.91 0.931,1.384 0.324,0.53 0.626,1.073 0.916,1.63 0.309,0.607 0.606,1.228 0.882,1.85 0.302,0.675 0.581,1.362 0.844,2.053 0.441,1.149 0.839,2.312 1.201,3.489 0.497,1.64 0.928,3.302 1.297,4.978 0.381,1.75 0.696,3.519 0.94,5.297 0.247,1.803 0.413,3.614 0.499,5.432 0.084,1.781 0.084,3.568 -0.019,5.35 -0.101,1.705 -0.291,3.403 -0.616,5.08 -0.075,0.401 -0.161,0.802 -0.257,1.203 -0.094,0.394 -0.199,0.788 -0.309,1.175 -0.243,0.806 -0.533,1.597 -0.861,2.369 -0.343,0.81 -0.731,1.604 -1.146,2.382 -0.437,0.812 -0.909,1.607 -1.408,2.384 -0.518,0.809 -1.063,1.601 -1.635,2.374 -0.583,0.802 -1.197,1.586 -1.83,2.356 -0.647,0.788 -1.319,1.558 -2,2.315 -0.698,0.77 -1.415,1.529 -2.137,2.272 -1.475,1.504 -3,2.957 -4.568,4.365 -1.544,1.387 -3.127,2.735 -4.739,4.05 -1.396,1.138 -2.818,2.247 -4.252,3.334 -1.451,1.091 -2.911,2.161 -4.393,3.209 -2.259,1.601 -4.561,3.15 -6.899,4.639 -0.669,0.427 -1.341,0.845 -2.015,1.261 -0.247,0.147 -0.494,0.296 -0.739,0.444 0,0 -0.01,0.01 -0.014,0.01 -0.01,0.01 -0.015,0.01 -0.017,0.016 -0.137,0.097 -0.281,0.187 -0.422,0.275 -0.118,0.072 -0.235,0.137 -0.359,0.187 -0.099,0.048 -0.199,0.088 -0.302,0.113 -0.072,0.022 -0.151,0.04 -0.226,0.043 -0.055,0 -0.105,0 -0.156,-0.01 -0.021,0 -0.043,-0.011 -0.06,-0.018 -0.038,-0.011 -0.072,-0.029 -0.103,-0.054 -0.041,-0.032 -0.077,-0.068 -0.108,-0.113 -0.043,-0.058 -0.077,-0.119 -0.105,-0.185 -0.039,-0.086 -0.07,-0.173 -0.094,-0.264 -0.058,-0.209 -0.088,-0.422 -0.108,-0.635 -0.014,-0.158 -0.026,-0.318 -0.029,-0.473 0,-0.181 0,-0.366 0,-0.545 0.012,-0.427 0.048,-0.85 0.099,-1.272 0.06,-0.506 0.129,-1.005 0.216,-1.507 0.096,-0.574 0.206,-1.145 0.326,-1.716 0.101,-0.484 0.214,-0.969 0.327,-1.452 0.16,-0.683 0.335,-1.367 0.513,-2.046 0.403,-1.532 0.839,-3.057 1.3,-4.571 0.513,-1.71 1.055,-3.407 1.619,-5.098 1.25,-3.794 2.588,-7.559 3.971,-11.302 1.362,-3.699 2.775,-7.378 4.223,-11.042 1.544,-3.916 3.127,-7.818 4.755,-11.706 1.206,-2.884 2.434,-5.753 3.693,-8.617 0.693,-1.574 1.396,-3.147 2.105,-4.716 0.624,-1.373 1.254,-2.737 1.899,-4.097 0.305,-0.635 0.611,-1.271 0.923,-1.906 0.477,-0.976 0.964,-1.945 1.475,-2.902 0.199,-0.373 0.4,-0.741 0.607,-1.11 0.167,-0.29 0.334,-0.571 0.515,-0.852 z"
           id="path974"
           inkscape:connector-curvature="0"
           style="fill:#1d1d1b" />
        <path
           d="m 8175.375,1427.95 c 28.767,-12.451 53.208,-22.463 73.937,-30.351 140.168,-53.286 110.917,-9.061 102.622,39.256 -3.88,22.644 -44.391,59.708 -57.673,71.111 -42.072,36.142 -70.004,53.25 -89.819,60.985 1.107,-3.121 1.995,-6.319 2.638,-9.571 0.487,-2.464 0.835,-4.96 1.031,-7.464 0.226,-2.912 0.252,-5.839 0.067,-8.752 -0.14,-2.197 -0.394,-4.39 -0.761,-6.561 -0.432,-2.566 -1.026,-5.105 -1.763,-7.602 -0.69,-2.338 -1.506,-4.639 -2.44,-6.891 -0.863,-2.084 -1.832,-4.13 -2.883,-6.127 -0.959,-1.814 -1.988,-3.588 -3.081,-5.319 -0.972,-1.521 -1.991,-3.013 -3.058,-4.466 -0.818,-1.109 -1.667,-2.2 -2.544,-3.263 -0.422,-0.516 -0.854,-1.025 -1.293,-1.531 -0.676,-0.773 -1.372,-1.532 -2.082,-2.277 0.47,-1.105 0.986,-2.724 1.458,-5.124 1.02,-5.192 1.813,-14.033 1.163,-29.259 -0.376,-8.776 -2.628,-16.287 -5.678,-22.521 -2.878,-5.874 -6.453,-10.61 -9.841,-14.273 z"
           id="path976"
           inkscape:connector-curvature="0"
           style="fill:#1d1d1b" />
        <path
           d="m 8053.625,1427.95 c -28.762,-12.451 -53.206,-22.463 -73.935,-30.351 -140.171,-53.286 -110.919,-9.061 -102.625,39.256 3.88,22.644 44.395,59.708 57.678,71.111 42.067,36.142 70,53.25 89.812,60.985 -1.098,-3.121 -1.99,-6.319 -2.635,-9.571 -0.487,-2.464 -0.834,-4.96 -1.029,-7.464 -0.228,-2.912 -0.252,-5.839 -0.07,-8.752 0.137,-2.197 0.394,-4.39 0.758,-6.561 0.439,-2.566 1.026,-5.105 1.768,-7.602 0.686,-2.338 1.508,-4.639 2.439,-6.891 0.868,-2.084 1.832,-4.13 2.885,-6.127 0.957,-1.814 1.985,-3.588 3.083,-5.319 0.964,-1.521 1.983,-3.013 3.054,-4.466 0.821,-1.109 1.669,-2.2 2.543,-3.263 0.427,-0.516 0.856,-1.025 1.295,-1.531 0.679,-0.773 1.367,-1.532 2.082,-2.277 -0.467,-1.105 -0.988,-2.724 -1.463,-5.124 -1.019,-5.192 -1.813,-14.033 -1.163,-29.259 0.377,-8.776 2.633,-16.287 5.681,-22.521 2.876,-5.874 6.456,-10.61 9.842,-14.273 z"
           id="path978"
           inkscape:connector-curvature="0"
           style="fill:#1d1d1b" />
        <path
           d="m 8060.695,1443.812 c -0.118,-0.181 -0.242,-0.362 -0.376,-0.532 -0.122,-0.149 -0.247,-0.293 -0.384,-0.422 -0.115,-0.116 -0.242,-0.221 -0.376,-0.318 -0.115,-0.079 -0.237,-0.152 -0.367,-0.217 -0.118,-0.054 -0.24,-0.098 -0.367,-0.131 -0.12,-0.029 -0.242,-0.047 -0.364,-0.049 -0.129,-0.01 -0.254,0 -0.379,0.017 -0.134,0.019 -0.264,0.055 -0.396,0.095 -0.139,0.046 -0.276,0.104 -0.41,0.173 -0.151,0.077 -0.295,0.163 -0.432,0.253 -0.154,0.106 -0.307,0.217 -0.446,0.337 -0.221,0.18 -0.427,0.375 -0.626,0.578 -0.331,0.35 -0.64,0.723 -0.923,1.106 -0.333,0.448 -0.645,0.91 -0.933,1.384 -0.326,0.53 -0.628,1.073 -0.918,1.63 -0.312,0.607 -0.606,1.228 -0.88,1.85 -0.307,0.675 -0.581,1.362 -0.847,2.053 -0.439,1.149 -0.839,2.312 -1.194,3.489 -0.503,1.64 -0.934,3.302 -1.3,4.978 -0.386,1.75 -0.7,3.519 -0.942,5.297 -0.247,1.803 -0.415,3.614 -0.503,5.432 -0.082,1.781 -0.082,3.568 0.024,5.35 0.098,1.705 0.292,3.403 0.611,5.08 0.082,0.401 0.165,0.802 0.257,1.203 0.096,0.394 0.201,0.788 0.316,1.175 0.237,0.806 0.527,1.597 0.86,2.369 0.339,0.81 0.73,1.604 1.143,2.382 0.441,0.812 0.909,1.607 1.408,2.384 0.518,0.809 1.064,1.601 1.633,2.374 0.588,0.802 1.199,1.586 1.833,2.356 0.647,0.788 1.319,1.558 2.002,2.315 0.698,0.77 1.413,1.529 2.137,2.272 1.473,1.504 2.998,2.957 4.566,4.365 1.547,1.387 3.129,2.735 4.741,4.05 1.398,1.138 2.817,2.247 4.256,3.334 1.444,1.091 2.906,2.161 4.384,3.209 2.264,1.601 4.568,3.15 6.901,4.639 0.671,0.427 1.345,0.845 2.017,1.261 0.247,0.147 0.491,0.296 0.736,0.444 0.01,0 0.01,0.01 0.017,0.01 0.01,0.01 0.014,0.01 0.021,0.016 0.132,0.097 0.273,0.187 0.415,0.275 0.12,0.072 0.237,0.137 0.364,0.187 0.096,0.048 0.194,0.088 0.295,0.113 0.074,0.022 0.154,0.04 0.228,0.043 0.055,0 0.105,0 0.156,-0.01 0.021,0 0.043,-0.011 0.063,-0.018 0.036,-0.011 0.072,-0.029 0.105,-0.054 0.038,-0.032 0.072,-0.068 0.105,-0.113 0.043,-0.058 0.074,-0.119 0.103,-0.185 0.041,-0.086 0.072,-0.173 0.094,-0.264 0.058,-0.209 0.093,-0.422 0.11,-0.635 0.015,-0.158 0.024,-0.318 0.026,-0.473 0.01,-0.181 0.01,-0.366 0,-0.545 -0.01,-0.427 -0.048,-0.85 -0.099,-1.272 -0.053,-0.506 -0.129,-1.005 -0.216,-1.507 -0.093,-0.574 -0.206,-1.145 -0.326,-1.716 -0.101,-0.484 -0.211,-0.969 -0.324,-1.452 -0.163,-0.683 -0.333,-1.367 -0.513,-2.046 -0.405,-1.532 -0.839,-3.057 -1.302,-4.571 -0.514,-1.71 -1.055,-3.407 -1.614,-5.098 -1.254,-3.794 -2.592,-7.559 -3.971,-11.302 -1.367,-3.699 -2.774,-7.378 -4.225,-11.042 -1.544,-3.916 -3.132,-7.818 -4.758,-11.706 -1.207,-2.884 -2.437,-5.753 -3.693,-8.617 -0.693,-1.574 -1.394,-3.147 -2.105,-4.716 -0.626,-1.373 -1.254,-2.737 -1.902,-4.097 -0.302,-0.635 -0.609,-1.271 -0.921,-1.906 -0.477,-0.976 -0.961,-1.945 -1.475,-2.902 -0.197,-0.373 -0.401,-0.741 -0.604,-1.11 -0.169,-0.29 -0.339,-0.571 -0.514,-0.852 z"
           id="path980"
           inkscape:connector-curvature="0"
           style="fill:#1d1d1b" />
      </g>
    </g>
  </g>
</svg>
