<?xml version="1.0" encoding="UTF-8" standalone="no"?>
<!-- Created with Inkscape (http://www.inkscape.org/) -->

<svg
   xmlns:dc="http://purl.org/dc/elements/1.1/"
   xmlns:cc="http://creativecommons.org/ns#"
   xmlns:rdf="http://www.w3.org/1999/02/22-rdf-syntax-ns#"
   xmlns:svg="http://www.w3.org/2000/svg"
   xmlns="http://www.w3.org/2000/svg"
   xmlns:sodipodi="http://sodipodi.sourceforge.net/DTD/sodipodi-0.dtd"
   xmlns:inkscape="http://www.inkscape.org/namespaces/inkscape"
   width="703.75775mm"
   height="288.99554mm"
   viewBox="0 0 2493.6298 1024"
   id="svg4162"
   version="1.1"
   inkscape:version="0.91 r13725"
   sodipodi:docname="boost-logotype--dark--square-none-background.svg">
  <defs
     id="defs4164" />
  <sodipodi:namedview
     id="base"
     pagecolor="#ffffff"
     bordercolor="#666666"
     borderopacity="1.0"
     inkscape:pageopacity="0.0"
     inkscape:pageshadow="2"
     inkscape:zoom="0.0875"
     inkscape:cx="1286.7403"
     inkscape:cy="214.233"
     inkscape:document-units="px"
     inkscape:current-layer="layer1"
     showgrid="false"
     fit-margin-top="0"
     fit-margin-left="0"
     fit-margin-right="0"
     fit-margin-bottom="0"
     inkscape:window-width="1366"
     inkscape:window-height="669"
     inkscape:window-x="0"
     inkscape:window-y="32"
     inkscape:window-maximized="1" />
  <metadata
     id="metadata4167">
    <rdf:RDF>
      <cc:Work
         rdf:about="">
        <dc:format>image/svg+xml</dc:format>
        <dc:type
           rdf:resource="http://purl.org/dc/dcmitype/StillImage" />
        <dc:title />
      </cc:Work>
    </rdf:RDF>
  </metadata>
  <g
     inkscape:label="Layer 1"
     inkscape:groupmode="layer"
     id="layer1"
     transform="translate(1486.8149,-503.21936)">
    <g
       id="g7055"
       transform="matrix(1.2806648,0,0,1.2806648,-4043.5609,-1750.565)"
       inkscape:export-xdpi="90"
       inkscape:export-ydpi="90">
      <path
         style="fill:#fcbe00"
         inkscape:connector-curvature="0"
         id="path734"
         d="m 3603.6071,2101.7998 -135.0731,0.5541 c -14.4267,0.069 -19.7216,-9.6686 -11.8814,-21.7959 l 144.572,-222.288 c 15.7254,-24.1646 11.9369,-27.219 -8.4219,-6.8463 l -317.679,317.6374 c -20.3726,20.3726 -13.5402,36.8321 15.3098,36.7213 l 108.945,-0.4571 c 28.8223,-0.1108 39.471,19.3753 23.7733,43.5538 l -144.5997,222.2879 c -7.8298,12.0858 -5.9459,13.6372 4.2733,3.4838 l 227.0461,-225.4151 c 10.2365,-10.1638 26.7064,-26.7064 36.7906,-36.9706 l 72.5007,-73.5119 c 20.2376,-20.5077 13.2424,-37.078 -15.5557,-36.9534" />
      <path
         inkscape:connector-curvature="0"
         id="path736"
         d="m 2214.7487,2018.7024 c 27.6622,-32.3649 60.0237,-45.8497 101.8079,-45.8497 90.3973,0 153.7973,78.225 153.7973,184.7806 0,104.5332 -44.5199,188.8184 -159.8679,188.8184 -58.642,0 -91.0069,-26.2944 -108.5433,-60.0133 l -1.3402,0 0,49.9014 -126.0971,0 0,-485.5429 140.2433,0 0,167.9055 z m 115.3204,143.6474 c 0,-37.7706 -14.1774,-80.9365 -59.3484,-80.9365 -42.4872,0 -59.3484,41.8258 -59.3484,78.2424 0,37.7567 13.4848,85.653 59.3484,85.653 45.8359,0 59.3484,-44.5234 59.3484,-82.9589" />
      <path
         inkscape:connector-curvature="0"
         id="path738"
         d="m 2667.899,1972.8492 c 124.7673,0 201.6245,73.5085 201.6245,183.437 0,129.47 -87.6582,190.1585 -200.9457,190.1585 -113.3015,0 -200.9908,-62.0321 -200.9908,-182.7582 0,-122.7207 80.94,-190.8373 200.312,-190.8373 m -60.0236,183.4335 c 0,66.7488 24.9645,95.7511 60.7024,95.7511 37.7567,0 60.6885,-29.0023 60.6885,-95.7511 0,-51.9341 -22.9318,-91.0484 -59.3484,-89.026 -47.8963,0 -62.0425,49.2365 -62.0425,89.026" />
      <path
         inkscape:connector-curvature="0"
         id="path740"
         d="m 3069.8008,1972.8492 c 124.7396,0 201.6245,73.5085 201.6245,183.437 0,129.47 -87.6582,190.1585 -200.9457,190.1585 -113.3015,0 -200.9873,-62.0321 -200.9873,-182.7582 0,-122.7207 80.9365,-190.8373 200.3085,-190.8373 m -60.0236,183.4335 c 0,66.7488 24.9368,95.7511 60.7024,95.7511 37.7567,0 60.6885,-29.0023 60.6885,-95.7511 0,-51.9341 -22.9318,-91.0484 -59.3761,-89.026 -47.8686,0 -62.0148,49.2365 -62.0148,89.026" />
      <path
         inkscape:connector-curvature="0"
         id="path742"
         d="m 3864.1471,2336.3433 c -184.1295,10.1118 -206.3549,-2.6977 -206.3549,-124.7674 l 0,-147.6852 -49.9152,0 0,-80.9227 51.948,0 0,-109.9111 138.2244,0 0,109.9111 67.424,0 0,80.9227 -67.424,0 0,128.116 c 0,32.3788 4.7304,43.8447 43.8447,43.8447 l 22.253,0 0,100.4919 z" />
    </g>
    <rect
       style="opacity:1;fill:none;fill-opacity:0;stroke:none;stroke-width:0.5;stroke-miterlimit:4;stroke-dasharray:none;stroke-opacity:1"
       id="rect7062"
       width="2493.6299"
       height="1024"
       x="-1486.8149"
       y="503.21936"
       inkscape:export-xdpi="90"
       inkscape:export-ydpi="90" />
  </g>
</svg>
