<?xml version="1.0" encoding="UTF-8" standalone="no"?>
<!-- Created with Inkscape (http://www.inkscape.org/) -->

<svg
   xmlns:dc="http://purl.org/dc/elements/1.1/"
   xmlns:cc="http://creativecommons.org/ns#"
   xmlns:rdf="http://www.w3.org/1999/02/22-rdf-syntax-ns#"
   xmlns:svg="http://www.w3.org/2000/svg"
   xmlns="http://www.w3.org/2000/svg"
   xmlns:sodipodi="http://sodipodi.sourceforge.net/DTD/sodipodi-0.dtd"
   xmlns:inkscape="http://www.inkscape.org/namespaces/inkscape"
   width="288.99554mm"
   height="288.99554mm"
   viewBox="0 0 1024 1024"
   id="svg6566"
   version="1.1"
   inkscape:version="0.91 r13725"
   sodipodi:docname="boost-algorithms-isotype--dark--square-none-background.svg">
  <defs
     id="defs6568" />
  <sodipodi:namedview
     id="base"
     pagecolor="#ffffff"
     bordercolor="#666666"
     borderopacity="1.0"
     inkscape:pageopacity="0.0"
     inkscape:pageshadow="2"
     inkscape:zoom="0.35"
     inkscape:cx="-42.190098"
     inkscape:cy="505.8189"
     inkscape:document-units="px"
     inkscape:current-layer="layer1"
     showgrid="false"
     inkscape:window-width="1366"
     inkscape:window-height="669"
     inkscape:window-x="0"
     inkscape:window-y="32"
     inkscape:window-maximized="1"
     fit-margin-top="0"
     fit-margin-left="0"
     fit-margin-right="0"
     fit-margin-bottom="0" />
  <metadata
     id="metadata6571">
    <rdf:RDF>
      <cc:Work
         rdf:about="">
        <dc:format>image/svg+xml</dc:format>
        <dc:type
           rdf:resource="http://purl.org/dc/dcmitype/StillImage" />
        <dc:title></dc:title>
      </cc:Work>
    </rdf:RDF>
  </metadata>
  <g
     inkscape:label="Layer 1"
     inkscape:groupmode="layer"
     id="layer1"
     transform="translate(139.95276,-14.181103)">
    <rect
       style="opacity:1;fill:none;fill-opacity:1;stroke:none;stroke-width:0.5;stroke-miterlimit:4;stroke-dasharray:none;stroke-opacity:1"
       id="rect10064"
       width="1024"
       height="1024"
       x="-139.95274"
       y="14.181114"
       inkscape:export-xdpi="90"
       inkscape:export-ydpi="90" />
    <g
       transform="matrix(1.2800024,0,0,1.2800024,-14447.415,-2599.661)"
       id="g988"
       inkscape:export-xdpi="90"
       inkscape:export-ydpi="90">
      <path
         d="m 11334.108,2325.447 -7.475,-9.026 c -2.266,1.396 -4.825,2.236 -7.504,2.451 -0.337,0.026 -0.666,0.039 -0.993,0.041 l -12.946,69.301 28.918,-62.767 z"
         id="path990"
         inkscape:connector-curvature="0"
         style="fill:#6e1d94" />
      <path
         d="m 11641.072,2542.987 13.523,19.019 37.604,-12.233 -48.458,-10.76 c -0.687,1.427 -1.588,2.766 -2.669,3.974 z"
         id="path992"
         inkscape:connector-curvature="0"
         style="fill:#6e1d94" />
      <path
         d="m 11344.262,2127.194 c -0.479,1.437 -0.884,2.86 -1.212,4.262 l 15.009,0.479 -13.797,-4.741 z"
         id="path994"
         inkscape:connector-curvature="0"
         style="fill:#6e1d94" />
      <path
         d="m 11822.653,2137.12 -5.242,-1.136 36.612,16.539 c -9.681,-6.635 -20.307,-11.867 -31.37,-15.403 z"
         id="path996"
         inkscape:connector-curvature="0"
         style="fill:#6e1d94" />
      <path
         d="m 11330.098,2142.407 17.412,-3.188 -20.86,-0.669 c 1.343,1.073 2.516,2.373 3.448,3.857 z"
         id="path998"
         inkscape:connector-curvature="0"
         style="fill:#6e1d94" />
      <path
         d="m 11662.088,2070.622 -0.343,-3.192 c -6.479,-0.094 -12.998,0.35 -19.358,1.315 l 11.766,7.086 c 2.105,-2.474 4.834,-4.266 7.935,-5.209 z"
         id="path1000"
         inkscape:connector-curvature="0"
         style="fill:#6e1d94" />
      <path
         d="m 11931.367,2352.882 c 0.01,0.171 0.02,0.341 0.03,0.508 l 43.001,7.844 c -2.191,-9.219 -5.461,-18.153 -9.744,-26.627 l -33.744,15.646 c 0.241,0.907 0.39,1.769 0.459,2.629 z"
         id="path1002"
         inkscape:connector-curvature="0"
         style="fill:#6e1d94" />
      <path
         d="m 11766.596,2500.005 c 0.367,-1.417 0.707,-2.828 1.018,-4.223 l -25.225,-6.148 24.207,10.371 z"
         id="path1004"
         inkscape:connector-curvature="0"
         style="fill:#6e1d94" />
      <path
         d="m 11624.238,2185.182 c 0.764,-0.524 1.569,-0.984 2.412,-1.377 l -6.834,-44.924 c -3.133,-0.097 -6.078,-1.323 -8.356,-3.447 l -9.755,6.458 c 0.56,1.486 0.905,3.03 1.031,4.612 0.331,4.024 -0.761,7.939 -3.095,11.208 l 24.597,27.47 z"
         id="path1006"
         inkscape:connector-curvature="0"
         style="fill:#6e1d94" />
      <path
         d="m 11627.21,2136.817 6.898,45.367 c 0.239,0.01 0.482,0.022 0.729,0.041 l 24.777,-80.051 c -0.644,-0.316 -1.268,-0.677 -1.873,-1.077 l -25.667,19.775 c 0.582,1.305 0.934,2.664 1.051,4.06 0.386,4.741 -1.95,9.329 -5.915,11.885 z"
         id="path1008"
         inkscape:connector-curvature="0"
         style="fill:#6e1d94" />
      <path
         d="m 11341.757,2513.328 -41.99,-79.937 c -0.102,0.017 -0.203,0.033 -0.305,0.046 l -0.458,44.902 c 6.992,1.806 12.11,7.779 12.703,15.103 0.14,1.693 0.02,3.389 -0.355,5.062 l 30.405,14.824 z"
         id="path1010"
         inkscape:connector-curvature="0"
         style="fill:#6e1d94" />
      <path
         d="m 11337.883,2318.05 46.914,-88.546 -54.046,61.387 c 2.312,2.721 3.714,6.064 3.996,9.605 0.304,3.711 -0.637,7.396 -2.666,10.547 l 5.802,7.007 z"
         id="path1012"
         inkscape:connector-curvature="0"
         style="fill:#6e1d94" />
      <path
         d="m 11464.115,2517.854 -9.907,-0.136 22.717,87.595 c 0.475,-1.121 1.461,-1.962 2.635,-2.232 2.055,-0.514 4.109,-1.116 6.109,-1.791 l -8.56,-71.458 c -6.202,-1.243 -11.239,-5.889 -12.994,-11.978 z"
         id="path1014"
         inkscape:connector-curvature="0"
         style="fill:#6e1d94" />
      <path
         d="m 11418.562,2197.997 43.658,-2.612 c 0.5,-2.956 1.767,-5.719 3.688,-8.033 l -30.799,-40.351 c -1.808,0.841 -3.696,1.347 -5.637,1.509 -1.095,0.088 -2.119,0.054 -3.238,-0.094 l -14.159,40.658 c 3.085,2.16 5.362,5.29 6.487,8.923 z"
         id="path1016"
         inkscape:connector-curvature="0"
         style="fill:#6e1d94" />
      <path
         d="m 11360.694,2651.385 c 0.997,0.482 1.767,1.501 1.993,2.693 0.819,4.769 1.534,9.728 2.137,14.823 l 57.811,-111.854 -69.87,96.351 c 1.5,-0.625 2.973,-1.294 4.447,-2.018 0.525,-0.284 1.12,-0.434 1.722,-0.434 0.608,0 1.216,0.152 1.76,0.439 z"
         id="path1018"
         inkscape:connector-curvature="0"
         style="fill:#6e1d94" />
      <path
         d="m 11387.045,2514.705 -32.772,9.988 -2.52,106.683 40.728,-110.917 c -2.234,-1.465 -4.099,-3.44 -5.436,-5.754 z"
         id="path1020"
         inkscape:connector-curvature="0"
         style="fill:#6e1d94" />
      <path
         d="m 11611.398,2533.556 -115.392,-13.505 c -2.103,4.681 -6.273,8.206 -11.248,9.525 l 8.257,68.824 c 19.676,-8.847 35.046,-25.348 42.41,-45.659 0.44,-1.245 1.543,-2.188 2.871,-2.446 0.107,-0.025 0.281,-0.045 0.476,-0.051 1.193,-0.08 2.37,0.418 3.142,1.341 12.807,15.028 29.109,27.083 47.229,34.935 l 27.123,-42.837 c -2.748,-2.745 -4.45,-6.269 -4.868,-10.127 z"
         id="path1022"
         inkscape:connector-curvature="0"
         style="fill:#6e1d94" />
      <path
         d="m 11308.141,2432.945 44.302,84.353 32.309,-9.856 c -0.209,-3.104 0.433,-6.139 1.869,-8.907 l -78.48,-65.59 z"
         id="path1024"
         inkscape:connector-curvature="0"
         style="fill:#6e1d94" />
      <path
         d="m 11755.027,2361.322 -81.648,67.319 c 0.436,1.284 0.7,2.543 0.804,3.812 0.327,3.979 -0.741,7.855 -3.029,11.112 l 19.448,18.471 c 2.474,-1.733 5.306,-2.766 8.29,-3.01 1.373,-0.108 2.668,-0.036 4.038,0.202 l 52.097,-97.906 z"
         id="path1026"
         inkscape:connector-curvature="0"
         style="fill:#6e1d94" />
      <path
         d="m 11704.47,2492.505 5.53,52.312 0.359,-0.046 38.225,-4.786 c 6.798,-10.077 12.13,-21.029 15.871,-32.591 l -50.265,-21.557 c -2.332,3.295 -5.791,5.666 -9.72,6.668 z"
         id="path1028"
         inkscape:connector-curvature="0"
         style="fill:#6e1d94" />
      <path
         d="m 11195.583,2531.786 c 4.832,15.814 14.409,29.695 27.317,39.749 l -21.741,-59.1 -5.576,19.351 z"
         id="path1030"
         inkscape:connector-curvature="0"
         style="fill:#6e1d94" />
      <path
         d="m 11294.236,2654.897 49.444,-4.125 2.726,-115.524 -71.025,109.722 c 5.816,4.146 12.148,7.481 18.855,9.927 z"
         id="path1032"
         inkscape:connector-curvature="0"
         style="fill:#6e1d94" />
      <path
         d="m 11769.852,2362.042 c -0.408,0.034 -0.851,0.052 -1.29,0.052 -1.639,0 -3.28,-0.254 -4.9,-0.757 l -53.622,100.749 c 4.163,2.896 6.821,7.453 7.234,12.555 0.03,0.354 0.05,0.699 0.05,1.034 l 51.758,12.618 c 0.343,-2.031 0.618,-3.933 0.836,-5.763 0.157,-1.401 1.12,-2.631 2.45,-3.118 0.399,-0.156 0.864,-0.244 1.34,-0.244 0.934,0 1.829,0.341 2.521,0.959 6.599,5.828 13.793,10.917 21.377,15.121 l 40.479,9.859 -67.465,-143.149 c -0.247,0.036 -0.502,0.066 -0.764,0.084 z"
         id="path1034"
         inkscape:connector-curvature="0"
         style="fill:#6e1d94" />
      <polygon
         points="11231.936,2378.051 11194.338,2352.009 11190.913,2355.396 "
         id="polygon1036"
         style="fill:#6e1d94" />
      <path
         d="m 11311.471,2406.843 125.517,-53.587 c -0.29,-0.803 -0.52,-1.636 -0.689,-2.497 l -95.555,-21.497 -33.731,73.186 c 1.757,1.187 3.263,2.671 4.458,4.395 z"
         id="path1038"
         inkscape:connector-curvature="0"
         style="fill:#6e1d94" />
      <path
         d="m 11634.879,2547.433 c -1.646,0.695 -3.364,1.122 -5.129,1.272 -2.473,0.197 -4.771,-0.135 -7.039,-0.96 l -26.358,41.649 c 7.947,2.883 16.207,4.998 24.605,6.299 l 27.251,-29.506 -13.33,-18.754 z"
         id="path1040"
         inkscape:connector-curvature="0"
         style="fill:#6e1d94" />
      <path
         d="m 11630.29,2596.819 c 11.741,0.961 23.613,0.313 35.13,-1.896 l -12.989,-22.071 -22.141,23.967 z"
         id="path1042"
         inkscape:connector-curvature="0"
         style="fill:#6e1d94" />
      <path
         d="m 11658.801,2568.647 14.429,24.521 c 1.067,-0.276 2.154,-0.574 3.278,-0.897 l 21.665,-36.441 -39.372,12.817 z"
         id="path1044"
         inkscape:connector-curvature="0"
         style="fill:#6e1d94" />
      <path
         d="m 11897.521,2356.985 -113.071,-6.062 c -1.271,3.456 -3.602,6.389 -6.654,8.381 l 67.009,142.203 58.846,-134.059 c -3.293,-2.647 -5.459,-6.34 -6.13,-10.463 z"
         id="path1046"
         inkscape:connector-curvature="0"
         style="fill:#6e1d94" />
      <path
         d="m 11402.231,2186 c 0.913,0 1.841,0.079 2.774,0.238 l 1.101,-3.143 12.948,-37.2 c -3.275,-2.057 -5.728,-5.125 -6.992,-8.748 l -14.336,1.581 c -0.774,4.118 -3.267,7.701 -6.871,9.825 l 11.354,37.449 c 0,0 0.01,0 0.02,0 z"
         id="path1048"
         inkscape:connector-curvature="0"
         style="fill:#6e1d94" />
      <path
         d="m 11684.275,2481.871 c -0.546,-1.463 -0.88,-2.96 -0.999,-4.471 -0.275,-3.413 0.481,-6.74 2.196,-9.726 l -19.992,-18.99 c -2.152,1.232 -4.472,1.954 -6.915,2.15 -0.344,0.031 -0.688,0.05 -1.069,0.044 l -20.577,66.148 c 0.688,0.4 1.342,0.846 1.961,1.336 l 45.395,-36.491 z"
         id="path1050"
         inkscape:connector-curvature="0"
         style="fill:#6e1d94" />
      <path
         d="m 11587.118,2164.881 c -1.418,0.117 -2.843,0.042 -4.282,-0.22 l -32.187,76.722 67.082,-36.574 c -0.487,-1.373 -0.791,-2.783 -0.906,-4.212 -0.279,-3.423 0.489,-6.77 2.23,-9.776 l -1.089,-1.22 -24.01,-26.823 c -2.132,1.193 -4.463,1.914 -6.838,2.103 z"
         id="path1052"
         inkscape:connector-curvature="0"
         style="fill:#6e1d94" />
      <path
         d="m 11572.384,2158.394 -76.764,36.174 c 0.188,0.785 0.304,1.518 0.362,2.255 0.245,3.044 -0.351,6.065 -1.73,8.838 l 47.123,38.128 34.431,-82.065 c -1.271,-0.928 -2.425,-2.05 -3.422,-3.33 z"
         id="path1054"
         inkscape:connector-curvature="0"
         style="fill:#6e1d94" />
      <path
         d="m 11310.666,2317.377 c -3.427,-1.591 -6.27,-4.328 -8.014,-7.706 l -100.618,38.384 82.619,57.248 c 2.758,-3.174 6.526,-5.209 10.666,-5.728 l 15.347,-82.198 z"
         id="path1056"
         inkscape:connector-curvature="0"
         style="fill:#6e1d94" />
      <path
         d="m 11357.88,2824.051 43.449,5.577 -33.942,-112.963 c -0.1,42.703 -5.688,84.058 -9.507,107.386 z"
         id="path1058"
         inkscape:connector-curvature="0"
         style="fill:#6e1d94" />
      <path
         d="m 11448.539,2376.138 -37.977,115.561 c 4.681,2.826 7.772,7.715 8.21,13.158 0,0.077 0.01,0.153 0.01,0.228 l 26.764,4.294 2.988,-133.241 z"
         id="path1060"
         inkscape:connector-curvature="0"
         style="fill:#6e1d94" />
      <path
         d="m 11672.513,2255.212 c -1.553,0.679 -3.171,1.115 -4.835,1.3 l -5.22,161.174 c 2.646,0.863 5.031,2.352 6.957,4.338 l 83.965,-69.209 c -1.069,-2.025 -1.7,-4.168 -1.879,-6.394 -0.257,-3.137 0.377,-6.244 1.842,-9.076 l -80.83,-82.133 z"
         id="path1062"
         inkscape:connector-curvature="0"
         style="fill:#6e1d94" />
      <path
         d="m 11278.399,2499.562 -72.333,4.166 27.54,74.849 c 1.06,0.594 2.178,1.178 3.332,1.739 0.55,0.266 1.111,0.528 1.669,0.786 l 0.999,0.447 c 1.323,0.588 2.182,1.828 2.268,3.25 1.129,17.947 8.291,34.961 20.274,48.338 l 25.719,-122.736 c -4.621,-2.031 -8.072,-5.982 -9.468,-10.839 z"
         id="path1064"
         inkscape:connector-curvature="0"
         style="fill:#6e1d94" />
      <path
         d="m 11179.782,2358.521 c -0.884,2.598 -1.497,5.29 -1.83,8.027 -0.916,7.917 0.528,15.853 4.177,22.934 0.552,1.053 0.575,2.295 0.06,3.393 -1.985,4.078 -3.244,8.355 -3.748,12.735 -1.432,12.205 2.938,24.403 11.555,32.976 l -8.908,-79.573 -1.303,-0.492 z"
         id="path1066"
         inkscape:connector-curvature="0"
         style="fill:#6e1d94" />
      <path
         d="m 11308.049,2505.363 c -2.937,3.733 -7.204,6.048 -11.97,6.435 -0.242,0.02 -0.482,0.031 -0.721,0.034 l -26.763,127.719 c 0.252,0.226 0.508,0.452 0.769,0.678 l 75.64,-116.842 -36.955,-18.024 z"
         id="path1068"
         inkscape:connector-curvature="0"
         style="fill:#6e1d94" />
      <path
         d="m 11497.474,2512.544 114.877,13.448 c 2.234,-6.304 7.899,-10.754 14.626,-11.296 0.885,-0.075 1.746,-0.059 2.668,0.031 l 20.373,-65.438 c -1.728,-0.806 -3.315,-1.904 -4.698,-3.252 l -7.285,3.165 -140.763,61.271 c 0.07,0.443 0.127,0.87 0.161,1.289 0.02,0.264 0.03,0.526 0.04,0.782 z"
         id="path1070"
         inkscape:connector-curvature="0"
         style="fill:#6e1d94" />
      <path
         d="m 11654.843,2416.946 3.369,-103.443 1.874,-57.939 c -2.124,-0.757 -4.061,-1.915 -5.722,-3.422 l -74.854,46.193 c 0.476,1.354 0.771,2.724 0.88,4.093 0.379,4.654 -1.165,9.167 -4.274,12.645 l 73.83,103.382 c 1.581,-0.766 3.219,-1.271 4.897,-1.509 z"
         id="path1072"
         inkscape:connector-curvature="0"
         style="fill:#6e1d94" />
      <path
         d="m 11643.958,2423.181 -74.024,-103.655 c -1.667,0.711 -3.4,1.141 -5.176,1.281 -5.969,0.479 -11.697,-2.248 -15.157,-7.023 l -79.554,33.693 c -0.02,1.943 -0.369,3.874 -1.048,5.716 l 173.298,72.445 c 0.476,-0.859 1.031,-1.679 1.661,-2.457 z"
         id="path1074"
         inkscape:connector-curvature="0"
         style="fill:#6e1d94" />
      <path
         d="m 11383.452,2150 c -5.431,0 -10.406,-2.789 -12.892,-7.573 l -38.106,7.131 c 0.06,1.076 -0.02,2.261 -0.211,3.382 l 58.741,37.423 c 1.134,-1.014 2.415,-2.184 3.8,-2.868 l -11.262,-37.494 c -0.02,0 -0.05,0 -0.07,0 z"
         id="path1076"
         inkscape:connector-curvature="0"
         style="fill:#6e1d94" />
      <path
         d="m 11193.195,2495.464 c -1.108,6.58 -1.374,13.22 -0.797,19.856 l 4.182,-14.505 -3.385,-5.351 z"
         id="path1078"
         inkscape:connector-curvature="0"
         style="fill:#6e1d94" />
      <path
         d="m 11210.006,2449.371 c 1.338,0.281 2.425,1.245 2.85,2.516 0.426,1.305 0.136,2.73 -0.753,3.733 -4.159,4.718 -7.788,10.003 -10.789,15.716 l 2.384,21.264 78.627,-68.27 c -1.082,-2.04 -1.72,-4.198 -1.898,-6.439 -0.107,-1.393 -0.03,-2.812 0.229,-4.239 l -91.442,-50.471 9.157,81.783 c 3.667,2.095 7.575,3.576 11.635,4.407 z"
         id="path1080"
         inkscape:connector-curvature="0"
         style="fill:#6e1d94" />
      <path
         d="m 11397.123,2131.158 14.104,-1.588 c 0.762,-6.653 5.403,-12.269 11.791,-14.268 l -3.071,-39.521 c -0.151,0.053 -0.309,0.097 -0.472,0.131 -10.706,2.061 -20.336,7.89 -27.229,16.447 l -3.526,30.17 c 3.894,1.529 6.98,4.698 8.403,8.629 z"
         id="path1082"
         inkscape:connector-curvature="0"
         style="fill:#6e1d94" />
      <path
         d="m 11442.537,2516.626 -25.007,-4.016 c -2.396,5.913 -7.959,10.091 -14.373,10.613 -1.157,0.097 -2.304,0.053 -3.522,-0.124 l -39.18,106.698 82.082,-113.171 z"
         id="path1084"
         inkscape:connector-curvature="0"
         style="fill:#6e1d94" />
      <path
         d="m 11436.664,2116.835 51.691,-54.984 c -1.344,-0.287 -2.69,-0.512 -4.031,-0.673 -1.742,-0.203 -3.525,-0.306 -5.293,-0.306 -8.892,0 -17.53,2.518 -24.982,7.283 -0.759,0.494 -1.694,0.703 -2.6,0.56 l -0.206,-0.039 c -0.167,-0.029 -0.445,-0.075 -0.544,-0.089 -1.765,-0.208 -3.559,-0.314 -5.332,-0.314 -6.24,0 -12.313,1.253 -18.074,3.726 l 3.324,42.71 c 2.141,0.319 4.186,1.038 6.047,2.126 z"
         id="path1086"
         inkscape:connector-curvature="0"
         style="fill:#6e1d94" />
      <path
         d="m 11381.148,2121.664 3.027,-25.911 c -15.729,1.279 -29.534,10.412 -36.9,24.418 l 23.864,8.198 c 2.227,-3.58 5.875,-6.037 10.009,-6.705 z"
         id="path1088"
         inkscape:connector-curvature="0"
         style="fill:#6e1d94" />
      <path
         d="m 11445.024,2129.435 124.642,12.947 c 1.154,-3.374 3.324,-6.301 6.197,-8.364 l -32.555,-78.397 c -1.466,-0.259 -2.846,-0.463 -4.115,-0.613 -14.26,-1.655 -28.882,1.158 -41.471,8.002 l -55.491,59.014 c 1.517,2.24 2.469,4.762 2.793,7.411 z"
         id="path1090"
         inkscape:connector-curvature="0"
         style="fill:#6e1d94" />
      <path
         d="m 11584.36,2130.885 c 0.474,-0.038 0.938,-0.057 1.397,-0.057 4.385,0 8.563,1.701 11.726,4.723 l 10.185,-6.735 c -0.149,-0.61 -0.248,-1.202 -0.298,-1.789 -0.285,-3.545 0.899,-7.007 3.222,-9.626 l -47.365,-55.531 c -0.623,0.015 -1.2,-0.113 -1.738,-0.367 -2.89,-1.4 -5.896,-2.602 -8.985,-3.595 l 30.382,73.166 c 0.488,-0.084 0.98,-0.147 1.474,-0.189 z"
         id="path1092"
         inkscape:connector-curvature="0"
         style="fill:#6e1d94" />
      <path
         d="m 11196.083,2336.537 0.849,5.306 100.623,-38.384 -94.058,-0.701 c -4.25,5.642 -6.919,12.283 -7.735,19.276 -0.494,4.166 -0.316,8.399 0.528,12.586 0.137,0.577 0.07,1.237 -0.207,1.917 z"
         id="path1094"
         inkscape:connector-curvature="0"
         style="fill:#6e1d94" />
      <path
         d="m 11619.204,2113.1 c 0.352,-0.028 0.697,-0.042 1.04,-0.042 2.444,0 4.838,0.702 6.895,2.002 l 25.293,-19.487 c -1.336,-2.234 -2.143,-4.736 -2.356,-7.341 -0.153,-1.879 0.02,-3.771 0.528,-5.645 l -45.466,-27.368 -0.542,-0.083 c -0.393,-0.062 -0.788,-0.124 -1.188,-0.171 -8.232,-0.967 -16.655,-0.449 -24.663,1.507 l 39.62,56.728 c 0.282,-0.044 0.561,-0.078 0.839,-0.1 z"
         id="path1096"
         inkscape:connector-curvature="0"
         style="fill:#6e1d94" />
      <path
         d="m 11303.875,2158.433 -17.752,7.311 c -0.861,2.184 -1.55,4.395 -2.051,6.582 -0.26,1.14 -1.023,2.087 -2.097,2.594 -19.027,8.874 -31.832,26.597 -34.263,47.411 -0.02,0.207 -0.05,0.415 -0.07,0.623 l 56.375,-64.273 c -0.05,-0.082 -0.09,-0.165 -0.143,-0.248 z"
         id="path1098"
         inkscape:connector-curvature="0"
         style="fill:#6e1d94" />
      <path
         d="m 11314.042,2285.261 0.157,-119.621 c -1.638,-0.311 -3.208,-0.886 -4.657,-1.706 l -93.634,106.751 c -0.437,2.036 -0.757,3.918 -0.977,5.737 -0.513,4.446 -0.524,8.982 -0.03,13.476 0.144,1.414 -0.491,2.777 -1.656,3.572 -0.802,0.536 -1.591,1.11 -2.363,1.719 l 90.965,0.685 c 2.029,-5.344 6.66,-9.365 12.198,-10.613 z"
         id="path1100"
         inkscape:connector-curvature="0"
         style="fill:#6e1d94" />
      <path
         d="m 11964.351,2444.51 c 3.785,-7.387 6.794,-15.152 8.987,-23.18 l -29.007,36.297 20.02,-13.117 z"
         id="path1102"
         inkscape:connector-curvature="0"
         style="fill:#6e1d94" />
      <path
         d="m 11764.831,2328.428 13.256,-187.966 c -1.367,-0.48 -2.638,-1.112 -3.802,-1.891 l -93.809,92.397 c 1.31,2.212 2.1,4.672 2.308,7.209 0.374,4.566 -1.104,8.996 -4.099,12.454 l 79.581,80.853 c 1.963,-1.496 4.185,-2.532 6.565,-3.056 z"
         id="path1104"
         inkscape:connector-curvature="0"
         style="fill:#6e1d94" />
      <path
         d="m 11277.959,2491.956 c 1.178,-6.934 6.564,-12.491 13.434,-13.86 l 0.459,-45.543 c -1.646,-0.57 -3.195,-1.388 -4.584,-2.425 l -75.619,65.647 66.31,-3.819 z"
         id="path1106"
         inkscape:connector-curvature="0"
         style="fill:#6e1d94" />
      <path
         d="m 11976.024,2369.275 -45.989,-8.388 c -1.971,4.664 -5.89,8.172 -10.755,9.631 l 9.973,93.78 47.375,-59.295 0.04,-0.272 c 0.07,-0.468 0.145,-0.943 0.195,-1.418 1.325,-11.338 1.043,-22.774 -0.84,-34.038 z"
         id="path1108"
         inkscape:connector-curvature="0"
         style="fill:#6e1d94" />
      <path
         d="m 11366.94,2681.411 56.291,17.103 c 6.046,-18.603 13.428,-35.804 21.951,-51.152 0.242,-0.456 0.617,-0.888 1.098,-1.248 10.85,-7.497 19.718,-17.604 25.749,-29.312 l -23.951,-92.377 -81.138,156.986 z"
         id="path1110"
         inkscape:connector-curvature="0"
         style="fill:#6e1d94" />
      <path
         d="m 11912.983,2337.25 c 0.463,-0.038 0.923,-0.057 1.379,-0.057 5.097,0 9.874,2.31 13.109,6.259 l 0.157,-0.073 33.367,-15.473 c -1.611,-2.763 -3.311,-5.435 -5.068,-7.968 -0.448,-0.6 -0.693,-1.325 -0.709,-2.101 -1.344,-37.323 -20.42,-72.613 -51.027,-94.367 -0.739,-0.533 -1.258,-1.298 -1.474,-2.162 -5.04,-18.938 -14.84,-36.656 -28.347,-51.236 l -77.32,-34.92 c -0.691,0.853 -1.465,1.637 -2.318,2.347 l 114.259,200.603 c 1.329,-0.459 2.665,-0.744 3.992,-0.852 z"
         id="path1112"
         inkscape:connector-curvature="0"
         style="fill:#6e1d94" />
      <path
         d="m 11859.534,2508.291 12.258,1.191 c 20.535,-2.613 40.109,-10.481 56.738,-22.794 l -3.866,-7.793 -65.13,29.396 z"
         id="path1114"
         inkscape:connector-curvature="0"
         style="fill:#6e1d94" />
      <path
         d="m 11656.646,2225.197 c 2.342,-1.509 4.99,-2.414 7.769,-2.64 0.466,-0.038 0.928,-0.057 1.387,-0.057 3.377,0 6.675,1.018 9.472,2.896 l 87.56,-86.237 -112.23,56.995 c 0.104,0.567 0.177,1.135 0.221,1.7 0.406,4.994 -1.406,9.857 -4.908,13.378 l 10.729,13.965 z"
         id="path1116"
         inkscape:connector-curvature="0"
         style="fill:#6e1d94" />
      <path
         d="m 11687.591,2588.546 c 14.235,-5.523 27.606,-13.625 39.082,-23.695 l -18.691,-10.608 -20.391,34.303 z"
         id="path1118"
         inkscape:connector-curvature="0"
         style="fill:#6e1d94" />
      <path
         d="m 11934.64,2481.861 c 7.632,-6.461 14.561,-13.988 20.424,-22.164 l -23.71,15.547 3.286,6.617 z"
         id="path1120"
         inkscape:connector-curvature="0"
         style="fill:#6e1d94" />
      <path
         d="m 11560.071,2244.927 88.686,-6.169 c 0.145,-2.822 1.01,-5.586 2.52,-8.043 l -11.847,-15.421 c -1.402,0.504 -2.816,0.676 -4.224,0.791 -0.466,0.038 -0.927,-0.085 -1.384,-0.085 l 0,0 c -4.556,0 -8.854,-1.662 -12.041,-4.859 l -61.709,33.786 z"
         id="path1122"
         inkscape:connector-curvature="0"
         style="fill:#6e1d94" />
      <path
         d="m 11696.827,2492.703 c -3.144,-0.65 -6.064,-2.187 -8.377,-4.404 l -44.787,35.992 c 0.959,1.934 1.529,3.952 1.699,6.019 0.04,0.414 0.05,0.837 0.05,1.273 l 56.856,12.636 -5.442,-51.516 z"
         id="path1124"
         inkscape:connector-curvature="0"
         style="fill:#6e1d94" />
      <path
         d="m 11782.464,2107.461 c 0.996,-0.083 2.011,-0.071 3.026,0.036 -6.472,-3.772 -13.298,-6.913 -20.39,-9.383 l 10.106,11.669 c 2.229,-1.323 4.703,-2.117 7.258,-2.322 z"
         id="path1126"
         inkscape:connector-curvature="0"
         style="fill:#6e1d94" />
      <path
         d="m 11684.078,2085.477 c 0.111,1.325 0.05,2.688 -0.189,4.07 l 85.07,26.677 c 0.223,-0.416 0.459,-0.817 0.708,-1.2 l -17.919,-20.685 c -3.958,-0.871 -7.891,-1.541 -11.701,-1.99 -2.217,-0.262 -4.576,-0.455 -7.424,-0.607 -0.737,-0.028 -1.496,-0.306 -2.104,-0.779 -16.556,-12.461 -36.235,-20.333 -56.884,-22.744 -1.358,-0.161 -2.757,-0.301 -4.181,-0.416 l 0.239,2.268 c 7.704,1.191 13.746,7.523 14.385,15.406 z"
         id="path1128"
         inkscape:connector-curvature="0"
         style="fill:#6e1d94" />
      <path
         d="m 11732.513,2559.402 c 3.466,-3.452 6.754,-7.121 9.819,-10.957 l -23.849,2.997 14.03,7.96 z"
         id="path1130"
         inkscape:connector-curvature="0"
         style="fill:#6e1d94" />
      <path
         d="m 11911.67,2371.042 c -0.402,-0.061 -0.797,-0.136 -1.185,-0.224 l -58.08,132.324 69.95,-31.569 -10.685,-100.531 z"
         id="path1132"
         inkscape:connector-curvature="0"
         style="fill:#6e1d94" />
      <path
         d="m 11472.627,2498.064 -16.841,-105.373 -2.63,117.391 10.535,0.144 c 0.922,-5.206 4.235,-9.724 8.936,-12.162 z"
         id="path1134"
         inkscape:connector-curvature="0"
         style="fill:#6e1d94" />
      <path
         d="m 11451.606,2330.384 c 0.302,-0.026 0.604,-0.039 0.907,-0.043 l 19.91,-116.44 c -4.747,-1.977 -8.302,-5.957 -9.742,-10.909 l -43.542,2.606 c -0.699,4.588 -3.256,8.737 -7.034,11.4 l 38.115,113.558 c 0.458,-0.076 0.92,-0.133 1.386,-0.172 z"
         id="path1136"
         inkscape:connector-curvature="0"
         style="fill:#6e1d94" />
      <path
         d="m 11444.157,2137.007 c -0.668,1.953 -1.681,3.758 -2.994,5.341 l 30.793,40.356 c 1.809,-0.845 3.702,-1.349 5.65,-1.502 0.459,-0.038 0.924,-0.057 1.384,-0.057 5.255,0 10.116,2.415 13.341,6.545 l 76.767,-36.179 c -0.127,-0.534 -0.221,-1.051 -0.287,-1.564 l -124.654,-12.94 z"
         id="path1138"
         inkscape:connector-curvature="0"
         style="fill:#6e1d94" />
      <path
         d="m 11785.482,2343.347 112.593,6.035 c 0.828,-2.789 2.342,-5.308 4.402,-7.328 l -114.528,-201.071 c -0.789,0.216 -1.543,0.362 -2.291,0.446 l -13.189,187.039 c 6.985,1.665 12.285,7.617 13.013,14.879 z"
         id="path1140"
         inkscape:connector-curvature="0"
         style="fill:#6e1d94" />
      <path
         d="m 11546.591,2306.779 c -0.1,-0.528 -0.164,-1.061 -0.209,-1.595 -0.506,-6.23 2.415,-12.144 7.546,-15.562 l -12.339,-32.474 -73.58,82.282 c 0.09,0.173 0.184,0.347 0.271,0.522 l 78.311,-33.173 z"
         id="path1142"
         inkscape:connector-curvature="0"
         style="fill:#6e1d94" />
      <path
         d="m 11480.353,2215.198 c -0.134,0.013 -0.272,0.021 -0.413,0.026 l -19.948,116.624 c 1.048,0.481 2.048,1.076 2.995,1.779 l 0.157,-0.177 74.267,-83.06 -47.959,-38.817 c -2.647,2.112 -5.759,3.357 -9.099,3.625 z"
         id="path1144"
         inkscape:connector-curvature="0"
         style="fill:#6e1d94" />
      <path
         d="m 11647.54,2189.154 119.723,-60.798 c -0.22,-0.862 -0.362,-1.687 -0.431,-2.494 -0.06,-0.744 -0.06,-1.511 0,-2.318 l -85.799,-26.901 c -2.903,4.149 -7.49,6.811 -12.576,7.221 -0.462,0.04 -0.931,0.059 -1.405,0.05 l -24.921,80.491 c 2.123,1.19 3.975,2.816 5.41,4.749 z"
         id="path1146"
         inkscape:connector-curvature="0"
         style="fill:#6e1d94" />
      <path
         d="m 11388.844,2213.378 c -2.037,-2.615 -3.238,-5.671 -3.499,-8.942 -0.218,-2.689 0.199,-5.364 1.214,-7.837 l -57.397,-36.512 c -1.879,2.367 -4.437,4.133 -7.349,5.069 l -0.157,120.115 c 1.027,0.243 2.027,0.582 2.996,1.015 l 64.192,-72.908 z"
         id="path1148"
         inkscape:connector-curvature="0"
         style="fill:#6e1d94" />
      <path
         d="m 11403.909,2811.76 c 1.784,-38.584 7.505,-74.162 17.048,-105.966 l -53.806,-16.362 36.758,122.328 z"
         id="path1150"
         inkscape:connector-curvature="0"
         style="fill:#6e1d94" />
      <path
         d="m 11562.014,2286.808 c 0.463,-0.037 0.926,-0.056 1.385,-0.056 4.604,0 8.926,1.834 12.124,5.089 l 73.669,-45.474 -100.888,7.021 12.745,33.536 c 0.31,-0.049 0.633,-0.089 0.965,-0.116 z"
         id="path1152"
         inkscape:connector-curvature="0"
         style="fill:#6e1d94" />
      <path
         d="m 11436.509,2343 c 1.029,-3.817 3.39,-7.197 6.652,-9.507 l -38.121,-113.595 c -0.438,0.07 -0.875,0.124 -1.314,0.159 -1.721,0.141 -3.429,0.016 -5.108,-0.365 l -54.343,102.55 92.234,20.758 z"
         id="path1154"
         inkscape:connector-curvature="0"
         style="fill:#6e1d94" />
      <path
         d="m 11480.436,2496.085 c 5.615,0 10.812,2.762 13.983,7.321 l 146.697,-63.848 c -0.499,-1.394 -0.812,-2.846 -0.932,-4.341 -0.06,-0.707 -0.06,-1.441 -0.02,-2.214 l -175.389,-73.316 c -1.691,1.619 -3.711,2.863 -5.96,3.672 l 21.212,132.731 c 0.136,0 0.271,-0.01 0.406,-0.01 z"
         id="path1156"
         inkscape:connector-curvature="0"
         style="fill:#6e1d94" />
      <path
         d="m 11400.393,2489.24 c 0.955,-0.083 1.909,-0.061 2.941,0.058 l 41.692,-126.895 c -1.363,-0.722 -2.632,-1.632 -3.759,-2.7 l -126.992,54.227 c 0.06,0.401 0.113,0.8 0.146,1.198 0.311,3.851 -0.675,7.612 -2.796,10.795 l 79.887,66.767 c 2.6,-2.005 5.637,-3.189 8.881,-3.45 z"
         id="path1158"
         inkscape:connector-curvature="0"
         style="fill:#6e1d94" />
    </g>
  </g>
</svg>
