<?xml version="1.0" encoding="UTF-8" standalone="no"?>
<!-- Created with Inkscape (http://www.inkscape.org/) -->

<svg
   xmlns:dc="http://purl.org/dc/elements/1.1/"
   xmlns:cc="http://creativecommons.org/ns#"
   xmlns:rdf="http://www.w3.org/1999/02/22-rdf-syntax-ns#"
   xmlns:svg="http://www.w3.org/2000/svg"
   xmlns="http://www.w3.org/2000/svg"
   xmlns:sodipodi="http://sodipodi.sourceforge.net/DTD/sodipodi-0.dtd"
   xmlns:inkscape="http://www.inkscape.org/namespaces/inkscape"
   width="288.99554mm"
   height="288.99554mm"
   viewBox="0 0 1024 1024"
   id="svg6018"
   version="1.1"
   inkscape:version="0.91 r13725"
   sodipodi:docname="boost-algorithms-advanced-icon--dark--square-none-background.svg">
  <defs
     id="defs6020" />
  <sodipodi:namedview
     id="base"
     pagecolor="#ffffff"
     bordercolor="#666666"
     borderopacity="1.0"
     inkscape:pageopacity="0.0"
     inkscape:pageshadow="2"
     inkscape:zoom="0.35"
     inkscape:cx="529.23847"
     inkscape:cy="505.8189"
     inkscape:document-units="px"
     inkscape:current-layer="layer1"
     showgrid="false"
     fit-margin-top="0"
     fit-margin-left="0"
     fit-margin-right="0"
     fit-margin-bottom="0"
     inkscape:window-width="1366"
     inkscape:window-height="669"
     inkscape:window-x="0"
     inkscape:window-y="32"
     inkscape:window-maximized="1" />
  <metadata
     id="metadata6023">
    <rdf:RDF>
      <cc:Work
         rdf:about="">
        <dc:format>image/svg+xml</dc:format>
        <dc:type
           rdf:resource="http://purl.org/dc/dcmitype/StillImage" />
        <dc:title></dc:title>
      </cc:Work>
    </rdf:RDF>
  </metadata>
  <g
     inkscape:label="Layer 1"
     inkscape:groupmode="layer"
     id="layer1"
     transform="translate(139.95276,-14.181103)">
    <rect
       style="opacity:1;fill:none;fill-opacity:1;stroke:none;stroke-width:0.5;stroke-miterlimit:4;stroke-dasharray:none;stroke-opacity:1"
       id="rect10260"
       width="1024"
       height="1024"
       x="-139.95276"
       y="14.181103"
       inkscape:export-xdpi="90"
       inkscape:export-ydpi="90" />
    <path
       d="m 853.13216,66.868762 c 0.81538,0.68481 1.62691,1.37346 2.4154,2.08899 0.0256,0.0192 0.0384,0.0346 0.064,0.0538 0.064,0.0614 0.12929,0.13185 0.19713,0.19329 4.6196,4.15751 8.87567,8.85775 12.62998,14.12888 1.65506,2.32836 3.04005,4.7668 4.34183,7.23725 0.0256,0.0512 0.064,0.0973 0.0896,0.14848 0.1024,0.19712 0.19841,0.39297 0.30081,0.58881 0.63233,1.14434 1.25314,2.29636 1.83299,3.47142 l 0.0256,-0.0205 c 4.12039,8.368778 6.91084,17.471018 8.13198,27.080138 l 0.17024,0.56449 c 3.91943,30.63989 -8.32654,62.35244 -35.1814,81.47086 -15.22331,10.83795 -32.64825,15.85051 -50.07831,15.82235 L 776.18875,350.0455 c 26.46446,10.11345 45.24622,35.71133 45.24622,65.76113 0,38.91779 -31.4911,70.3961 -70.39481,70.3961 -12.91799,0 -24.48683,-4.46984 -34.91645,-10.59475 L 590.6201,601.21784 c 12.22549,17.18941 19.65218,38.22658 19.65218,60.97513 0,16.55581 -4.10503,31.94807 -10.92243,45.98096 l 107.2825,76.59012 c 12.22549,-10.08914 27.34895,-16.97565 44.39629,-16.97565 l 0,0.0128 c 38.90627,0 70.39609,31.5487 70.39609,70.39609 0,38.84739 -31.47958,70.3961 -70.39609,70.3961 -38.9178,0 -70.3961,-31.56023 -70.3961,-70.3961 0,-8.86927 2.05315,-17.18813 5.08169,-25.02571 L 579.12294,737.07426 c -19.08769,18.97121 -45.44079,30.72694 -74.44353,30.72694 -1.82915,0 -3.64678,-0.0474 -5.45289,-0.13953 L 477.5647,896.69302 c 8.98704,4.08199 17.47231,9.59249 23.63817,18.25312 18.47072,25.94861 12.41494,61.88523 -13.52471,80.35211 -25.94221,18.46685 -61.88011,12.42515 -80.35211,-13.52344 -18.472,-25.9486 -12.41621,-61.88522 13.52343,-80.3521 8.61327,-6.13131 18.44896,-8.64143 28.31025,-9.50929 L 470.92779,762.2523 c -41.74408,-14.09432 -71.84124,-53.56253 -71.84124,-100.04397 0,-5.49129 0.82177,-10.79443 1.65507,-16.08476 l -61.93003,-20.66723 c -1.41955,10.33873 -4.30344,20.2077 -8.48399,29.37138 -4.93449,10.81235 -11.63412,20.64292 -19.73922,29.12947 -11.80181,12.35477 -26.56814,21.84101 -43.15339,27.34127 l 36.02238,119.58351 c 9.86514,-0.32257 19.91331,0.86017 29.27667,5.89322 28.05553,15.08122 38.54403,49.9823 23.46793,78.02887 -15.07482,28.04656 -49.97335,38.55042 -78.02759,23.4692 -28.05681,-15.08122 -38.54659,-49.98102 -23.47049,-78.02887 5.00617,-9.31216 12.71318,-15.91963 21.16901,-21.06532 l -36.944,-122.6466 c -1.55779,0.0666 -3.11941,0.1216 -4.69384,0.1216 -4.61704,0 -9.156,-0.32896 -13.61816,-0.90369 -0.25088,-0.0333 -0.50305,-0.0614 -0.75265,-0.096 -4.63752,-0.63105 -9.17776,-1.56162 -13.60408,-2.77508 -0.20736,-0.0563 -0.416,-0.0935 -0.62337,-0.15105 -0.22784,-0.0627 -0.44032,-0.14976 -0.66689,-0.21632 -2.43076,-0.70017 -4.8372,-1.46051 -7.195,-2.3258 -0.30081,-0.11136 -0.59393,-0.23936 -0.89346,-0.35201 -1.97635,-0.74753 -3.92071,-1.56162 -5.83946,-2.42436 -0.62593,-0.28032 -1.25442,-0.55553 -1.87523,-0.84865 -2.01988,-0.95362 -4.00263,-1.96996 -5.94954,-3.04646 -0.54401,-0.3008 -1.07778,-0.61825 -1.61539,-0.92929 -1.95332,-1.12514 -3.87463,-2.29892 -5.7473,-3.5431 -0.0768,-0.0563 -0.16896,-0.10624 -0.25217,-0.16257 -8.90127,-5.95466 -16.83741,-13.23286 -23.54856,-21.54405 L -2.5395957,764.45523 c 3.01958001,11.67508 4.29704,23.97097 0.80002,36.47807 -10.4808203,37.48033 -49.2834103,59.31494 -86.7522203,48.83924 -37.467534,-10.47698 -59.317514,-49.27317 -48.836694,-86.75222 10.47955,-37.48032 49.283424,-59.31494 86.749664,-48.83924 12.44054,3.4791 22.37735,10.89939 30.7743,19.6061 L 134.81062,646.65735 c -2.3258,-6.49483 -4.03207,-13.28407 -5.04969,-20.29731 -2.1594,-14.18776 -1.4925,-29.05394 2.62021,-43.7614 1.94435,-6.9518 4.61576,-13.45303 7.82733,-19.57537 4.06407,-7.93998 9.09456,-15.29755 14.9545,-21.91526 L 72.587464,443.80073 c -14.48985,6.42571 -30.90997,9.58864 -47.32881,9.58864 l 0.0128,0 c -37.46753,-11.5202 -59.29959,-54.5379 -48.83925,-91.95039 10.46162,-37.4112 49.27317,-61.91723 86.75222,-51.43769 37.479046,10.47955 59.295746,48.05204 48.839246,85.453 -2.38981,8.54159 -6.60748,15.35002 -11.63285,22.08294 l 82.16206,105.06678 c 15.48187,-8.65295 33.16026,-10.33362 51.40953,-10.33362 0.0896,0 0.18177,0 0.27265,0 0.1024,0 0.21248,0 0.32,0 1.44003,0 2.88261,-3.35878 4.32904,-3.2935 0.21504,0.0128 0.43137,-1.68579 0.64385,-1.67427 1.61027,0.0832 3.2231,-0.65793 4.8372,-0.49793 0.37121,0.0346 0.7437,-0.3584 1.11362,-0.31744 1.09186,0.1152 2.17348,0.0525 3.25638,0.20096 0.87681,0.12032 1.74851,0.13824 2.61892,0.28033 0.56321,0.0909 1.1213,0.14592 1.68195,0.24704 1.38499,0.24961 2.75973,0.49281 4.12551,0.79618 0.0896,0.0218 0.18945,0.032 0.28673,0.0525 14.09688,3.16421 27.11727,9.15599 38.45954,17.3315 l 17.49663,-52.38363 c -33.27418,-17.81151 -56.16481,-52.46939 -56.16481,-92.74784 0,-22.83048 7.35756,-43.72812 19.73538,-61.05578 L 151.36515,193.70487 c -10.42962,6.05322 -21.92806,10.59347 -34.91645,10.59347 -38.915226,0 -70.394816,-31.48983 -70.394816,-70.39611 0,-38.904988 31.47959,-70.396088 70.394816,-70.396088 38.91779,0 70.3961,31.48982 70.3961,70.396088 0,12.91799 -4.46984,24.48683 -10.59346,34.91645 l 125.60985,125.50361 c 17.18813,-12.22677 38.22402,-19.65218 60.97385,-19.65218 16.55581,0 31.94679,4.10631 45.97968,10.92243 l 76.5914,-107.2825 c -10.09041,-12.22549 -16.97821,-27.34895 -16.97821,-44.39501 l 0.0128,0.0128 c 0,-38.904988 31.54742,-70.396088 70.39609,-70.396088 33.63514,0 61.78412,23.60617 68.73336,55.200948 l 104.82613,0.14336 c 0.0128,-0.12544 0.0256,-0.23552 0.0512,-0.36096 6.69579,-39.422118 42.25993,-72.147168 85.14579,-72.147168 21.16901,0 40.54726,7.76846 55.55936,20.41764 M 724.09953,177.58555 c -2.11844,-3.5431 -3.93351,-7.16429 -5.47209,-10.89171 -2.77509,-6.23243 -4.82441,-11.79028 -6.03531,-18.94689 L 607.8876,147.60359 c -6.37195,32.35384 -34.89469,56.71523 -69.05464,56.71523 -8.87183,0 -17.19069,-2.05316 -25.02699,-5.08042 l -76.09731,106.59129 c 18.9712,19.08897 30.72821,45.44079 30.72821,74.44353 0,58.2858 -47.30578,105.59286 -105.59415,105.59286 -5.49001,0 -10.79315,-0.82049 -16.08476,-1.65379 l -23.4244,70.19642 c 6.43851,10.09937 11.21555,21.35973 13.92152,33.40729 l 74.68929,24.94892 c 17.80895,-33.27418 52.46683,-56.16481 92.74528,-56.16481 22.83176,0 43.72556,7.35628 61.05322,19.7341 L 691.24392,450.72435 c -6.05322,-10.42962 -10.59986,-21.92933 -10.59986,-34.91644 0,-37.81185 29.71699,-68.5951 67.0898,-70.31289 L 769.644,214.32731 c -19.09025,-6.56907 -35.07517,-19.77123 -45.54447,-36.74176 z m 158.95955,-44.99406"
       id="path982"
       inkscape:connector-curvature="0"
       style="fill:#6e1d94"
       inkscape:export-xdpi="90"
       inkscape:export-ydpi="90" />
  </g>
</svg>
