<?xml version="1.0" encoding="UTF-8" standalone="no"?>
<!-- Generator: Adobe Illustrator 17.0.0, SVG Export Plug-In . SVG Version: 6.00 Build 0)  -->

<svg
   xmlns:i="&amp;#38;#38;#38;ns_ai;"
   xmlns:dc="http://purl.org/dc/elements/1.1/"
   xmlns:cc="http://creativecommons.org/ns#"
   xmlns:rdf="http://www.w3.org/1999/02/22-rdf-syntax-ns#"
   xmlns:svg="http://www.w3.org/2000/svg"
   xmlns="http://www.w3.org/2000/svg"
   xmlns:sodipodi="http://sodipodi.sourceforge.net/DTD/sodipodi-0.dtd"
   xmlns:inkscape="http://www.inkscape.org/namespaces/inkscape"
   version="1.1"
   id="Capa_1"
   x="0px"
   y="0px"
   width="2410.875"
   height="1024"
   viewBox="0 0 2410.875 1024"
   enable-background="new 0 0 12160 5248"
   xml:space="preserve"
   inkscape:version="0.91 r13725"
   sodipodi:docname="boost-isologo--dark--square-none-background-2.svg"><rect
     style="opacity:1;fill:none;fill-opacity:1;stroke:none;stroke-width:0.5;stroke-miterlimit:4;stroke-dasharray:none;stroke-opacity:1"
     id="rect4171"
     width="2410.875"
     height="1024"
     x="0"
     y="0"
     inkscape:export-xdpi="90"
     inkscape:export-ydpi="90" /><g
     id="g4801"
     transform="matrix(2.7835487,0,0,2.7835487,-19781.126,-9976.413)"
     inkscape:export-xdpi="90"
     inkscape:export-ydpi="90"><g
       id="g568"><path
         d="m 7873.388,3754.252 -32.622,0.134 c -3.484,0.017 -4.763,-2.335 -2.869,-5.264 l 34.916,-53.686 c 3.798,-5.835 2.883,-6.574 -2.034,-1.653 l -76.724,76.714 c -4.92,4.92 -3.27,8.895 3.698,8.868 l 26.312,-0.11 c 6.961,-0.027 9.533,4.68 5.742,10.519 l -34.923,53.686 c -1.891,2.919 -1.437,3.293 1.032,0.842 l 54.835,-54.44 c 2.472,-2.455 6.45,-6.45 8.885,-8.928 l 17.51,-17.754 c 4.886,-4.956 3.196,-8.958 -3.758,-8.928"
         id="path570"
         inkscape:connector-curvature="0"
         style="fill:#fcbe00" /><path
         d="m 7318.692,3623.132 c -7.269,-4.192 -16.217,-4.192 -23.492,0 -26.332,15.208 -52.677,30.414 -79.012,45.622 1.386,0.518 2.783,1.042 4.176,1.57 4.636,1.757 9.263,3.561 13.875,5.408 16.708,-9.653 33.417,-19.3 50.131,-28.95 4.055,-2.338 8.107,-4.68 12.172,-7.025 6.44,-3.718 14.374,-3.718 20.807,0 3.638,2.098 7.272,4.196 10.913,6.3 17.125,9.891 34.258,19.781 51.391,29.669 4.606,-1.841 9.226,-3.644 13.869,-5.401 1.39,-0.528 2.786,-1.052 4.182,-1.57 -26.335,-15.21 -52.673,-30.415 -79.012,-45.623"
         id="path572"
         inkscape:connector-curvature="0" /><path
         d="m 7435.088,3760.845 c -0.288,0.247 -0.658,0.498 -0.945,0.748 -0.137,0.114 -0.314,0.227 -0.444,0.344 -0.528,0.448 -0.622,0.895 -1.143,1.343 -2.699,2.308 -6.296,4.59 -7.75,6.841 l 0,54.213 c 0,7.432 -4.409,14.3 -10.849,18.018 -31.232,18.031 -62.691,36.062 -93.927,54.1 -1.45,6.637 -2.942,12.927 -4.399,19.561 1.096,-0.424 2.087,-0.928 3.113,-1.523 36.216,-20.907 72.475,-41.757 108.69,-62.668 7.269,-4.199 11.888,-11.952 11.888,-20.339 l 0,-74.269 c -1.448,1.223 -2.864,2.435 -4.234,3.631"
         id="path574"
         inkscape:connector-curvature="0" /><path
         d="m 7189.979,3770.122 0,54.207 c 0,7.436 3.965,14.307 10.398,18.024 31.198,18.008 62.39,36.019 93.589,54.03 1.43,6.527 2.856,13.057 4.292,19.588 -1.063,-0.421 -2.075,-0.909 -3.06,-1.477 -36.175,-20.894 -72.364,-41.784 -108.547,-62.674 -7.269,-4.195 -11.745,-11.948 -11.745,-20.339 l 0,-74.262 c 1.346,1.219 2.703,2.428 4.072,3.627 0.281,0.247 0.568,0.498 0.855,0.745 0.137,0.114 0.267,0.237 0.404,0.347 0.515,0.451 1.039,0.892 1.56,1.339 2.707,2.309 5.436,4.59 8.182,6.845"
         id="path576"
         inkscape:connector-curvature="0" /><path
         d="m 7334.722,3700.934 c -0.364,-0.271 -0.725,-0.524 -1.083,-0.788 1.166,-1.744 2.328,-3.487 3.491,-5.231 2.178,-3.264 2.979,-8.558 1.864,-12.316 -1.59,-5.355 -5.622,-18.716 -8.995,-28.339 -1.363,2.352 -2.723,4.71 -4.079,7.068 2.238,6.758 4.836,15.102 7.191,23.015 0.598,2.004 0.077,5.428 -1.079,7.172 -1.153,1.73 -2.308,3.46 -3.464,5.188 -15.355,-9.607 -27.601,-9.594 -43.221,0.053 -1.162,-1.743 -2.325,-3.497 -3.491,-5.241 -1.169,-1.744 -1.677,-5.167 -1.082,-7.172 2.145,-7.232 4.5,-14.827 6.607,-21.244 -1.363,-2.365 -2.726,-4.73 -4.095,-7.098 -3.243,9.43 -6.897,21.562 -8.397,26.599 -1.109,3.758 -0.307,9.052 1.861,12.316 1.166,1.75 2.335,3.497 3.494,5.244 -0.357,0.257 -0.715,0.508 -1.089,0.775 -2.081,1.964 -4.162,3.932 -6.243,5.899 1.233,0.648 2.322,1.654 3.17,2.973 2.416,3.798 8.201,17.293 12.196,27.618 9.64,25.002 8.07,27.868 6.811,30.167 -0.053,0.097 -0.124,0.18 -0.177,0.277 0.01,0.01 0.02,0.023 0.033,0.037 0.187,0.257 0.391,0.508 0.595,0.745 -3.564,0.591 -6.577,2.605 -5.461,6.898 0,0 6.968,12.299 12.329,13.325 4.757,0.912 -1.062,-9.784 0.595,-15.048 2.582,0.802 5.298,0.805 7.88,0 1.657,5.264 -4.162,15.96 0.601,15.048 5.351,-1.026 12.322,-13.325 12.322,-13.325 1.123,-4.292 -1.891,-6.306 -5.465,-6.898 0.201,-0.24 0.404,-0.488 0.598,-0.745 0.013,-0.013 0.02,-0.027 0.033,-0.037 -0.05,-0.097 -0.117,-0.184 -0.177,-0.284 -1.259,-2.298 -2.829,-5.164 6.817,-30.16 3.988,-10.332 9.781,-23.82 12.189,-27.618 0.972,-1.513 2.101,-2.422 3.17,-2.986 -2.08,-1.965 -4.168,-3.926 -6.249,-5.887"
         id="path578"
         inkscape:connector-curvature="0" /><path
         d="m 7351.914,3828.236 c -1.573,1.276 -5.729,-0.07 -7.262,1.129 8.104,5.041 -11.828,36.924 -28.707,36.924 -3,13.628 -6.002,27.25 -9.002,40.869 -2.997,-13.618 -5.996,-27.24 -8.999,-40.869 -16.882,0 -36.813,-31.883 -28.704,-36.924 -1.54,-1.199 -5.691,0.147 -7.255,-1.129 -2.669,-1.62 -11.567,-19.828 -0.771,-22.46 -2.349,-3.033 -18.853,-34.141 -4.997,-35.361 0,-0.478 -0.034,-0.969 -0.034,-1.436 0,-5.471 8.562,-13.344 10.041,-18.375 0.144,1.359 0.348,2.682 0.655,3.938 2.301,9.657 23.452,38.197 23.452,38.197 4.359,6.35 10.255,9.861 16.612,9.861 6.36,0 12.259,-3.51 16.615,-9.861 0,0 21.151,-28.54 23.462,-38.197 0.294,-1.256 0.495,-2.579 0.638,-3.938 1.486,5.031 10.048,12.904 10.048,18.375 0,0.468 -0.027,0.959 -0.034,1.436 13.853,1.219 -2.649,32.328 -5.003,35.361 10.806,2.631 1.911,20.839 -0.755,22.46 m -74.572,-19.788 c 3.106,0.234 11.531,-9.079 11.531,-9.079 0,0 -5.398,3.444 -10.355,2.415 -2.409,-0.494 -8.167,-8.347 -13.485,-16.334 -3.284,2.849 -5.789,7.145 -1.203,12.363 5.946,5.36 12.032,10.518 13.512,10.635 m -8.729,7.983 c -0.945,-0.207 -2.418,-1.366 -4.182,-3.126 -2.245,2.155 -3.991,5.087 -1.78,8.043 2.362,1.811 4.162,3.023 4.88,3.09 3.183,0.304 17.757,-8.595 17.757,-8.595 0,0 -11.577,1.7 -16.675,0.588 m 17.367,24.047 c -1.336,-0.19 -3.634,-1.409 -6.484,-3.277 -1.704,2.716 -2.422,5.946 1.41,8.063 0.611,0.281 1.172,0.528 1.704,0.758 0.05,0.013 0.097,0.033 0.144,0.047 1.46,0.508 2.398,0.845 2.966,1.056 0.13,0.023 0.254,0.04 0.347,0.047 4.513,0.22 15.689,-9.176 15.689,-9.176 0,0 -8.371,3.484 -15.776,2.482 m 41.931,0 c -7.405,1.002 -15.776,-2.482 -15.776,-2.482 0,0 11.17,9.396 15.7,9.176 0.037,0 0.097,-0.02 0.154,-0.02 0.554,-0.21 1.523,-0.555 3.043,-1.083 5.825,-2.017 5.197,-5.742 3.28,-8.818 -2.807,1.841 -5.072,3.043 -6.401,3.227 m 17.373,-24.047 c -5.107,1.112 -16.682,-0.588 -16.682,-0.588 0,0 14.574,8.899 17.761,8.595 0.685,-0.064 2.372,-1.179 4.589,-2.873 2.456,-3.013 0.725,-6.009 -1.557,-8.207 -1.723,1.717 -3.176,2.869 -4.111,3.073 m -8.735,-7.983 c 1.486,-0.117 7.563,-5.274 13.512,-10.635 4.58,-5.218 2.081,-9.513 -1.206,-12.363 -5.318,7.987 -11.073,15.84 -13.481,16.334 -4.964,1.029 -10.352,-2.415 -10.352,-2.415 0,0 8.414,9.312 11.527,9.079"
         id="path580"
         inkscape:connector-curvature="0" /><path
         d="m 7342.988,3711.604 c 0.077,-0.12 0.17,-0.24 0.253,-0.354 0.08,-0.104 0.164,-0.197 0.254,-0.284 0.08,-0.077 0.164,-0.144 0.257,-0.214 0.077,-0.054 0.154,-0.097 0.247,-0.147 0.07,-0.033 0.15,-0.064 0.241,-0.084 0.077,-0.02 0.164,-0.033 0.24,-0.033 0.094,-0.01 0.17,0 0.254,0.013 0.094,0.01 0.177,0.033 0.264,0.06 0.104,0.03 0.193,0.07 0.28,0.117 0.104,0.047 0.194,0.107 0.284,0.167 0.107,0.074 0.21,0.144 0.301,0.227 0.15,0.12 0.287,0.25 0.417,0.387 0.23,0.234 0.431,0.484 0.628,0.741 0.22,0.301 0.424,0.608 0.618,0.926 0.224,0.354 0.424,0.718 0.615,1.092 0.207,0.404 0.411,0.822 0.595,1.236 0.2,0.454 0.384,0.915 0.561,1.376 0.294,0.772 0.568,1.547 0.808,2.338 0.331,1.099 0.618,2.211 0.869,3.337 0.254,1.169 0.468,2.358 0.625,3.548 0.17,1.206 0.281,2.422 0.341,3.637 0.05,1.196 0.05,2.392 -0.013,3.584 -0.074,1.142 -0.197,2.281 -0.411,3.404 -0.053,0.271 -0.11,0.538 -0.177,0.805 -0.067,0.264 -0.13,0.528 -0.204,0.785 -0.161,0.538 -0.358,1.072 -0.578,1.59 -0.23,0.544 -0.491,1.072 -0.771,1.6 -0.288,0.538 -0.605,1.069 -0.938,1.593 -0.348,0.541 -0.718,1.069 -1.096,1.59 -0.391,0.538 -0.802,1.059 -1.226,1.577 -0.431,0.528 -0.889,1.042 -1.339,1.55 -0.468,0.514 -0.945,1.029 -1.433,1.523 -0.985,1.005 -2.011,1.981 -3.06,2.923 -1.032,0.932 -2.095,1.834 -3.173,2.716 -0.932,0.762 -1.891,1.507 -2.85,2.235 -0.972,0.728 -1.951,1.447 -2.942,2.148 -1.513,1.072 -3.053,2.111 -4.62,3.106 -0.451,0.284 -0.898,0.568 -1.349,0.848 -0.17,0.094 -0.334,0.194 -0.498,0.297 -0.01,0 -0.01,0 -0.01,0 -0.01,0.01 -0.01,0.01 -0.01,0.01 -0.093,0.07 -0.19,0.127 -0.281,0.184 -0.086,0.053 -0.164,0.097 -0.25,0.127 -0.057,0.033 -0.13,0.06 -0.193,0.077 -0.054,0.017 -0.107,0.027 -0.15,0.03 -0.04,0 -0.074,0 -0.104,-0.01 -0.02,0 -0.034,-0.01 -0.047,-0.01 -0.027,-0.01 -0.047,-0.02 -0.067,-0.037 -0.023,-0.023 -0.057,-0.047 -0.07,-0.08 -0.034,-0.033 -0.054,-0.077 -0.081,-0.12 -0.017,-0.057 -0.043,-0.117 -0.05,-0.174 -0.047,-0.14 -0.067,-0.287 -0.081,-0.427 -0.01,-0.107 -0.013,-0.217 -0.02,-0.318 0,-0.12 0,-0.244 0.01,-0.361 0.01,-0.291 0.027,-0.571 0.067,-0.858 0.033,-0.337 0.077,-0.671 0.144,-1.005 0.06,-0.384 0.137,-0.769 0.214,-1.153 0.067,-0.321 0.144,-0.648 0.217,-0.972 0.11,-0.458 0.227,-0.915 0.344,-1.373 0.274,-1.026 0.568,-2.044 0.875,-3.06 0.347,-1.146 0.705,-2.281 1.082,-3.414 0.835,-2.542 1.737,-5.064 2.656,-7.569 0.922,-2.479 1.867,-4.947 2.833,-7.399 1.036,-2.625 2.094,-5.234 3.183,-7.84 0.809,-1.934 1.637,-3.858 2.479,-5.775 0.464,-1.052 0.932,-2.108 1.41,-3.156 0.417,-0.922 0.842,-1.834 1.273,-2.746 0.2,-0.424 0.411,-0.849 0.618,-1.276 0.321,-0.655 0.648,-1.302 0.985,-1.944 0.137,-0.254 0.274,-0.498 0.411,-0.745 0.105,-0.191 0.222,-0.378 0.339,-0.569"
         id="path582"
         inkscape:connector-curvature="0" /><path
         d="m 7347.725,3700.98 c 19.273,-8.337 35.641,-15.048 49.523,-20.333 93.896,-35.691 74.302,-6.066 68.744,26.295 -2.595,15.172 -29.729,40 -38.634,47.636 -28.179,24.214 -46.888,35.671 -60.166,40.852 0.745,-2.091 1.336,-4.232 1.767,-6.406 0.327,-1.654 0.561,-3.327 0.691,-5.004 0.15,-1.954 0.17,-3.908 0.047,-5.862 -0.09,-1.47 -0.267,-2.939 -0.508,-4.396 -0.294,-1.717 -0.685,-3.42 -1.183,-5.091 -0.461,-1.57 -1.009,-3.106 -1.63,-4.613 -0.588,-1.4 -1.232,-2.769 -1.938,-4.109 -0.641,-1.216 -1.333,-2.402 -2.061,-3.561 -0.655,-1.019 -1.339,-2.021 -2.051,-2.993 -0.548,-0.741 -1.116,-1.477 -1.7,-2.188 -0.288,-0.341 -0.575,-0.685 -0.869,-1.022 -0.451,-0.521 -0.922,-1.029 -1.396,-1.53 0.314,-0.735 0.658,-1.82 0.979,-3.43 0.685,-3.474 1.212,-9.396 0.775,-19.598 -0.247,-5.879 -1.76,-10.913 -3.801,-15.088 -1.926,-3.931 -4.318,-7.108 -6.589,-9.559"
         id="path584"
         inkscape:connector-curvature="0" /><path
         d="m 7266.167,3700.98 c -19.267,-8.337 -35.642,-15.048 -49.53,-20.333 -93.887,-35.691 -74.302,-6.066 -68.744,26.295 2.603,15.172 29.742,40 38.641,47.636 28.179,24.214 46.888,35.671 60.159,40.852 -0.738,-2.091 -1.33,-4.232 -1.761,-6.406 -0.327,-1.654 -0.561,-3.327 -0.691,-5.004 -0.15,-1.954 -0.17,-3.908 -0.046,-5.862 0.09,-1.47 0.26,-2.939 0.507,-4.396 0.294,-1.717 0.685,-3.42 1.183,-5.091 0.461,-1.57 1.009,-3.106 1.637,-4.613 0.582,-1.4 1.226,-2.769 1.931,-4.109 0.642,-1.216 1.333,-2.402 2.061,-3.561 0.655,-1.019 1.333,-2.021 2.051,-2.993 0.554,-0.741 1.115,-1.477 1.7,-2.188 0.287,-0.341 0.574,-0.685 0.868,-1.022 0.458,-0.521 0.916,-1.029 1.396,-1.53 -0.321,-0.735 -0.658,-1.82 -0.985,-3.43 -0.678,-3.474 -1.213,-9.396 -0.775,-19.598 0.254,-5.879 1.76,-10.913 3.808,-15.088 1.921,-3.931 4.325,-7.108 6.59,-9.559"
         id="path586"
         inkscape:connector-curvature="0" /><path
         d="m 7270.904,3711.604 c -0.077,-0.12 -0.164,-0.24 -0.254,-0.354 -0.087,-0.104 -0.164,-0.197 -0.254,-0.284 -0.08,-0.077 -0.164,-0.144 -0.254,-0.214 -0.073,-0.054 -0.157,-0.097 -0.25,-0.147 -0.077,-0.033 -0.157,-0.064 -0.24,-0.084 -0.077,-0.02 -0.164,-0.033 -0.241,-0.033 -0.093,-0.01 -0.177,0 -0.26,0.013 -0.087,0.01 -0.177,0.033 -0.268,0.06 -0.093,0.03 -0.177,0.07 -0.271,0.117 -0.104,0.047 -0.2,0.107 -0.291,0.167 -0.107,0.074 -0.204,0.144 -0.294,0.227 -0.15,0.12 -0.294,0.25 -0.424,0.387 -0.224,0.234 -0.424,0.484 -0.615,0.741 -0.227,0.301 -0.438,0.608 -0.625,0.926 -0.224,0.354 -0.424,0.718 -0.621,1.092 -0.207,0.404 -0.404,0.822 -0.588,1.236 -0.207,0.454 -0.384,0.915 -0.568,1.376 -0.291,0.772 -0.561,1.547 -0.795,2.338 -0.337,1.099 -0.625,2.211 -0.875,3.337 -0.26,1.169 -0.467,2.358 -0.631,3.548 -0.164,1.206 -0.274,2.422 -0.334,3.637 -0.057,1.196 -0.057,2.392 0.014,3.584 0.067,1.142 0.197,2.281 0.411,3.404 0.054,0.271 0.11,0.538 0.17,0.805 0.067,0.264 0.137,0.528 0.21,0.785 0.16,0.538 0.357,1.072 0.578,1.59 0.23,0.544 0.491,1.072 0.772,1.6 0.287,0.538 0.608,1.069 0.932,1.593 0.354,0.541 0.725,1.069 1.103,1.59 0.391,0.538 0.798,1.059 1.226,1.577 0.431,0.528 0.882,1.042 1.34,1.55 0.468,0.514 0.945,1.029 1.43,1.523 0.989,1.005 2.014,1.981 3.063,2.923 1.032,0.932 2.094,1.834 3.173,2.716 0.938,0.762 1.884,1.507 2.849,2.235 0.972,0.728 1.944,1.447 2.936,2.148 1.52,1.072 3.066,2.111 4.626,3.106 0.451,0.284 0.898,0.568 1.35,0.848 0.17,0.094 0.327,0.194 0.498,0.297 0.01,0 0.01,0 0.01,0 0.01,0.01 0.01,0.01 0.01,0.01 0.094,0.07 0.19,0.127 0.284,0.184 0.083,0.053 0.154,0.097 0.247,0.127 0.057,0.033 0.124,0.06 0.194,0.077 0.053,0.017 0.107,0.027 0.15,0.03 0.04,0 0.073,0 0.104,-0.01 0.02,0 0.033,-0.01 0.047,-0.01 0.026,-0.01 0.046,-0.02 0.066,-0.037 0.03,-0.023 0.043,-0.047 0.077,-0.08 0.026,-0.033 0.047,-0.077 0.066,-0.12 0.023,-0.057 0.05,-0.117 0.064,-0.174 0.04,-0.14 0.06,-0.287 0.073,-0.427 0.01,-0.107 0.02,-0.217 0.02,-0.318 0,-0.12 0,-0.244 0,-0.361 -0.013,-0.291 -0.033,-0.571 -0.074,-0.858 -0.033,-0.337 -0.083,-0.671 -0.137,-1.005 -0.063,-0.384 -0.144,-0.769 -0.221,-1.153 -0.073,-0.321 -0.144,-0.648 -0.224,-0.972 -0.11,-0.458 -0.22,-0.915 -0.337,-1.373 -0.274,-1.026 -0.568,-2.044 -0.875,-3.06 -0.348,-1.146 -0.705,-2.281 -1.083,-3.414 -0.835,-2.542 -1.737,-5.064 -2.655,-7.569 -0.922,-2.479 -1.861,-4.947 -2.833,-7.399 -1.036,-2.625 -2.101,-5.234 -3.19,-7.84 -0.802,-1.934 -1.63,-3.858 -2.472,-5.775 -0.464,-1.052 -0.932,-2.108 -1.409,-3.156 -0.418,-0.922 -0.842,-1.834 -1.28,-2.746 -0.193,-0.424 -0.404,-0.849 -0.611,-1.276 -0.32,-0.655 -0.648,-1.302 -0.985,-1.944 -0.13,-0.254 -0.274,-0.498 -0.404,-0.745 -0.12,-0.191 -0.23,-0.378 -0.347,-0.569"
         id="path588"
         inkscape:connector-curvature="0" /><path
         d="m 7537.959,3734.183 c 6.68,-7.816 14.497,-11.073 24.588,-11.073 21.832,0 37.144,18.893 37.144,44.627 0,25.246 -10.752,45.602 -38.61,45.602 -14.163,0 -21.979,-6.35 -26.215,-14.494 l -0.324,0 0,12.052 -30.454,0 0,-117.265 33.871,0 0,40.551 z m 27.852,34.693 c 0,-9.122 -3.424,-19.548 -14.333,-19.548 -10.262,0 -14.333,10.101 -14.333,18.896 0,9.119 3.257,20.687 14.333,20.687 11.069,0 14.333,-10.752 14.333,-20.035"
         id="path590"
         inkscape:connector-curvature="0" /><path
         d="m 7647.401,3723.108 c 30.133,0 48.695,17.754 48.695,44.302 0,31.269 -21.171,45.926 -48.531,45.926 -27.364,0 -48.542,-14.981 -48.542,-44.139 0,-29.637 19.548,-46.089 48.378,-46.089 m -14.497,44.303 c 0,16.121 6.029,23.125 14.661,23.125 9.119,0 14.657,-7.005 14.657,-23.125 0,-12.543 -5.538,-21.989 -14.333,-21.501 -11.568,-10e-4 -14.985,11.891 -14.985,21.501"
         id="path592"
         inkscape:connector-curvature="0" /><path
         d="m 7744.466,3723.108 c 30.126,0 48.695,17.754 48.695,44.302 0,31.269 -21.171,45.926 -48.531,45.926 -27.364,0 -48.542,-14.981 -48.542,-44.139 0,-29.637 19.548,-46.089 48.378,-46.089 m -14.497,44.303 c 0,16.121 6.022,23.125 14.661,23.125 9.119,0 14.657,-7.005 14.657,-23.125 0,-12.543 -5.538,-21.989 -14.34,-21.501 -11.561,-10e-4 -14.978,11.891 -14.978,21.501"
         id="path594"
         inkscape:connector-curvature="0" /><path
         d="m 7936.312,3810.897 c -44.47,2.442 -49.838,-0.651 -49.838,-30.133 l 0,-35.668 -12.055,0 0,-19.544 12.546,0 0,-26.545 33.383,0 0,26.545 16.284,0 0,19.544 -16.284,0 0,30.941 c 0,7.82 1.142,10.589 10.589,10.589 l 5.375,0 0,24.271 z"
         id="path596"
         inkscape:connector-curvature="0" /></g><g
       id="g598"><path
         d="m 7504.983,3880.092 c 0,-0.917 0.169,-1.737 0.509,-2.465 0.34,-0.726 0.755,-1.316 1.247,-1.767 0.492,-0.451 1.117,-0.838 1.875,-1.159 0.759,-0.321 1.431,-0.557 2.015,-0.708 0.585,-0.15 1.28,-0.265 2.085,-0.343 0.805,-0.079 1.377,-0.126 1.716,-0.138 0.34,-0.014 0.742,-0.02 1.208,-0.02 l 3.271,0.194 c 0,-1.851 -0.501,-3.171 -1.503,-3.962 -1.004,-0.79 -2.487,-1.185 -4.452,-1.185 -2.208,0 -4.195,0.326 -5.963,0.977 l 0,-2.853 c 2.007,-0.704 4.049,-1.058 6.123,-1.058 2.856,0 5.036,0.723 6.536,2.166 1.501,1.443 2.252,3.556 2.252,6.335 l 0,6.125 c 0,1.305 -0.303,2.418 -0.906,3.343 -0.605,0.925 -1.382,1.593 -2.332,2.004 -0.951,0.413 -1.841,0.7 -2.671,0.858 -0.832,0.16 -1.651,0.24 -2.462,0.24 -0.625,0 -1.268,-0.041 -1.927,-0.121 -0.66,-0.079 -1.406,-0.262 -2.239,-0.549 -0.832,-0.287 -1.554,-0.655 -2.167,-1.102 -0.611,-0.447 -1.134,-1.087 -1.567,-1.922 -0.431,-0.832 -0.648,-1.795 -0.648,-2.89 z m 2.954,0 c 0,2.541 1.846,3.812 5.537,3.812 0.012,0 0.033,0 0.059,0 3.611,0 5.418,-1.23 5.418,-3.692 l 0,-3.911 c -0.903,-0.158 -2.111,-0.239 -3.625,-0.239 -4.928,0 -7.389,1.343 -7.389,4.03 z"
         id="path600"
         inkscape:connector-curvature="0" /><path
         d="m 7526.214,3876.122 c 0,-2.071 0.287,-3.833 0.862,-5.288 0.576,-1.454 1.354,-2.54 2.335,-3.256 0.98,-0.717 1.982,-1.224 3.008,-1.523 1.024,-0.298 2.147,-0.448 3.371,-0.448 2.049,0 4.064,0.38 6.047,1.137 l 0,2.774 c -1.849,-0.757 -3.759,-1.137 -5.727,-1.137 -2.42,0 -4.184,0.614 -5.287,1.84 -1.104,1.229 -1.657,3.194 -1.657,5.903 0,2.747 0.552,4.731 1.657,5.951 1.103,1.221 2.867,1.83 5.287,1.83 2.049,0 3.957,-0.392 5.727,-1.177 l 0,2.853 c -1.903,0.732 -3.918,1.098 -6.047,1.098 -0.957,0 -1.852,-0.081 -2.684,-0.24 -0.83,-0.16 -1.682,-0.479 -2.554,-0.959 -0.872,-0.481 -1.615,-1.097 -2.23,-1.849 -0.616,-0.754 -1.122,-1.77 -1.516,-3.05 -0.395,-1.28 -0.592,-2.766 -0.592,-4.459 z"
         id="path602"
         inkscape:connector-curvature="0" /><path
         d="m 7545.209,3876.122 c 0,-2.071 0.287,-3.833 0.863,-5.288 0.575,-1.454 1.354,-2.54 2.334,-3.256 0.98,-0.717 1.982,-1.224 3.008,-1.523 1.024,-0.298 2.147,-0.448 3.371,-0.448 2.049,0 4.064,0.38 6.047,1.137 l 0,2.774 c -1.849,-0.757 -3.759,-1.137 -5.727,-1.137 -2.42,0 -4.184,0.614 -5.287,1.84 -1.104,1.229 -1.657,3.194 -1.657,5.903 0,2.747 0.552,4.731 1.657,5.951 1.103,1.221 2.867,1.83 5.287,1.83 2.049,0 3.957,-0.392 5.727,-1.177 l 0,2.853 c -1.903,0.732 -3.918,1.098 -6.047,1.098 -0.957,0 -1.852,-0.081 -2.684,-0.24 -0.83,-0.16 -1.682,-0.479 -2.554,-0.959 -0.872,-0.481 -1.615,-1.097 -2.23,-1.849 -0.616,-0.754 -1.122,-1.77 -1.516,-3.05 -0.394,-1.28 -0.592,-2.766 -0.592,-4.459 z"
         id="path604"
         inkscape:connector-curvature="0" /><path
         d="m 7564.363,3876.422 c 0,-0.027 0,-0.073 0,-0.14 0,-0.067 0,-0.121 0,-0.16 0,-7.01 2.977,-10.516 8.929,-10.516 1.244,0 2.371,0.197 3.384,0.589 1.011,0.393 1.815,0.855 2.411,1.387 0.596,0.532 1.117,1.227 1.567,2.085 0.45,0.858 0.771,1.585 0.963,2.184 0.19,0.599 0.339,1.323 0.447,2.175 0.105,0.825 0.158,1.343 0.158,1.556 l 0,0.878 -0.079,1.437 -14.826,0 c 0.187,2.049 0.813,3.535 1.879,4.46 1.065,0.925 2.645,1.387 4.736,1.387 2.957,0 5.282,-0.506 6.979,-1.516 l 0,3.033 c -1.962,0.945 -4.342,1.417 -7.139,1.417 -0.039,0 -0.079,0 -0.119,0 -1.193,0 -2.289,-0.143 -3.283,-0.43 -0.995,-0.286 -1.972,-0.781 -2.934,-1.486 -0.962,-0.704 -1.714,-1.765 -2.257,-3.183 -0.544,-1.417 -0.816,-3.136 -0.816,-5.157 z m 2.954,-1.139 11.951,0 c 0,-0.466 -0.056,-0.984 -0.169,-1.556 -0.113,-0.571 -0.34,-1.306 -0.679,-2.204 -0.34,-0.898 -0.954,-1.646 -1.84,-2.245 -0.886,-0.599 -1.981,-0.898 -3.288,-0.898 -2.024,0 -3.493,0.526 -4.407,1.576 -0.912,1.052 -1.434,2.826 -1.568,5.327 z"
         id="path606"
         inkscape:connector-curvature="0" /><path
         d="m 7586.95,3886.358 0,-28.155 2.954,0 0,28.155 -2.954,0 z"
         id="path608"
         inkscape:connector-curvature="0" /><path
         d="m 7595.47,3876.422 c 0,-0.027 0,-0.073 0,-0.14 0,-0.067 0,-0.121 0,-0.16 0,-7.01 2.977,-10.516 8.929,-10.516 1.244,0 2.37,0.197 3.383,0.589 1.011,0.393 1.815,0.855 2.411,1.387 0.596,0.532 1.117,1.227 1.567,2.085 0.45,0.858 0.771,1.585 0.963,2.184 0.191,0.599 0.34,1.323 0.447,2.175 0.105,0.825 0.158,1.343 0.158,1.556 l 0,0.878 -0.079,1.437 -14.826,0 c 0.186,2.049 0.813,3.535 1.878,4.46 1.066,0.925 2.645,1.387 4.736,1.387 2.957,0 5.282,-0.506 6.979,-1.516 l 0,3.033 c -1.962,0.945 -4.342,1.417 -7.139,1.417 -0.039,0 -0.079,0 -0.12,0 -1.193,0 -2.288,-0.143 -3.283,-0.43 -0.994,-0.286 -1.972,-0.781 -2.934,-1.486 -0.961,-0.704 -1.714,-1.765 -2.257,-3.183 -0.541,-1.417 -0.813,-3.136 -0.813,-5.157 z m 2.954,-1.139 11.951,0 c 0,-0.466 -0.056,-0.984 -0.169,-1.556 -0.113,-0.571 -0.34,-1.306 -0.68,-2.204 -0.34,-0.898 -0.954,-1.646 -1.84,-2.245 -0.886,-0.599 -1.981,-0.898 -3.287,-0.898 -2.024,0 -3.494,0.526 -4.407,1.576 -0.912,1.052 -1.435,2.826 -1.568,5.327 z"
         id="path610"
         inkscape:connector-curvature="0" /><path
         d="m 7618.297,3886.358 0,-18.783 c 3.073,-1.286 6.371,-1.928 9.897,-1.928 l 0,2.774 c -2.229,0.053 -4.544,0.406 -6.944,1.06 l 0,16.878 -2.953,0 z"
         id="path612"
         inkscape:connector-curvature="0" /><path
         d="m 7630.888,3880.092 c 0,-0.917 0.169,-1.737 0.509,-2.465 0.34,-0.726 0.755,-1.316 1.248,-1.767 0.492,-0.451 1.117,-0.838 1.875,-1.159 0.758,-0.321 1.43,-0.557 2.015,-0.708 0.584,-0.15 1.28,-0.265 2.085,-0.343 0.805,-0.079 1.377,-0.126 1.715,-0.138 0.34,-0.014 0.742,-0.02 1.208,-0.02 l 3.272,0.194 c 0,-1.851 -0.501,-3.171 -1.503,-3.962 -1.003,-0.79 -2.487,-1.185 -4.452,-1.185 -2.208,0 -4.195,0.326 -5.963,0.977 l 0,-2.853 c 2.008,-0.704 4.049,-1.058 6.123,-1.058 2.856,0 5.036,0.723 6.536,2.166 1.502,1.443 2.252,3.556 2.252,6.335 l 0,6.125 c 0,1.305 -0.302,2.418 -0.906,3.343 -0.605,0.925 -1.382,1.593 -2.332,2.004 -0.951,0.413 -1.841,0.7 -2.671,0.858 -0.832,0.16 -1.65,0.24 -2.462,0.24 -0.625,0 -1.268,-0.041 -1.927,-0.121 -0.659,-0.079 -1.405,-0.262 -2.238,-0.549 -0.832,-0.287 -1.555,-0.655 -2.167,-1.102 -0.611,-0.447 -1.134,-1.087 -1.567,-1.922 -0.433,-0.832 -0.65,-1.795 -0.65,-2.89 z m 2.953,0 c 0,2.541 1.846,3.812 5.537,3.812 0,0 0.033,0 0.059,0 3.611,0 5.418,-1.23 5.418,-3.692 l 0,-3.911 c -0.903,-0.158 -2.111,-0.239 -3.625,-0.239 -4.927,0 -7.389,1.343 -7.389,4.03 z"
         id="path614"
         inkscape:connector-curvature="0" /><path
         d="m 7650.92,3868.659 0,-2.693 3.552,0 0,-5.766 2.952,0 0,5.766 5.268,0 0,2.693 -5.268,0 0,12.431 c 0,1.038 0.217,1.767 0.648,2.186 0.433,0.419 1.194,0.628 2.285,0.628 0.837,0 1.616,-0.16 2.334,-0.479 l 0,2.774 c -0.866,0.32 -1.729,0.479 -2.594,0.479 -0.04,0 -0.073,0 -0.099,0 -0.546,0 -1.078,-0.061 -1.596,-0.18 -0.52,-0.12 -1.104,-0.355 -1.756,-0.709 -0.653,-0.352 -1.177,-0.943 -1.576,-1.775 -0.4,-0.832 -0.599,-1.86 -0.599,-3.084 l 0,-12.271 -3.551,0 z"
         id="path616"
         inkscape:connector-curvature="0" /><path
         d="m 7666.104,3876.422 c 0,-0.027 0,-0.073 0,-0.14 0,-0.067 0,-0.121 0,-0.16 0,-7.01 2.977,-10.516 8.929,-10.516 1.244,0 2.37,0.197 3.383,0.589 1.011,0.393 1.815,0.855 2.411,1.387 0.596,0.532 1.117,1.227 1.567,2.085 0.45,0.858 0.771,1.585 0.963,2.184 0.191,0.599 0.34,1.323 0.447,2.175 0.105,0.825 0.158,1.343 0.158,1.556 l 0,0.878 -0.079,1.437 -14.826,0 c 0.186,2.049 0.813,3.535 1.878,4.46 1.066,0.925 2.645,1.387 4.736,1.387 2.957,0 5.282,-0.506 6.979,-1.516 l 0,3.033 c -1.962,0.945 -4.342,1.417 -7.139,1.417 -0.039,0 -0.079,0 -0.119,0 -1.193,0 -2.288,-0.143 -3.283,-0.43 -0.994,-0.286 -1.972,-0.781 -2.934,-1.486 -0.961,-0.704 -1.714,-1.765 -2.257,-3.183 -0.543,-1.417 -0.814,-3.136 -0.814,-5.157 z m 2.954,-1.139 11.951,0 c 0,-0.466 -0.056,-0.984 -0.169,-1.556 -0.113,-0.571 -0.339,-1.306 -0.679,-2.204 -0.34,-0.898 -0.954,-1.646 -1.84,-2.245 -0.886,-0.599 -1.981,-0.898 -3.287,-0.898 -2.024,0 -3.494,0.526 -4.407,1.576 -0.913,1.052 -1.436,2.826 -1.569,5.327 z"
         id="path618"
         inkscape:connector-curvature="0" /><path
         d="m 7701.261,3865.966 3.154,0 5.805,16.141 5.887,-16.141 3.152,0 -8.34,22.387 c -1.451,3.925 -3.593,5.887 -6.426,5.887 -0.651,0 -1.291,-0.121 -1.916,-0.36 l 0,-2.693 c 0.546,0.239 1.131,0.358 1.756,0.358 0.52,0 1.032,-0.189 1.536,-0.568 0.506,-0.38 0.922,-0.836 1.248,-1.367 0.326,-0.534 0.625,-1.072 0.898,-1.616 0.273,-0.546 0.462,-1.011 0.569,-1.398 l 0.199,-0.558 -7.522,-20.072 z"
         id="path620"
         inkscape:connector-curvature="0" /><path
         d="m 7722.472,3881.438 c -0.571,-1.455 -0.858,-3.222 -0.858,-5.296 0,-2.076 0.287,-3.841 0.858,-5.298 0.573,-1.457 1.351,-2.544 2.335,-3.262 0.985,-0.718 1.985,-1.227 3.003,-1.527 1.018,-0.299 2.141,-0.45 3.372,-0.45 1.23,0 2.361,0.15 3.392,0.45 1.031,0.3 2.038,0.808 3.023,1.527 0.983,0.718 1.762,1.806 2.334,3.262 0.571,1.457 0.858,3.222 0.858,5.298 0,2.074 -0.287,3.841 -0.858,5.296 -0.572,1.457 -1.351,2.544 -2.334,3.262 -0.985,0.718 -1.992,1.227 -3.023,1.527 -1.03,0.299 -2.161,0.45 -3.392,0.45 -1.231,0 -2.354,-0.151 -3.372,-0.45 -1.018,-0.299 -2.019,-0.808 -3.003,-1.527 -0.984,-0.718 -1.763,-1.805 -2.335,-3.262 z m 3.672,-11.262 c -1.052,1.25 -1.576,3.239 -1.576,5.966 0,2.726 0.524,4.714 1.576,5.965 1.05,1.25 2.733,1.875 5.048,1.875 2.314,0 4,-0.617 5.059,-1.855 1.056,-1.236 1.585,-3.231 1.585,-5.985 0,-2.754 -0.529,-4.75 -1.585,-5.987 -1.058,-1.238 -2.744,-1.855 -5.059,-1.855 -2.315,10e-4 -3.998,0.626 -5.048,1.876 z"
         id="path622"
         inkscape:connector-curvature="0" /><path
         d="m 7745.398,3877.777 0,-11.812 2.952,0 0,11.945 c 0,2.071 0.451,3.587 1.354,4.55 0.903,0.962 2.317,1.443 4.243,1.443 1.899,0 3.307,-0.481 4.223,-1.443 0.917,-0.963 1.375,-2.479 1.375,-4.55 l 0,-11.945 2.954,0 0,11.812 c 0,2.834 -0.745,5.026 -2.234,6.574 -1.489,1.55 -3.594,2.325 -6.317,2.325 -2.723,0 -4.828,-0.776 -6.317,-2.325 -1.488,-1.548 -2.233,-3.739 -2.233,-6.574 z"
         id="path624"
         inkscape:connector-curvature="0" /><path
         d="m 7768.245,3886.358 0,-18.783 c 3.073,-1.286 6.371,-1.928 9.897,-1.928 l 0,2.774 c -2.229,0.053 -4.543,0.406 -6.943,1.06 l 0,16.878 -2.954,0 z"
         id="path626"
         inkscape:connector-curvature="0" /><path
         d="m 7796.877,3886.358 0,-28.155 2.954,0 0,28.155 -2.954,0 z"
         id="path628"
         inkscape:connector-curvature="0" /><path
         d="m 7805.396,3876.422 c 0,-0.027 0,-0.073 0,-0.14 0,-0.067 0,-0.121 0,-0.16 0,-7.01 2.977,-10.516 8.929,-10.516 1.244,0 2.371,0.197 3.383,0.589 1.012,0.393 1.815,0.855 2.411,1.387 0.596,0.532 1.117,1.227 1.567,2.085 0.45,0.858 0.771,1.585 0.963,2.184 0.191,0.599 0.34,1.323 0.447,2.175 0.105,0.825 0.158,1.343 0.158,1.556 l 0,0.878 -0.079,1.437 -14.826,0 c 0.186,2.049 0.813,3.535 1.879,4.46 1.065,0.925 2.645,1.387 4.736,1.387 2.957,0 5.282,-0.506 6.979,-1.516 l 0,3.033 c -1.962,0.945 -4.342,1.417 -7.139,1.417 -0.039,0 -0.079,0 -0.12,0 -1.193,0 -2.288,-0.143 -3.282,-0.43 -0.995,-0.286 -1.972,-0.781 -2.934,-1.486 -0.962,-0.704 -1.714,-1.765 -2.257,-3.183 -0.543,-1.417 -0.815,-3.136 -0.815,-5.157 z m 2.954,-1.139 11.951,0 c 0,-0.466 -0.056,-0.984 -0.169,-1.556 -0.113,-0.571 -0.34,-1.306 -0.68,-2.204 -0.339,-0.898 -0.954,-1.646 -1.84,-2.245 -0.886,-0.599 -1.981,-0.898 -3.287,-0.898 -2.024,0 -3.494,0.526 -4.407,1.576 -0.912,1.052 -1.435,2.826 -1.568,5.327 z"
         id="path630"
         inkscape:connector-curvature="0" /><path
         d="m 7827.166,3880.092 c 0,-0.917 0.169,-1.737 0.509,-2.465 0.34,-0.726 0.755,-1.316 1.247,-1.767 0.492,-0.451 1.117,-0.838 1.875,-1.159 0.759,-0.321 1.43,-0.557 2.015,-0.708 0.585,-0.15 1.28,-0.265 2.085,-0.343 0.805,-0.079 1.377,-0.126 1.716,-0.138 0.34,-0.014 0.742,-0.02 1.208,-0.02 l 3.271,0.194 c 0,-1.851 -0.501,-3.171 -1.503,-3.962 -1.004,-0.79 -2.487,-1.185 -4.452,-1.185 -2.208,0 -4.195,0.326 -5.963,0.977 l 0,-2.853 c 2.007,-0.704 4.049,-1.058 6.123,-1.058 2.856,0 5.036,0.723 6.536,2.166 1.501,1.443 2.252,3.556 2.252,6.335 l 0,6.125 c 0,1.305 -0.303,2.418 -0.906,3.343 -0.605,0.925 -1.382,1.593 -2.332,2.004 -0.951,0.413 -1.841,0.7 -2.671,0.858 -0.831,0.16 -1.65,0.24 -2.462,0.24 -0.625,0 -1.267,-0.041 -1.926,-0.121 -0.66,-0.079 -1.406,-0.262 -2.239,-0.549 -0.832,-0.287 -1.554,-0.655 -2.167,-1.102 -0.611,-0.447 -1.134,-1.087 -1.567,-1.922 -0.432,-0.832 -0.649,-1.795 -0.649,-2.89 z m 2.954,0 c 0,2.541 1.846,3.812 5.537,3.812 0,0 0.032,0 0.059,0 3.612,0 5.419,-1.23 5.419,-3.692 l 0,-3.911 c -0.903,-0.158 -2.111,-0.239 -3.625,-0.239 -4.928,0 -7.39,1.343 -7.39,4.03 z"
         id="path632"
         inkscape:connector-curvature="0" /><path
         d="m 7849.494,3886.358 0,-18.783 c 3.073,-1.286 6.371,-1.928 9.897,-1.928 l 0,2.774 c -2.229,0.053 -4.544,0.406 -6.944,1.06 l 0,16.878 -2.953,0 z"
         id="path634"
         inkscape:connector-curvature="0" /><path
         d="m 7863.461,3886.358 0,-18.755 c 2.676,-1.331 5.552,-1.996 8.628,-1.996 2.564,0 4.555,0.653 5.969,1.956 1.415,1.303 2.123,3.14 2.123,5.507 l 0,13.289 -2.952,0 0,-13.289 c 0,-0.572 -0.061,-1.081 -0.18,-1.526 -0.119,-0.445 -0.352,-0.922 -0.696,-1.427 -0.346,-0.506 -0.903,-0.894 -1.674,-1.167 -0.77,-0.273 -1.739,-0.41 -2.907,-0.41 -1.713,0 -3.498,0.273 -5.358,0.818 l 0,17.001 -2.953,0 z"
         id="path636"
         inkscape:connector-curvature="0" /><path
         d="m 7886.466,3862.375 0,-3.273 3.273,0 0,3.273 -3.273,0 z m 0.159,23.983 2.954,0 0,-20.392 -2.954,0 0,20.392 z"
         id="path638"
         inkscape:connector-curvature="0" /><path
         d="m 7896.045,3886.358 0,-18.755 c 2.676,-1.331 5.552,-1.996 8.628,-1.996 2.564,0 4.555,0.653 5.969,1.956 1.415,1.303 2.123,3.14 2.123,5.507 l 0,13.289 -2.952,0 0,-13.289 c 0,-0.572 -0.061,-1.081 -0.18,-1.526 -0.119,-0.445 -0.352,-0.922 -0.696,-1.427 -0.346,-0.506 -0.903,-0.894 -1.674,-1.167 -0.77,-0.273 -1.739,-0.41 -2.907,-0.41 -1.713,0 -3.498,0.273 -5.358,0.818 l 0,17.001 -2.953,0 z"
         id="path640"
         inkscape:connector-curvature="0" /><path
         d="m 7918.173,3876.073 c 0,-2.132 0.287,-3.939 0.859,-5.423 0.572,-1.484 1.342,-2.566 2.307,-3.245 0.965,-0.679 1.883,-1.148 2.757,-1.409 0.872,-0.259 1.787,-0.389 2.746,-0.389 1.741,0 3.202,0.243 4.386,0.729 1.182,0.486 2.012,1.111 2.491,1.875 0.478,0.765 0.801,1.426 0.967,1.986 0.166,0.559 0.248,1.111 0.248,1.655 l 0,15.364 c 0,0.905 -0.129,1.736 -0.388,2.495 -0.259,0.759 -0.688,1.5 -1.286,2.225 -0.597,0.724 -1.511,1.291 -2.74,1.696 -1.229,0.406 -2.715,0.61 -4.454,0.61 -1.902,0 -3.836,-0.247 -5.804,-0.739 l 0,-2.774 c 1.741,0.492 3.57,0.739 5.484,0.739 1.302,0 2.394,-0.116 3.276,-0.349 0.883,-0.233 1.523,-0.565 1.922,-0.994 0.398,-0.433 0.67,-0.859 0.816,-1.284 0.146,-0.425 0.22,-0.936 0.22,-1.533 l 0,-2.031 c -1.528,0.497 -3.121,0.743 -4.781,0.743 -0.904,0 -1.75,-0.076 -2.536,-0.229 -0.785,-0.152 -1.587,-0.456 -2.406,-0.907 -0.819,-0.453 -1.522,-1.04 -2.106,-1.758 -0.586,-0.72 -1.063,-1.678 -1.429,-2.876 -0.366,-1.202 -0.549,-2.594 -0.549,-4.177 z m 2.953,-0.011 c 0,1.53 0.161,2.791 0.487,3.781 0.326,0.991 0.803,1.727 1.433,2.206 0.631,0.478 1.266,0.797 1.903,0.957 0.636,0.16 1.387,0.239 2.25,0.239 1.634,0 3.227,-0.312 4.781,-0.937 l 0,-10.575 c 0,-2.288 -1.713,-3.431 -5.14,-3.431 -0.729,0 -1.38,0.087 -1.951,0.259 -0.571,0.172 -1.168,0.506 -1.792,0.998 -0.625,0.492 -1.109,1.291 -1.455,2.394 -0.343,1.102 -0.516,2.472 -0.516,4.109 z"
         id="path642"
         inkscape:connector-curvature="0" /></g></g><metadata
     id="metadata1342"><rdf:RDF><cc:Work
         rdf:about=""><dc:format>image/svg+xml</dc:format><dc:type
           rdf:resource="http://purl.org/dc/dcmitype/StillImage" /><dc:title></dc:title></cc:Work></rdf:RDF></metadata><defs
     id="defs1340" /><sodipodi:namedview
     pagecolor="#ffffff"
     bordercolor="#666666"
     borderopacity="1"
     objecttolerance="10"
     gridtolerance="10"
     guidetolerance="10"
     inkscape:pageopacity="0"
     inkscape:pageshadow="2"
     inkscape:window-width="1366"
     inkscape:window-height="669"
     id="namedview1338"
     showgrid="false"
     inkscape:zoom="0.16"
     inkscape:cx="1395.4762"
     inkscape:cy="1409.21"
     inkscape:window-x="0"
     inkscape:window-y="32"
     inkscape:window-maximized="1"
     inkscape:current-layer="Capa_1"
     fit-margin-top="0"
     fit-margin-left="0"
     fit-margin-right="0"
     fit-margin-bottom="0" /><i:pgf
     id="adobe_illustrator_pgf" /></svg>