<?xml version="1.0" encoding="UTF-8" standalone="no"?>
<!-- Created with Inkscape (http://www.inkscape.org/) -->

<svg
   xmlns:dc="http://purl.org/dc/elements/1.1/"
   xmlns:cc="http://creativecommons.org/ns#"
   xmlns:rdf="http://www.w3.org/1999/02/22-rdf-syntax-ns#"
   xmlns:svg="http://www.w3.org/2000/svg"
   xmlns="http://www.w3.org/2000/svg"
   xmlns:sodipodi="http://sodipodi.sourceforge.net/DTD/sodipodi-0.dtd"
   xmlns:inkscape="http://www.inkscape.org/namespaces/inkscape"
   id="svg2"
   version="1.1"
   inkscape:version="0.91 r13725"
   xml:space="preserve"
   width="1915.829"
   height="1024"
   viewBox="0 0 1915.829 1024"
   sodipodi:docname="hakspace-logotype--light--square-292927-background.svg"><metadata
     id="metadata8"><rdf:RDF><cc:Work
         rdf:about=""><dc:format>image/svg+xml</dc:format><dc:type
           rdf:resource="http://purl.org/dc/dcmitype/StillImage" /><dc:title /></cc:Work></rdf:RDF></metadata><defs
     id="defs6"><clipPath
       clipPathUnits="userSpaceOnUse"
       id="clipPath16"><path
         d="m 0,2000 3000,0 L 3000,0 0,0 0,2000 Z"
         id="path18"
         inkscape:connector-curvature="0" /></clipPath><clipPath
       clipPathUnits="userSpaceOnUse"
       id="clipPath24"><path
         d="m 295.354,1819.93 696.349,0 0,-353.13 -696.349,0 0,353.13 z"
         id="path26"
         inkscape:connector-curvature="0" /></clipPath><clipPath
       clipPathUnits="userSpaceOnUse"
       id="clipPath72"><path
         d="m 115.87,1820.21 1044.44,0 0,-353.54 -1044.44,0 0,353.54 z"
         id="path74"
         inkscape:connector-curvature="0" /></clipPath><clipPath
       clipPathUnits="userSpaceOnUse"
       id="clipPath236"><path
         d="m 1777.58,1820.21 1027.13,0 0,-347.69 -1027.13,0 0,347.69 z"
         id="path238"
         inkscape:connector-curvature="0" /></clipPath></defs><sodipodi:namedview
     pagecolor="#ffffff"
     bordercolor="#666666"
     borderopacity="1"
     objecttolerance="10"
     gridtolerance="10"
     guidetolerance="10"
     inkscape:pageopacity="0"
     inkscape:pageshadow="2"
     inkscape:window-width="1366"
     inkscape:window-height="669"
     id="namedview4"
     showgrid="false"
     inkscape:zoom="0.061094026"
     inkscape:cx="-1693.5496"
     inkscape:cy="-784.23911"
     inkscape:window-x="0"
     inkscape:window-y="32"
     inkscape:window-maximized="1"
     inkscape:current-layer="g10"
     showguides="true"
     fit-margin-top="0"
     fit-margin-left="0"
     fit-margin-right="0"
     fit-margin-bottom="0" /><g
     id="g10"
     inkscape:groupmode="layer"
     inkscape:label="Logos-Vectores"
     transform="matrix(1.25,0,0,-1.25,-917.0855,1762)"><path
       d="m 2266.3316,590.4 -1532.6632,0 0,819.2 1532.6632,0 0,-819.2 z"
       style="fill:#1d1d1b;fill-opacity:1;fill-rule:nonzero;stroke:none"
       id="path194"
       inkscape:connector-curvature="0"
       inkscape:export-xdpi="90"
       inkscape:export-ydpi="90" /><g
       id="g4265"
       transform="matrix(1.3364078,0,0,1.3364078,-1561.9075,-1102.9368)"
       inkscape:export-xdpi="90"
       inkscape:export-ydpi="90"><path
         d="m 2105.7017,1819.937 46.838,0 0,-59.379 0.48,0 c 8.026,9.454 18.456,16.316 38.303,16.316 22.016,0 42.129,-13.47 42.129,-41.62 l 0,-84.218 -46.836,0 0,64.343 c 0,14.19 -1.657,24.128 -15.38,24.128 -8.051,0 -18.696,-4.028 -18.696,-23.659 l 0,-64.812 -46.838,0 0,168.901 z"
         style="fill:#fffef9;fill-opacity:1;fill-rule:nonzero;stroke:none"
         id="path198"
         inkscape:connector-curvature="0" /><path
         d="m 2502.3784,1819.937 46.835,0 0,-81.622 29.825,35.495 52.986,0 -43.759,-46.368 50.608,-76.406 -56.306,0 -25.063,44.469 -8.291,-8.987 0,-35.482 -46.835,0 0,168.901 z"
         style="fill:#fffef9;fill-opacity:1;fill-rule:nonzero;stroke:none"
         id="path202"
         inkscape:connector-curvature="0" /><path
         d="m 2031.9048,1599.4531 c -0.24,4.024 -2.354,7.088 -5.429,9.229 -2.836,2.352 -6.634,3.544 -10.433,3.544 -6.606,0 -14.175,-1.419 -14.175,-9.457 0,-3.557 2.834,-5.202 5.429,-6.393 7.81,-3.316 25.545,-4.253 41.167,-9.466 15.619,-4.965 29.341,-14.179 29.341,-34.293 0,-34.063 -32.659,-43.292 -62.458,-43.292 -28.861,0 -60.558,11.595 -61.279,43.292 l 44.724,0 c 0.24,-4.266 2.112,-7.81 5.669,-10.887 2.381,-2.125 6.877,-3.544 12.546,-3.544 6.153,0 15.835,2.355 15.835,9.457 0,7.101 -4.013,9.226 -25.759,13.011 -35.736,6.153 -50.154,17.507 -50.154,38.558 0,31.001 33.33,39.038 57.938,39.038 26.508,0 58.444,-7.341 59.621,-38.797 l -42.583,0 z"
         style="fill:#fffef9;fill-opacity:1;fill-rule:nonzero;stroke:none"
         id="path206"
         inkscape:connector-curvature="0" /><path
         d="m 2147.3228,1543.3896 c 16.799,0 20.597,15.848 20.597,30.278 0,14.671 -3.798,30.521 -20.597,30.521 -16.798,0 -20.57,-15.85 -20.57,-30.521 0,-14.43 3.772,-30.278 20.57,-30.278 m -65.746,91.785 45.176,0 0,-13.48 0.483,0 c 5.91,7.798 12.999,16.555 35.949,16.555 34.772,0 51.571,-34.302 51.571,-65.05 0,-28.874 -11.127,-63.875 -52.293,-63.875 -13.963,0 -26.481,6.153 -33.597,16.558 l -0.453,0 0,-53.229 -46.836,0 0,162.521 z"
         style="fill:#fffef9;fill-opacity:1;fill-rule:nonzero;stroke:none"
         id="path210"
         inkscape:connector-curvature="0" /><path
         d="m 2559.5103,1587.6299 c 0,11.341 -8.506,20.583 -20.568,20.583 -13.962,0 -22.013,-7.341 -24.127,-20.583 l 44.695,0 z m -44.936,-24.368 c 1.177,-13.962 9.227,-23.899 23.885,-23.899 7.572,0 15.863,2.849 19.634,8.761 l 43.76,0 c -9.468,-26.494 -35.227,-38.799 -63.151,-38.799 -39.266,0 -68.824,23.177 -68.824,64.102 0,35.723 25.998,64.823 64.811,64.823 48.708,0 69.784,-27.216 69.784,-74.988 l -89.899,0 z"
         style="fill:#fffef9;fill-opacity:1;fill-rule:nonzero;stroke:none"
         id="path214"
         inkscape:connector-curvature="0" /><path
         d="m 2320.2231,1694.7959 c -0.724,-12.771 -8.988,-19.164 -19.634,-19.164 -8.505,0 -14.658,5.683 -14.658,11.355 0,8.277 5.431,10.886 15.835,13.254 6.393,1.416 12.785,3.076 18.457,5.909 l 0,-11.354 z m 1.177,-32.178 c -0.24,-3.303 0.48,-8.278 1.657,-11.582 l 8.187,0 20.541,116.449 c -8.451,5.778 -22.253,9.389 -44.802,9.389 -14.445,0 -30.038,-1.405 -41.889,-7.089 -12.062,-5.684 -20.567,-15.848 -21.264,-33.114 l 43.52,0 c 0.24,5.201 3.074,12.531 17.492,12.531 7.569,0 15.381,-3.077 15.381,-11.355 0,-7.797 -6.393,-9.695 -12.786,-10.886 -23.887,-4.494 -69.304,-3.063 -69.304,-41.86 0,-25.786 19.633,-37.14 43.305,-37.14 15.139,0 29.556,3.304 39.507,14.657 l 0.455,0 z"
         style="fill:#fffef9;fill-opacity:1;fill-rule:nonzero;stroke:none"
         id="path218"
         inkscape:connector-curvature="0" /><path
         d="m 2453.936,1699.3447 c -1.177,-9.403 -8.157,-17.32 -18.082,-17.32 -17.974,0 -20.567,15.367 -20.567,30.278 0,14.899 2.593,30.506 20.567,30.506 4.977,0 8.989,-1.418 11.822,-4.01 2.783,-2.355 4.334,-5.9 4.977,-10.206 l 42.929,8.746 c -7.007,26.842 -31.936,39.535 -60.692,39.535 -11.473,0 -22.253,-2.502 -31.668,-7.115 l -17.894,-101.578 c 12.143,-12.81 29.771,-20.22 49.562,-20.22 16.586,0 31.484,4.736 42.584,13.481 9.122,7.208 15.89,17.039 19.314,29.171 l -42.852,8.732 z"
         style="fill:#fffef9;fill-opacity:1;fill-rule:nonzero;stroke:none"
         id="path222"
         inkscape:connector-curvature="0" /><path
         d="m 2296.3892,1556.1611 c -0.721,-12.771 -9.014,-19.165 -19.632,-19.165 -8.533,0 -14.685,5.683 -14.685,11.355 0,8.29 5.457,10.886 15.862,13.254 6.365,1.417 12.758,3.076 18.455,5.91 l 0,-11.354 z m 1.18,-32.178 c -0.243,-3.304 0.453,-8.278 1.657,-11.582 l 8.184,0 20.516,116.462 c -8.451,5.778 -22.227,9.387 -44.804,9.387 -14.418,0 -30.037,-1.429 -41.859,-7.1 -12.064,-5.685 -20.596,-15.849 -21.292,-33.115 l 43.52,0 c 0.24,5.202 3.076,12.53 17.519,12.53 7.569,0 15.379,-3.075 15.379,-11.341 0,-7.809 -6.393,-9.709 -12.785,-10.885 -23.885,-4.507 -69.304,-3.077 -69.304,-41.875 0,-25.785 19.634,-37.139 43.278,-37.139 15.139,0 29.584,3.304 39.507,14.658 l 0.484,0 z"
         style="fill:#fffef9;fill-opacity:1;fill-rule:nonzero;stroke:none"
         id="path226"
         inkscape:connector-curvature="0" /><path
         d="m 2429.4614,1560.7222 c -1.177,-9.417 -8.156,-17.333 -18.081,-17.333 -17.975,0 -20.596,15.367 -20.596,30.278 0,14.899 2.621,30.521 20.596,30.521 4.976,0 8.986,-1.419 11.822,-4.027 2.783,-2.34 4.333,-5.897 4.976,-10.204 l 42.93,8.746 c -7.008,26.843 -31.937,39.547 -60.692,39.547 -11.473,0 -22.253,-2.513 -31.67,-7.126 l -17.892,-101.578 c 12.143,-12.811 29.768,-20.221 49.562,-20.221 16.558,0 31.484,4.734 42.583,13.482 9.122,7.207 15.862,17.038 19.314,29.182 l -42.852,8.733 z"
         style="fill:#fffef9;fill-opacity:1;fill-rule:nonzero;stroke:none"
         id="path230"
         inkscape:connector-curvature="0" /><path
         inkscape:connector-curvature="0"
         id="path246"
         style="fill:#fcbe00;fill-opacity:1;fill-rule:nonzero;stroke:none"
         d="m 2701.437,1820.2051 -61.601,0 103.248,-178.851 -97.498,-168.835 61.627,0 97.499,168.835 -103.275,178.851 z" /><path
         inkscape:connector-curvature="0"
         id="path250"
         style="fill:#fcbe00;fill-opacity:1;fill-rule:nonzero;stroke:none"
         d="m 1936.6831,1472.5195 -97.472,168.835 103.247,178.851 -61.626,0 -103.249,-178.851 97.472,-168.835 61.628,0 z" /><path
         d="m 1844.8296,1357.355 c 1.47,1.953 2.192,4.588 2.192,7.919 l -0.08,0.882 0,0.871 c -1.578,-0.711 -3.959,-1.433 -7.141,-2.142 -2.943,-0.655 -5.055,-1.365 -6.366,-2.113 -1.312,-0.749 -1.953,-2.101 -1.953,-4.051 0,-1.311 0.562,-2.341 1.711,-3.131 1.151,-0.775 2.73,-1.177 4.736,-1.177 3.13,0 5.429,0.977 6.901,2.942 m 4.145,-13.012 -0.961,5.483 c -2.756,-2.54 -5.62,-4.333 -8.667,-5.375 -3.024,-1.043 -6.554,-1.568 -10.594,-1.568 -5.214,0 -9.575,1.313 -13.052,3.959 -3.504,2.637 -5.244,6.461 -5.244,11.489 0,3.318 0.724,6.072 2.168,8.253 1.417,2.193 3.289,3.853 5.616,4.99 2.301,1.135 4.708,1.951 7.17,2.445 2.486,0.483 5.564,0.965 9.201,1.419 4.36,0.521 7.516,1.083 9.442,1.711 1.924,0.617 2.888,1.779 2.888,3.464 0,1.631 -0.722,2.741 -2.112,3.331 -1.391,0.587 -2.916,0.884 -4.549,0.884 -1.818,0 -3.423,-0.35 -4.786,-1.032 -1.365,-0.681 -2.141,-2.005 -2.355,-3.959 l -19.553,0 c 0,5.605 2.221,9.871 6.661,12.799 4.414,2.943 11.528,4.4 21.318,4.4 5.858,0 10.538,-0.494 14.016,-1.51 3.477,-1.017 6.072,-2.449 7.729,-4.306 1.661,-1.846 2.73,-3.971 3.21,-6.352 0.509,-2.381 0.749,-5.392 0.749,-9.043 l 0,-23.952 c 0,-1.631 0.134,-2.876 0.428,-3.76 0.296,-0.88 1.07,-1.803 2.3,-2.78 l 0,-0.99 -21.023,0 z"
         style="fill:#fffef9;fill-opacity:1;fill-rule:nonzero;stroke:none"
         id="path254"
         inkscape:connector-curvature="0" /><path
         d="m 1944.439,1360.9673 c 1.47,2.287 2.193,5.121 2.193,8.505 0,3.329 -0.668,6.126 -2.006,8.413 -1.31,2.274 -3.556,3.424 -6.686,3.424 -1.632,0 -2.998,-0.349 -4.093,-1.031 -1.124,-0.68 -2.007,-1.618 -2.702,-2.792 -0.669,-1.165 -1.149,-2.479 -1.417,-3.908 -0.268,-1.43 -0.402,-2.902 -0.402,-4.399 0,-1.497 0.134,-2.916 0.348,-4.253 0.241,-1.337 0.642,-2.555 1.231,-3.666 0.589,-1.11 1.416,-2.006 2.486,-2.689 1.07,-0.681 2.408,-1.029 3.959,-1.029 3.264,0 5.617,1.151 7.089,3.425 m 3.585,-16.624 0,6.847 c -2.356,-3.063 -4.736,-5.215 -7.142,-6.447 -2.409,-1.243 -5.297,-1.86 -8.614,-1.86 -7.435,0 -13.161,2.449 -17.198,7.332 -4.04,4.893 -6.071,11.139 -6.071,18.776 0,4.16 0.533,7.97 1.63,11.434 1.071,3.45 2.594,6.434 4.575,8.948 2.006,2.501 4.334,4.414 7.007,5.71 2.674,1.31 5.511,1.952 8.506,1.952 3.317,0 6.153,-0.48 8.534,-1.457 2.38,-0.975 4.626,-2.714 6.713,-5.188 l 0,24.341 20.329,0 0,-70.388 -18.269,0 z"
         style="fill:#fffef9;fill-opacity:1;fill-rule:nonzero;stroke:none"
         id="path258"
         inkscape:connector-curvature="0" /><path
         d="m 2012.8354,1375.731 c 0,2.341 -0.911,4.414 -2.702,6.207 -1.794,1.79 -3.879,2.687 -6.316,2.687 -2.994,0 -5.322,-0.775 -6.979,-2.34 -1.657,-1.564 -2.486,-3.757 -2.486,-6.554 l 18.483,0 z m -18.483,-10.364 c 0,-2.93 0.988,-5.35 2.966,-7.236 2.007,-1.885 4.362,-2.835 7.089,-2.835 1.713,0 3.21,0.373 4.546,1.123 1.339,0.748 2.384,1.873 3.077,3.372 l 19.472,0 c -0.855,-3.064 -2.219,-5.685 -4.119,-7.865 -1.871,-2.181 -4.146,-3.931 -6.739,-5.229 -2.595,-1.311 -5.404,-2.26 -8.346,-2.889 -2.97,-0.615 -6.019,-0.925 -9.148,-0.925 -4.119,0 -7.944,0.59 -11.501,1.753 -3.532,1.177 -6.633,2.903 -9.282,5.19 -2.621,2.273 -4.68,5.083 -6.153,8.399 -1.47,3.33 -2.192,7.076 -2.192,11.247 0,4.107 0.722,7.863 2.192,11.289 1.473,3.424 3.532,6.353 6.153,8.799 2.649,2.448 5.725,4.307 9.254,5.579 3.504,1.271 7.329,1.897 11.422,1.897 4.628,0 8.8,-0.748 12.519,-2.246 3.718,-1.497 6.901,-3.651 9.522,-6.448 2.648,-2.807 4.655,-6.164 6.019,-10.07 1.363,-3.918 2.059,-8.212 2.059,-12.905 l -38.81,0 z"
         style="fill:#fffef9;fill-opacity:1;fill-rule:nonzero;stroke:none"
         id="path262"
         inkscape:connector-curvature="0" /><path
         d="m 2037.1753,1395.5786 20.327,0 8.988,-32.365 8.908,32.365 19.551,0 -17.304,-51.235 -22.683,0 -17.787,51.235 z"
         style="fill:#fffef9;fill-opacity:1;fill-rule:nonzero;stroke:none"
         id="path266"
         inkscape:connector-curvature="0" /><path
         d="m 2137.7485,1375.731 c 0,2.341 -0.883,4.414 -2.675,6.207 -1.794,1.79 -3.906,2.687 -6.314,2.687 -2.995,0 -5.324,-0.775 -6.981,-2.34 -1.659,-1.564 -2.486,-3.757 -2.486,-6.554 l 18.456,0 z m -18.456,-10.364 c 0,-2.93 0.988,-5.35 2.968,-7.236 1.98,-1.885 4.359,-2.835 7.089,-2.835 1.684,0 3.21,0.373 4.545,1.123 1.338,0.748 2.356,1.873 3.077,3.372 l 19.472,0 c -0.854,-3.064 -2.219,-5.685 -4.119,-7.865 -1.899,-2.181 -4.146,-3.931 -6.74,-5.229 -2.622,-1.311 -5.403,-2.26 -8.373,-2.889 -2.968,-0.615 -5.99,-0.925 -9.12,-0.925 -4.118,0 -7.944,0.59 -11.501,1.753 -3.56,1.177 -6.634,2.903 -9.282,5.19 -2.649,2.273 -4.68,5.083 -6.154,8.399 -1.469,3.33 -2.219,7.076 -2.219,11.247 0,4.107 0.75,7.863 2.219,11.289 1.474,3.424 3.505,6.353 6.154,8.799 2.648,2.448 5.722,4.307 9.227,5.579 3.531,1.271 7.33,1.897 11.449,1.897 4.627,0 8.8,-0.748 12.518,-2.246 3.717,-1.497 6.874,-3.651 9.522,-6.448 2.647,-2.807 4.653,-6.164 6.019,-10.07 1.364,-3.918 2.059,-8.212 2.059,-12.905 l -38.81,0 z"
         style="fill:#fffef9;fill-opacity:1;fill-rule:nonzero;stroke:none"
         id="path270"
         inkscape:connector-curvature="0" /><path
         inkscape:connector-curvature="0"
         id="path272"
         style="fill:#fffef9;fill-opacity:1;fill-rule:nonzero;stroke:none"
         d="m 2167.199,1414.731 20.327,0 0,-70.388 -20.327,0 0,70.388 z" /><path
         d="m 2222.1646,1382.1782 c -1.203,-0.777 -2.14,-1.792 -2.782,-3.023 -0.643,-1.243 -1.151,-2.608 -1.471,-4.107 -0.321,-1.497 -0.482,-3.035 -0.482,-4.599 0,-4.695 0.776,-8.171 2.355,-10.458 1.551,-2.287 3.717,-3.423 6.445,-3.423 2.809,0 4.975,1.136 6.5,3.423 1.526,2.287 2.3,5.763 2.3,10.458 0,3.785 -0.774,6.875 -2.3,9.294 -1.525,2.407 -3.637,3.611 -6.311,3.611 -1.633,0 -3.052,-0.387 -4.254,-1.176 m -17.145,7.582 c 5.268,4.855 12.303,7.275 21.102,7.275 9.015,0 16.131,-2.42 21.373,-7.275 5.242,-4.855 7.865,-11.285 7.865,-19.311 0,-4.562 -0.723,-8.587 -2.193,-12.078 -1.473,-3.475 -3.504,-6.364 -6.127,-8.639 -2.594,-2.287 -5.67,-3.996 -9.228,-5.136 -3.556,-1.137 -7.409,-1.713 -11.582,-1.713 -8.532,0 -15.541,2.302 -20.969,6.889 -5.431,4.603 -8.159,11.127 -8.159,19.606 0,8.734 2.648,15.527 7.918,20.382"
         style="fill:#fffef9;fill-opacity:1;fill-rule:nonzero;stroke:none"
         id="path276"
         inkscape:connector-curvature="0" /><path
         d="m 2297.8335,1361.6099 c 1.606,2.112 2.408,4.934 2.408,8.45 0,3.974 -0.802,6.955 -2.408,8.948 -1.604,1.98 -3.771,2.984 -6.499,2.984 -2.408,0 -4.387,-1.071 -5.912,-3.184 -1.524,-2.112 -2.3,-4.907 -2.3,-8.358 0,-3.652 0.724,-6.568 2.193,-8.746 1.473,-2.18 3.505,-3.28 6.126,-3.28 2.676,0 4.788,1.059 6.392,3.186 m -16.368,33.969 0,-7.623 0.187,0 c 1.311,2.927 3.504,5.175 6.553,6.739 3.076,1.567 6.231,2.341 9.495,2.341 3.718,0 7.007,-0.695 9.925,-2.1 2.889,-1.404 5.295,-3.356 7.222,-5.857 1.925,-2.513 3.342,-5.362 4.306,-8.56 0.936,-3.195 1.416,-6.578 1.416,-10.163 0,-4.829 -0.695,-9.015 -2.058,-12.558 -1.365,-3.557 -3.183,-6.42 -5.484,-8.615 -2.273,-2.178 -4.841,-3.769 -7.649,-4.786 -2.837,-1.005 -5.778,-1.514 -8.774,-1.514 -5.27,0 -9.628,2.182 -13.08,6.556 l 0,-22.496 -20.355,0 0,68.636 18.296,0 z"
         style="fill:#fffef9;fill-opacity:1;fill-rule:nonzero;stroke:none"
         id="path280"
         inkscape:connector-curvature="0" /><path
         d="m 2365.936,1375.731 c 0,2.341 -0.911,4.414 -2.701,6.207 -1.792,1.79 -3.906,2.687 -6.313,2.687 -2.998,0 -5.323,-0.775 -6.982,-2.34 -1.657,-1.564 -2.487,-3.757 -2.487,-6.554 l 18.483,0 z m -18.483,-10.364 c 0,-2.93 0.989,-5.35 2.969,-7.236 2.005,-1.885 4.36,-2.835 7.087,-2.835 1.712,0 3.21,0.373 4.549,1.123 1.336,0.748 2.38,1.873 3.074,3.372 l 19.474,0 c -0.858,-3.064 -2.221,-5.685 -4.121,-7.865 -1.897,-2.181 -4.146,-3.931 -6.739,-5.229 -2.595,-1.311 -5.405,-2.26 -8.346,-2.889 -2.968,-0.615 -6.019,-0.925 -9.149,-0.925 -4.118,0 -7.943,0.59 -11.5,1.753 -3.532,1.177 -6.633,2.903 -9.282,5.19 -2.649,2.273 -4.68,5.083 -6.15,8.399 -1.473,3.33 -2.196,7.076 -2.196,11.247 0,4.107 0.723,7.863 2.196,11.289 1.47,3.424 3.501,6.353 6.15,8.799 2.649,2.448 5.725,4.307 9.254,5.579 3.504,1.271 7.329,1.897 11.422,1.897 4.628,0 8.799,-0.748 12.519,-2.246 3.718,-1.497 6.901,-3.651 9.521,-6.448 2.649,-2.807 4.655,-6.164 6.02,-10.07 1.363,-3.918 2.058,-8.212 2.058,-12.905 l -38.81,0 z"
         style="fill:#fffef9;fill-opacity:1;fill-rule:nonzero;stroke:none"
         id="path284"
         inkscape:connector-curvature="0" /><path
         d="m 2394.3687,1395.5786 18.481,0 0,-10.364 0.188,0 c 2.81,7.877 8.053,11.821 15.756,11.821 0.375,0 0.962,-0.064 1.738,-0.186 l 0.883,-0.107 0,-20.328 c -0.24,0.066 -0.724,0.133 -1.364,0.2 -1.232,0.253 -2.194,0.387 -2.836,0.387 -4.306,0 -7.463,-1.136 -9.469,-3.423 -2.032,-2.287 -3.048,-6.124 -3.048,-11.528 l 0,-17.707 -20.329,0 0,51.235 z"
         style="fill:#fffef9;fill-opacity:1;fill-rule:nonzero;stroke:none"
         id="path288"
         inkscape:connector-curvature="0" /><path
         d="m 2455.2739,1360.2847 c 0,-2.019 0.721,-3.585 2.141,-4.694 1.39,-1.044 3.048,-1.565 5.001,-1.565 1.819,0 3.344,0.363 4.599,1.082 1.233,0.711 1.847,1.888 1.847,3.519 0,1.43 -0.856,2.488 -2.54,3.171 -1.685,0.679 -4.387,1.416 -8.106,2.206 -3.077,0.588 -5.698,1.164 -7.89,1.751 -2.166,0.59 -4.253,1.459 -6.206,2.594 -1.953,1.137 -3.532,2.676 -4.787,4.6 -1.232,1.913 -1.846,4.309 -1.846,7.184 0,3.128 0.723,5.791 2.14,8.01 1.444,2.22 3.344,3.973 5.722,5.284 2.384,1.297 4.977,2.233 7.812,2.78 2.834,0.562 5.697,0.829 8.558,0.829 3.131,0 6.101,-0.227 8.909,-0.68 2.808,-0.456 5.404,-1.272 7.809,-2.449 2.408,-1.163 4.415,-2.808 5.966,-4.933 1.576,-2.115 2.487,-4.802 2.755,-8.067 l -18.484,0 c -0.214,1.565 -0.854,2.811 -1.953,3.718 -1.042,0.842 -2.405,1.272 -4.118,1.272 -1.819,0 -3.235,-0.296 -4.253,-0.883 -1.016,-0.589 -1.497,-1.498 -1.497,-2.729 0,-1.243 0.802,-2.166 2.434,-2.795 1.632,-0.615 4.305,-1.311 8.024,-2.098 3.317,-0.723 6.071,-1.407 8.291,-2.047 2.221,-0.656 4.387,-1.565 6.501,-2.742 2.112,-1.176 3.825,-2.742 5.136,-4.695 1.31,-1.952 1.951,-4.331 1.951,-7.143 0,-5.535 -2.3,-9.894 -6.928,-13.092 -4.627,-3.195 -11.501,-4.789 -20.623,-4.789 -3.208,0 -6.231,0.282 -9.092,0.831 -2.89,0.548 -5.538,1.497 -7.972,2.835 -2.462,1.339 -4.44,3.143 -5.965,5.43 -1.523,2.274 -2.435,5.041 -2.702,8.305 l 19.366,0 z"
         style="fill:#fffef9;fill-opacity:1;fill-rule:nonzero;stroke:none"
         id="path292"
         inkscape:connector-curvature="0" /><path
         d="m 2496.519,1387.3667 c 2.809,0.521 4.788,1.526 5.965,3.023 1.257,1.632 1.872,3.785 1.872,6.459 l -7.837,0 0,17.882 17.896,0 0,-15.432 c 0,-3.011 -0.483,-5.727 -1.419,-8.172 -0.936,-2.449 -2.275,-4.55 -3.959,-6.299 -1.685,-1.767 -3.611,-3.105 -5.751,-4.013 -2.165,-0.911 -4.412,-1.364 -6.767,-1.364 l 0,7.916 z"
         style="fill:#fffef9;fill-opacity:1;fill-rule:nonzero;stroke:none"
         id="path296"
         inkscape:connector-curvature="0" /><path
         d="m 2556.8364,1414.731 20.33,0 0,-25.611 c 2.165,2.675 4.465,4.668 6.899,5.964 2.461,1.309 5.323,1.952 8.667,1.952 6.633,0 11.61,-1.871 14.899,-5.617 3.289,-3.743 4.948,-9.201 4.948,-16.371 l 0,-30.705 -20.354,0 0,27.083 c 0,2.928 -0.51,5.27 -1.552,6.995 -1.045,1.724 -2.917,2.593 -5.564,2.593 -2.944,0 -5.003,-0.882 -6.18,-2.648 -1.176,-1.751 -1.763,-4.401 -1.763,-7.916 l 0,-26.107 -20.33,0 0,70.388 z"
         style="fill:#fcbe00;fill-opacity:1;fill-rule:nonzero;stroke:none"
         id="path300"
         inkscape:connector-curvature="0" /><path
         inkscape:connector-curvature="0"
         id="path302"
         style="fill:#fcbe00;fill-opacity:1;fill-rule:nonzero;stroke:none"
         d="m 2623.413,1395.579 20.328,0 0,-51.235 -20.328,0 0,51.235 z m 0,21.01 20.328,0 0,-14.469 -20.328,0 0,14.469 z" /><path
         d="m 2650.8823,1395.5786 20.329,0 9.014,-32.365 8.881,32.365 19.553,0 -17.306,-51.235 -22.683,0 -17.788,51.235 z"
         style="fill:#fcbe00;fill-opacity:1;fill-rule:nonzero;stroke:none"
         id="path306"
         inkscape:connector-curvature="0" /><path
         d="m 2751.4829,1375.731 c 0,2.341 -0.91,4.414 -2.701,6.207 -1.794,1.79 -3.879,2.687 -6.287,2.687 -2.995,0 -5.324,-0.775 -7.008,-2.34 -1.66,-1.564 -2.486,-3.757 -2.486,-6.554 l 18.482,0 z m -18.482,-10.364 c 0,-2.93 0.988,-5.35 2.994,-7.236 1.981,-1.885 4.334,-2.835 7.09,-2.835 1.684,0 3.21,0.373 4.545,1.123 1.311,0.748 2.353,1.873 3.077,3.372 l 19.444,0 c -0.856,-3.064 -2.219,-5.685 -4.091,-7.865 -1.899,-2.181 -4.146,-3.931 -6.767,-5.229 -2.595,-1.311 -5.376,-2.26 -8.346,-2.889 -2.968,-0.615 -6.019,-0.925 -9.148,-0.925 -4.091,0 -7.944,0.59 -11.473,1.753 -3.56,1.177 -6.661,2.903 -9.31,5.19 -2.621,2.273 -4.68,5.083 -6.153,8.399 -1.47,3.33 -2.191,7.076 -2.191,11.247 0,4.107 0.721,7.863 2.191,11.289 1.473,3.424 3.532,6.353 6.153,8.799 2.649,2.448 5.725,4.307 9.254,5.579 3.506,1.271 7.331,1.897 11.422,1.897 4.628,0 8.802,-0.748 12.519,-2.246 3.718,-1.497 6.901,-3.651 9.549,-6.448 2.621,-2.807 4.628,-6.164 5.992,-10.07 1.391,-3.918 2.059,-8.212 2.059,-12.905 l -38.81,0 z"
         style="fill:#fcbe00;fill-opacity:1;fill-rule:nonzero;stroke:none"
         id="path310"
         inkscape:connector-curvature="0" /></g></g></svg>