<?xml version="1.0" encoding="UTF-8" standalone="no"?>
<!-- Created with Inkscape (http://www.inkscape.org/) -->

<svg
   xmlns:dc="http://purl.org/dc/elements/1.1/"
   xmlns:cc="http://creativecommons.org/ns#"
   xmlns:rdf="http://www.w3.org/1999/02/22-rdf-syntax-ns#"
   xmlns:svg="http://www.w3.org/2000/svg"
   xmlns="http://www.w3.org/2000/svg"
   xmlns:sodipodi="http://sodipodi.sourceforge.net/DTD/sodipodi-0.dtd"
   xmlns:inkscape="http://www.inkscape.org/namespaces/inkscape"
   id="svg2"
   version="1.1"
   inkscape:version="0.91 r13725"
   xml:space="preserve"
   width="1024"
   height="1024"
   viewBox="0 0 1024 1024"
   sodipodi:docname="hakspace-isotipo--light--circle-black-background.svg"><metadata
     id="metadata8"><rdf:RDF><cc:Work
         rdf:about=""><dc:format>image/svg+xml</dc:format><dc:type
           rdf:resource="http://purl.org/dc/dcmitype/StillImage" /><dc:title></dc:title></cc:Work></rdf:RDF></metadata><defs
     id="defs6"><clipPath
       clipPathUnits="userSpaceOnUse"
       id="clipPath16"><path
         d="m 0,2000 3000,0 L 3000,0 0,0 0,2000 Z"
         id="path18"
         inkscape:connector-curvature="0" /></clipPath><clipPath
       clipPathUnits="userSpaceOnUse"
       id="clipPath24"><path
         d="m 295.354,1819.93 696.349,0 0,-353.13 -696.349,0 0,353.13 z"
         id="path26"
         inkscape:connector-curvature="0" /></clipPath><clipPath
       clipPathUnits="userSpaceOnUse"
       id="clipPath72"><path
         d="m 115.87,1820.21 1044.44,0 0,-353.54 -1044.44,0 0,353.54 z"
         id="path74"
         inkscape:connector-curvature="0" /></clipPath><clipPath
       clipPathUnits="userSpaceOnUse"
       id="clipPath236"><path
         d="m 1777.58,1820.21 1027.13,0 0,-347.69 -1027.13,0 0,347.69 z"
         id="path238"
         inkscape:connector-curvature="0" /></clipPath></defs><sodipodi:namedview
     pagecolor="#ffffff"
     bordercolor="#666666"
     borderopacity="1"
     objecttolerance="10"
     gridtolerance="10"
     guidetolerance="10"
     inkscape:pageopacity="0"
     inkscape:pageshadow="2"
     inkscape:window-width="1366"
     inkscape:window-height="669"
     id="namedview4"
     showgrid="false"
     inkscape:zoom="0.22627417"
     inkscape:cx="122.04286"
     inkscape:cy="300.10898"
     inkscape:window-x="0"
     inkscape:window-y="32"
     inkscape:window-maximized="1"
     inkscape:current-layer="g10"
     showguides="true"
     fit-margin-top="0"
     fit-margin-left="0"
     fit-margin-right="0"
     fit-margin-bottom="0" /><g
     id="g10"
     inkscape:groupmode="layer"
     inkscape:label="Logos-Vectores"
     transform="matrix(1.25,0,0,-1.25,-649.65435,1779.7203)"><g
       id="g4387"><circle
         r="409.60001"
         transform="scale(1,-1)"
         cy="-1014.1763"
         cx="929.32349"
         id="path4385"
         style="opacity:1;fill:#1d1d1b;fill-opacity:1;stroke:none;stroke-width:0.5;stroke-miterlimit:4;stroke-dasharray:none;stroke-opacity:1" /><g
         transform="matrix(1.5991919,0,0,1.5991919,-2733.7013,-672.96527)"
         inkscape:export-ydpi="90"
         inkscape:export-xdpi="90"
         inkscape:export-filename="/home/zodiac/Development/hackspaceperu/landing-11-2016-hackspace.pe/static/img/isotipo-light.png"
         id="g5381"><path
           inkscape:connector-curvature="0"
           id="path492"
           style="fill:#fcbe00;fill-opacity:1;fill-rule:nonzero;stroke:none"
           d="m 2304.8267,1231.1353 c -8.834,5.102 -19.721,5.102 -28.557,0 -32.024,-18.489 -64.05,-36.979 -96.076,-55.47 1.695,-0.63 3.389,-1.265 5.08,-1.907 5.643,-2.139 11.264,-4.334 16.869,-6.572 20.319,11.731 40.637,23.462 60.955,35.193 4.934,2.849 9.868,5.696 14.803,8.545 7.826,4.52 17.469,4.52 25.297,0 4.424,-2.554 8.846,-5.107 13.27,-7.661 20.828,-12.025 41.656,-24.05 62.482,-36.074 5.604,2.236 11.223,4.431 16.865,6.57 1.694,0.641 3.387,1.277 5.084,1.908 -32.023,18.489 -64.047,36.979 -96.072,55.468" /><path
           inkscape:connector-curvature="0"
           id="path496"
           style="fill:#fcbe00;fill-opacity:1;fill-rule:nonzero;stroke:none"
           d="m 2445.9312,1063.6978 c -0.348,-0.304 -0.592,-0.608 -0.941,-0.91 -0.163,-0.141 -0.273,-0.281 -0.435,-0.421 -0.635,-0.545 -1.295,-1.088 -1.93,-1.63 -3.287,-2.806 -6.967,-5.581 -9.967,-8.319 l 0,-65.912 c 0,-9.037 -4.768,-17.389 -12.596,-21.909 -37.977,-21.925 -75.928,-43.852 -113.902,-65.777 -1.768,-8.071 -3.431,-15.719 -5.197,-23.789 1.334,0.523 2.616,1.138 3.857,1.853 44.033,25.424 87.734,50.773 131.767,76.197 8.836,5.101 14.071,14.529 14.071,24.73 l 0,90.299 c -1,-1.487 -3.065,-2.959 -4.727,-4.412" /><path
           inkscape:connector-curvature="0"
           id="path500"
           style="fill:#fcbe00;fill-opacity:1;fill-rule:nonzero;stroke:none"
           d="m 2148.3306,1052.4155 0,-65.908 c 0,-9.038 4.822,-17.39 12.649,-21.909 37.929,-21.899 75.858,-43.797 113.787,-65.695 l 5.214,-23.819 c -1.283,0.512 -2.515,1.108 -3.711,1.799 -43.993,25.401 -87.986,50.799 -131.978,76.199 -8.836,5.102 -14.278,14.527 -14.278,24.73 10e-4,30.099 10e-4,60.198 10e-4,90.295 1.63,-1.486 3.277,-2.957 4.937,-4.41 0.348,-0.304 0.697,-0.608 1.047,-0.91 0.162,-0.141 0.326,-0.281 0.489,-0.421 0.633,-0.545 1.267,-1.088 1.902,-1.63 3.287,-2.805 6.599,-5.582 9.941,-8.321" /><path
           inkscape:connector-curvature="0"
           id="path504"
           style="fill:#ffffff;fill-opacity:1;fill-rule:nonzero;stroke:none"
           d="m 2324.3208,1136.5405 c -0.445,0.33 -0.879,0.637 -1.314,0.957 1.414,2.121 2.828,4.24 4.244,6.361 2.65,3.968 3.623,10.406 2.265,14.975 -1.935,6.506 -6.832,22.75 -10.939,34.456 -1.654,-2.865 -3.307,-5.73 -4.959,-8.596 2.723,-8.217 5.881,-18.361 8.746,-27.981 0.725,-2.438 0.094,-6.6 -1.313,-8.72 -1.404,-2.105 -2.808,-4.209 -4.212,-6.313 -18.674,11.684 -33.557,11.669 -52.549,-0.058 -1.414,2.124 -2.83,4.247 -4.244,6.371 -1.418,2.12 -2.039,6.282 -1.315,8.72 2.61,8.792 5.475,18.029 8.031,25.828 -1.658,2.878 -3.318,5.755 -4.978,8.633 -3.943,-11.468 -8.383,-26.217 -10.205,-32.34 -1.356,-4.569 -0.383,-11.007 2.256,-14.975 1.418,-2.128 2.836,-4.255 4.254,-6.381 -0.444,-0.311 -0.879,-0.616 -1.325,-0.937 -2.531,-2.391 -5.064,-4.782 -7.597,-7.174 1.502,-0.787 2.826,-2.008 3.851,-3.617 2.94,-4.616 9.979,-21.021 14.83,-33.576 11.729,-30.404 9.813,-33.887 8.282,-36.682 -0.063,-0.118 -0.145,-0.217 -0.217,-0.335 0.013,-0.014 0.027,-0.028 0.041,-0.042 0.238,-0.313 0.48,-0.616 0.726,-0.911 -4.334,-0.718 -7.996,-3.167 -6.636,-8.383 0,0 8.466,-14.957 14.986,-16.199 5.787,-1.113 -1.289,11.892 0.723,18.296 3.146,-0.981 6.435,-0.982 9.582,-10e-4 2.017,-6.404 -5.057,-19.408 0.73,-18.295 6.508,1.242 14.986,16.199 14.986,16.199 1.362,5.217 -2.306,7.666 -6.646,8.384 0.246,0.295 0.488,0.597 0.727,0.91 0.013,0.014 0.027,0.028 0.041,0.042 -0.063,0.118 -0.145,0.223 -0.217,0.346 -1.533,2.795 -3.438,6.277 8.291,36.671 4.842,12.56 11.89,28.96 14.82,33.576 1.18,1.843 2.547,2.95 3.85,3.634 -2.532,2.386 -5.065,4.771 -7.596,7.157" /><path
           inkscape:connector-curvature="0"
           id="path508"
           style="fill:#ffffff;fill-opacity:1;fill-rule:nonzero;stroke:none"
           d="m 2326.5356,1005.8208 c 1.811,0.14 9.201,6.413 16.436,12.928 5.568,6.344 2.525,11.572 -1.469,15.028 -6.459,-9.707 -13.467,-19.257 -16.385,-19.857 -6.035,-1.247 -12.596,2.935 -12.596,2.935 0,0 10.235,-11.324 14.014,-11.034 m 10.629,-9.705 c -6.209,-1.359 -20.285,0.711 -20.285,0.711 0,0 17.719,-10.822 21.59,-10.454 0.837,0.083 2.888,1.437 5.589,3.497 2.981,3.661 0.879,7.304 -1.894,9.979 -2.102,-2.091 -3.871,-3.489 -5,-3.733 m -21.125,-29.238 c -9.004,-1.222 -19.178,3.017 -19.178,3.017 0,0 13.578,-11.433 19.076,-11.157 0.051,0 0.123,0.019 0.196,0.019 0.672,0.261 1.851,0.673 3.695,1.317 7.09,2.457 6.324,6.98 3.994,10.722 -3.416,-2.236 -6.168,-3.697 -7.783,-3.918 m -50.984,0 c -1.625,0.226 -4.42,1.708 -7.877,3.979 -2.081,-3.302 -2.95,-7.224 1.709,-9.801 0.744,-0.341 1.425,-0.642 2.068,-0.921 0.062,-0.017 0.115,-0.043 0.178,-0.061 1.769,-0.616 2.918,-1.027 3.611,-1.28 0.156,-0.03 0.301,-0.052 0.412,-0.056 5.498,-0.276 19.076,11.157 19.076,11.157 0,0 -10.172,-4.239 -19.177,-3.017 m -21.116,29.238 c -1.148,0.249 -2.939,1.662 -5.082,3.8 -2.73,-2.618 -4.855,-6.185 -2.162,-9.781 2.867,-2.205 5.061,-3.675 5.93,-3.762 3.873,-0.368 21.59,10.454 21.59,10.454 0,0 -14.075,-2.07 -20.276,-0.711 m 10.619,9.705 c 3.768,-0.29 14.016,11.034 14.016,11.034 0,0 -6.562,-4.182 -12.598,-2.935 -2.918,0.6 -9.925,10.15 -16.384,19.857 -3.995,-3.456 -7.047,-8.684 -1.469,-15.028 7.234,-6.515 14.635,-12.788 16.435,-12.928 m 90.661,-24.064 c -1.909,-1.545 -6.955,0.087 -8.83,-1.37 9.859,-6.131 -14.374,-44.894 -34.901,-44.894 -3.65,-16.568 -7.295,-33.129 -10.941,-49.693 -3.647,16.564 -7.293,33.125 -10.942,49.693 -20.529,0 -44.758,38.763 -34.9,44.894 -1.875,1.457 -6.922,-0.175 -8.828,1.37 -3.24,1.968 -14.058,24.109 -0.928,27.311 -2.853,3.688 -22.928,41.511 -6.076,42.991 -0.01,0.582 -0.041,1.177 -0.041,1.75 0,6.649 10.4,16.221 12.205,22.342 0.178,-1.654 0.424,-3.264 0.791,-4.791 2.805,-11.741 28.514,-46.436 28.514,-46.436 5.302,-7.728 12.474,-11.99 20.205,-11.99 7.73,0 14.902,4.262 20.205,11.99 0,0 25.711,34.695 28.515,46.436 0.364,1.527 0.612,3.137 0.788,4.791 1.808,-6.121 12.207,-15.693 12.207,-22.342 0,-0.573 -0.03,-1.168 -0.041,-1.75 16.849,-1.48 -3.219,-39.303 -6.077,-42.991 13.135,-3.202 2.317,-25.343 -0.925,-27.311" /><path
           inkscape:connector-curvature="0"
           id="path512"
           style="fill:#ffffff;fill-opacity:1;fill-rule:nonzero;stroke:none"
           d="m 2334.3716,1123.564 c 0.094,0.147 0.199,0.295 0.309,0.434 0.097,0.121 0.197,0.238 0.308,0.343 0.094,0.095 0.197,0.18 0.307,0.259 0.094,0.065 0.193,0.124 0.301,0.177 0.091,0.044 0.191,0.08 0.295,0.106 0.097,0.024 0.197,0.038 0.298,0.04 0.106,0.01 0.205,0 0.309,-0.013 0.109,-0.016 0.215,-0.045 0.32,-0.077 0.117,-0.038 0.231,-0.085 0.336,-0.141 0.123,-0.063 0.242,-0.133 0.354,-0.206 0.123,-0.086 0.246,-0.177 0.361,-0.275 0.18,-0.146 0.348,-0.305 0.51,-0.47 0.271,-0.285 0.519,-0.589 0.756,-0.901 0.271,-0.365 0.521,-0.741 0.757,-1.127 0.264,-0.431 0.51,-0.874 0.747,-1.327 0.252,-0.494 0.494,-1 0.718,-1.507 0.246,-0.549 0.473,-1.109 0.688,-1.671 0.359,-0.936 0.683,-1.883 0.978,-2.842 0.405,-1.336 0.756,-2.69 1.057,-4.055 0.311,-1.425 0.566,-2.866 0.766,-4.314 0.201,-1.469 0.336,-2.944 0.406,-4.424 0.068,-1.45 0.068,-2.906 -0.016,-4.358 -0.082,-1.388 -0.236,-2.771 -0.502,-4.137 -0.06,-0.326 -0.131,-0.654 -0.209,-0.98 -0.076,-0.321 -0.162,-0.641 -0.252,-0.957 -0.197,-0.656 -0.433,-1.301 -0.701,-1.93 -0.279,-0.66 -0.596,-1.306 -0.933,-1.94 -0.356,-0.661 -0.741,-1.309 -1.147,-1.941 -0.422,-0.66 -0.865,-1.304 -1.332,-1.934 -0.475,-0.653 -0.975,-1.292 -1.49,-1.919 -0.528,-0.642 -1.074,-1.268 -1.629,-1.886 -0.568,-0.627 -1.152,-1.245 -1.74,-1.85 -1.201,-1.225 -2.444,-2.408 -3.721,-3.556 -1.258,-1.13 -2.547,-2.227 -3.859,-3.299 -1.137,-0.926 -2.295,-1.83 -3.463,-2.716 -1.182,-0.888 -2.371,-1.759 -3.578,-2.613 -1.84,-1.304 -3.715,-2.565 -5.62,-3.778 -0.544,-0.348 -1.091,-0.689 -1.64,-1.028 -0.201,-0.12 -0.403,-0.241 -0.602,-0.361 0,0 -0.01,-0.01 -0.011,-0.01 -0.01,-0.01 -0.012,-0.01 -0.014,-0.012 -0.111,-0.079 -0.229,-0.153 -0.344,-0.224 -0.096,-0.059 -0.191,-0.111 -0.293,-0.152 -0.08,-0.039 -0.162,-0.072 -0.246,-0.092 -0.059,-0.018 -0.123,-0.032 -0.184,-0.035 -0.044,0 -0.085,0 -0.126,0.01 -0.018,0 -0.036,0.01 -0.049,0.014 -0.032,0.01 -0.059,0.024 -0.084,0.044 -0.033,0.027 -0.063,0.056 -0.088,0.092 -0.035,0.047 -0.063,0.097 -0.086,0.15 -0.031,0.071 -0.057,0.141 -0.076,0.215 -0.047,0.17 -0.073,0.344 -0.088,0.518 -0.012,0.129 -0.022,0.259 -0.024,0.385 0,0.147 0,0.297 0,0.444 0.01,0.348 0.039,0.692 0.08,1.036 0.049,0.412 0.106,0.818 0.176,1.228 0.078,0.467 0.168,0.932 0.266,1.397 0.082,0.395 0.174,0.789 0.265,1.183 0.131,0.556 0.274,1.113 0.418,1.666 0.329,1.248 0.684,2.49 1.059,3.722 0.418,1.393 0.859,2.776 1.318,4.153 1.018,3.089 2.108,6.156 3.235,9.205 1.109,3.012 2.259,6.008 3.439,8.993 1.258,3.189 2.547,6.367 3.873,9.534 0.983,2.349 1.983,4.686 3.008,7.019 0.565,1.282 1.137,2.563 1.715,3.84 0.508,1.119 1.021,2.23 1.547,3.337 0.248,0.518 0.498,1.035 0.752,1.553 0.388,0.795 0.785,1.584 1.201,2.363 0.162,0.304 0.326,0.604 0.494,0.905 0.135,0.235 0.272,0.464 0.418,0.693" /><path
           inkscape:connector-curvature="0"
           id="path516"
           style="fill:#ffffff;fill-opacity:1;fill-rule:nonzero;stroke:none"
           d="m 2340.1274,1136.4829 c 23.43,10.141 43.336,18.295 60.219,24.72 114.162,43.399 90.338,7.38 83.582,-31.973 -3.16,-18.442 -36.155,-48.63 -46.973,-57.917 -34.265,-29.436 -57.015,-43.37 -73.154,-49.67 0.902,2.542 1.625,5.147 2.148,7.795 0.397,2.007 0.68,4.04 0.84,6.079 0.184,2.372 0.205,4.756 0.055,7.128 -0.113,1.789 -0.321,3.575 -0.619,5.344 -0.352,2.09 -0.836,4.158 -1.436,6.191 -0.562,1.905 -1.226,3.779 -1.988,5.613 -0.703,1.697 -1.492,3.363 -2.348,4.99 -0.781,1.477 -1.619,2.922 -2.51,4.332 -0.791,1.239 -1.621,2.454 -2.49,3.638 -0.666,0.903 -1.357,1.792 -2.072,2.657 -0.344,0.42 -0.695,0.835 -1.053,1.247 -0.551,0.63 -1.117,1.248 -1.695,1.854 0.383,0.901 0.803,2.219 1.187,4.173 0.83,4.229 1.477,11.43 0.948,23.83 -0.307,7.148 -2.141,13.266 -4.625,18.343 -2.344,4.785 -5.256,8.643 -8.016,11.626" /><path
           inkscape:connector-curvature="0"
           id="path520"
           style="fill:#ffffff;fill-opacity:1;fill-rule:nonzero;stroke:none"
           d="m 2240.9673,1136.4829 c -23.426,10.141 -43.334,18.295 -60.217,24.72 -114.164,43.399 -90.34,7.38 -83.584,-31.973 3.16,-18.442 36.158,-48.63 46.977,-57.917 34.261,-29.436 57.011,-43.37 73.148,-49.67 -0.894,2.542 -1.621,5.147 -2.146,7.795 -0.397,2.007 -0.68,4.04 -0.838,6.079 -0.186,2.372 -0.205,4.756 -0.057,7.128 0.112,1.789 0.321,3.575 0.617,5.344 0.358,2.09 0.836,4.158 1.44,6.191 0.558,1.905 1.228,3.779 1.986,5.613 0.707,1.697 1.492,3.363 2.35,4.99 0.779,1.477 1.617,2.922 2.512,4.332 0.785,1.239 1.615,2.454 2.487,3.638 0.669,0.903 1.359,1.792 2.071,2.657 0.348,0.42 0.697,0.835 1.055,1.247 0.553,0.63 1.113,1.248 1.695,1.854 -0.381,0.901 -0.805,2.219 -1.191,4.173 -0.83,4.229 -1.477,11.43 -0.948,23.83 0.307,7.148 2.145,13.266 4.627,18.343 2.342,4.785 5.258,8.643 8.016,11.626" /><path
           inkscape:connector-curvature="0"
           id="path524"
           style="fill:#ffffff;fill-opacity:1;fill-rule:nonzero;stroke:none"
           d="m 2246.7251,1123.564 c -0.096,0.147 -0.197,0.295 -0.307,0.434 -0.099,0.121 -0.201,0.238 -0.312,0.343 -0.094,0.095 -0.197,0.18 -0.307,0.259 -0.094,0.065 -0.193,0.124 -0.299,0.177 -0.095,0.044 -0.195,0.08 -0.298,0.106 -0.098,0.024 -0.198,0.038 -0.297,0.04 -0.106,0.01 -0.207,0 -0.309,-0.013 -0.109,-0.016 -0.215,-0.045 -0.322,-0.077 -0.113,-0.038 -0.225,-0.085 -0.334,-0.141 -0.123,-0.063 -0.24,-0.133 -0.352,-0.206 -0.125,-0.086 -0.25,-0.177 -0.363,-0.275 -0.18,-0.146 -0.348,-0.305 -0.51,-0.47 -0.269,-0.285 -0.521,-0.589 -0.752,-0.901 -0.271,-0.365 -0.525,-0.741 -0.759,-1.127 -0.266,-0.431 -0.512,-0.874 -0.749,-1.327 -0.253,-0.494 -0.494,-1 -0.716,-1.507 -0.25,-0.549 -0.473,-1.109 -0.69,-1.671 -0.357,-0.936 -0.683,-1.883 -0.972,-2.842 -0.411,-1.336 -0.761,-2.69 -1.059,-4.055 -0.314,-1.425 -0.57,-2.866 -0.768,-4.314 -0.201,-1.469 -0.338,-2.944 -0.41,-4.424 -0.066,-1.45 -0.066,-2.906 0.02,-4.358 0.08,-1.388 0.238,-2.771 0.498,-4.137 0.066,-0.326 0.134,-0.654 0.209,-0.98 0.078,-0.321 0.164,-0.641 0.258,-0.957 0.193,-0.656 0.429,-1.301 0.7,-1.93 0.276,-0.66 0.595,-1.306 0.93,-1.94 0.36,-0.661 0.741,-1.309 1.147,-1.941 0.422,-0.66 0.867,-1.304 1.33,-1.934 0.479,-0.653 0.977,-1.292 1.492,-1.919 0.528,-0.642 1.074,-1.268 1.631,-1.886 0.568,-0.627 1.15,-1.245 1.74,-1.85 1.2,-1.225 2.442,-2.408 3.719,-3.556 1.26,-1.13 2.549,-2.227 3.861,-3.299 1.139,-0.926 2.295,-1.83 3.467,-2.716 1.176,-0.888 2.367,-1.759 3.571,-2.613 1.843,-1.304 3.72,-2.565 5.621,-3.778 0.546,-0.348 1.095,-0.689 1.642,-1.028 0.201,-0.12 0.401,-0.241 0.6,-0.361 0,0 0.01,-0.01 0.013,-0.01 0.01,-0.01 0.012,-0.01 0.018,-0.012 0.107,-0.079 0.223,-0.153 0.338,-0.224 0.098,-0.059 0.193,-0.111 0.297,-0.152 0.078,-0.039 0.158,-0.072 0.24,-0.092 0.061,-0.018 0.125,-0.032 0.186,-0.035 0.044,0 0.086,0 0.127,0.01 0.017,0 0.035,0.01 0.05,0.014 0.03,0.01 0.059,0.024 0.086,0.044 0.031,0.027 0.059,0.056 0.086,0.092 0.035,0.047 0.061,0.097 0.084,0.15 0.033,0.071 0.059,0.141 0.076,0.215 0.047,0.17 0.077,0.344 0.09,0.518 0.012,0.129 0.02,0.259 0.022,0.385 0.01,0.147 0,0.297 0,0.444 -0.01,0.348 -0.039,0.692 -0.08,1.036 -0.043,0.412 -0.106,0.818 -0.176,1.228 -0.076,0.467 -0.168,0.932 -0.266,1.397 -0.082,0.395 -0.172,0.789 -0.263,1.183 -0.133,0.556 -0.272,1.113 -0.418,1.666 -0.33,1.248 -0.684,2.49 -1.061,3.722 -0.418,1.393 -0.859,2.776 -1.314,4.153 -1.022,3.089 -2.112,6.156 -3.235,9.205 -1.113,3.012 -2.26,6.008 -3.441,8.993 -1.258,3.189 -2.551,6.367 -3.875,9.534 -0.983,2.349 -1.985,4.686 -3.008,7.019 -0.564,1.282 -1.135,2.563 -1.715,3.84 -0.51,1.119 -1.021,2.23 -1.549,3.337 -0.246,0.518 -0.496,1.035 -0.75,1.553 -0.388,0.795 -0.783,1.584 -1.201,2.363 -0.16,0.304 -0.326,0.604 -0.492,0.905 -0.137,0.235 -0.275,0.464 -0.418,0.693" /></g></g></g></svg>