<?xml version="1.0" encoding="UTF-8" standalone="no"?>
<!-- Created with Inkscape (http://www.inkscape.org/) -->

<svg
   xmlns:dc="http://purl.org/dc/elements/1.1/"
   xmlns:cc="http://creativecommons.org/ns#"
   xmlns:rdf="http://www.w3.org/1999/02/22-rdf-syntax-ns#"
   xmlns:svg="http://www.w3.org/2000/svg"
   xmlns="http://www.w3.org/2000/svg"
   xmlns:sodipodi="http://sodipodi.sourceforge.net/DTD/sodipodi-0.dtd"
   xmlns:inkscape="http://www.inkscape.org/namespaces/inkscape"
   id="svg2"
   version="1.1"
   inkscape:version="0.91 r13725"
   xml:space="preserve"
   width="1915.8721"
   height="1024"
   viewBox="0 0 1915.8721 1024"
   sodipodi:docname="hakspace-logotype--dark--square-ffffff-background.svg"><metadata
     id="metadata8"><rdf:RDF><cc:Work
         rdf:about=""><dc:format>image/svg+xml</dc:format><dc:type
           rdf:resource="http://purl.org/dc/dcmitype/StillImage" /><dc:title /></cc:Work></rdf:RDF></metadata><defs
     id="defs6"><clipPath
       clipPathUnits="userSpaceOnUse"
       id="clipPath16"><path
         d="m 0,2000 3000,0 L 3000,0 0,0 0,2000 Z"
         id="path18"
         inkscape:connector-curvature="0" /></clipPath><clipPath
       clipPathUnits="userSpaceOnUse"
       id="clipPath24"><path
         d="m 295.354,1819.93 696.349,0 0,-353.13 -696.349,0 0,353.13 z"
         id="path26"
         inkscape:connector-curvature="0" /></clipPath><clipPath
       clipPathUnits="userSpaceOnUse"
       id="clipPath72"><path
         d="m 115.87,1820.21 1044.44,0 0,-353.54 -1044.44,0 0,353.54 z"
         id="path74"
         inkscape:connector-curvature="0" /></clipPath><clipPath
       clipPathUnits="userSpaceOnUse"
       id="clipPath236"><path
         d="m 1777.58,1820.21 1027.13,0 0,-347.69 -1027.13,0 0,347.69 z"
         id="path238"
         inkscape:connector-curvature="0" /></clipPath></defs><sodipodi:namedview
     pagecolor="#ffffff"
     bordercolor="#666666"
     borderopacity="1"
     objecttolerance="10"
     gridtolerance="10"
     guidetolerance="10"
     inkscape:pageopacity="0"
     inkscape:pageshadow="2"
     inkscape:window-width="1366"
     inkscape:window-height="669"
     id="namedview4"
     showgrid="false"
     inkscape:zoom="0.12218805"
     inkscape:cx="184.9081"
     inkscape:cy="-407.27105"
     inkscape:window-x="0"
     inkscape:window-y="32"
     inkscape:window-maximized="1"
     inkscape:current-layer="g10"
     showguides="true"
     fit-margin-top="0"
     fit-margin-left="0"
     fit-margin-right="0"
     fit-margin-bottom="0" /><g
     id="g10"
     inkscape:groupmode="layer"
     inkscape:label="Logos-Vectores"
     transform="matrix(1.25,0,0,-1.25,-917.06398,1762)"><g
       id="g5966"><rect
         inkscape:export-ydpi="90"
         inkscape:export-xdpi="90"
         transform="scale(1,-1)"
         y="-1409.6"
         x="733.65118"
         height="819.20001"
         width="1532.6976"
         id="rect4387"
         style="opacity:1;fill:#ffffff;fill-opacity:1;stroke:none;stroke-width:0.5;stroke-miterlimit:4;stroke-dasharray:none;stroke-opacity:1" /><g
         inkscape:export-ydpi="90"
         inkscape:export-xdpi="90"
         transform="matrix(1.3142844,0,0,1.3142844,-4007.1965,4390.3678)"
         id="g4358"><path
           d="m 4001.6989,-2329.1189 47.632,0 0,-60.373 0.477,0 c 8.181,9.618 18.762,16.593 38.969,16.593 22.375,0 42.82,-13.704 42.82,-42.333 l 0,-85.635 -47.629,0 0,65.432 c 0,14.433 -1.689,24.535 -15.635,24.535 -8.178,0 -19.002,-4.094 -19.002,-24.059 l 0,-65.908 -47.632,0 0,171.748 z"
           style="fill:#1d1d1b;fill-opacity:1;fill-rule:nonzero;stroke:none"
           id="path34"
           inkscape:connector-curvature="0" /><path
           d="m 4405.069,-2329.1189 47.633,0 0,-82.986 30.31,36.087 53.886,0 -44.499,-47.154 51.474,-77.695 -57.257,0 -25.488,45.223 -8.426,-9.142 0,-36.081 -47.633,0 0,171.748 z"
           style="fill:#1d1d1b;fill-opacity:1;fill-rule:nonzero;stroke:none"
           id="path38"
           inkscape:connector-curvature="0" /><path
           d="m 3926.6628,-2553.3171 c -0.242,4.091 -2.408,7.217 -5.531,9.382 -2.888,2.405 -6.737,3.61 -10.588,3.61 -6.734,0 -14.431,-1.443 -14.431,-9.624 0,-3.61 2.888,-5.287 5.531,-6.491 7.939,-3.372 25.979,-4.332 41.857,-9.625 15.877,-5.054 29.827,-14.427 29.827,-34.874 0,-34.645 -33.195,-44.024 -63.503,-44.024 -29.344,0 -61.582,11.786 -62.301,44.024 l 45.463,0 c 0.238,-4.334 2.159,-7.943 5.773,-11.069 2.407,-2.16 6.975,-3.611 12.748,-3.611 6.253,0 16.115,2.406 16.115,9.625 0,7.213 -4.087,9.381 -26.217,13.228 -36.322,6.253 -50.998,17.799 -50.998,39.207 0,31.516 33.915,39.69 58.933,39.69 26.94,0 59.417,-7.458 60.622,-39.448 l -43.3,0 z"
           style="fill:#1d1d1b;fill-opacity:1;fill-rule:nonzero;stroke:none"
           id="path42"
           inkscape:connector-curvature="0" /><path
           d="m 4044.029,-2610.3259 c 17.079,0 20.929,16.119 20.929,30.787 0,14.918 -3.85,31.034 -20.929,31.034 -17.079,0 -20.925,-16.116 -20.925,-31.034 0,-14.668 3.846,-30.787 20.925,-30.787 m -66.872,93.331 45.947,0 0,-13.706 0.48,0 c 6.015,7.936 13.228,16.832 36.558,16.832 35.362,0 52.442,-34.875 52.442,-66.146 0,-29.351 -11.307,-64.948 -53.161,-64.948 -14.191,0 -26.939,6.253 -34.156,16.838 l -0.483,0 0,-54.123 -47.627,0 0,165.253 z"
           style="fill:#1d1d1b;fill-opacity:1;fill-rule:nonzero;stroke:none"
           id="path46"
           inkscape:connector-curvature="0" /><path
           d="m 4463.1647,-2565.3435 c 0,11.546 -8.658,20.932 -20.926,20.932 -14.195,0 -22.375,-7.458 -24.535,-20.932 l 45.461,0 z m -45.699,-24.773 c 1.196,-14.192 9.379,-24.296 24.29,-24.296 7.697,0 16.116,2.887 19.968,8.902 l 44.503,0 c -9.624,-26.946 -35.842,-39.452 -64.233,-39.452 -39.929,0 -69.988,23.574 -69.988,65.186 0,36.326 26.456,65.908 65.901,65.908 49.554,0 70.969,-27.662 70.969,-76.248 l -91.41,0 z"
           style="fill:#1d1d1b;fill-opacity:1;fill-rule:nonzero;stroke:none"
           id="path50"
           inkscape:connector-curvature="0" /><path
           d="m 4219.8386,-2456.367 c -0.725,-12.989 -9.138,-19.48 -19.964,-19.48 -8.664,0 -14.918,5.775 -14.918,11.544 0,8.42 5.538,11.063 16.122,13.473 6.492,1.439 12.985,3.127 18.76,6.009 l 0,-11.546 z m 1.206,-32.715 c -0.243,-3.365 0.483,-8.414 1.682,-11.785 l 8.325,0 20.884,118.421 c -8.603,5.876 -22.627,9.547 -45.564,9.547 -14.678,0 -30.555,-1.437 -42.578,-7.207 -12.268,-5.782 -20.925,-16.122 -21.647,-33.683 l 44.257,0 c 0.24,5.293 3.124,12.752 17.802,12.752 7.697,0 15.633,-3.133 15.633,-11.545 0,-7.937 -6.491,-9.87 -12.989,-11.069 -24.297,-4.571 -70.48,-3.126 -70.48,-42.572 0,-26.224 19.965,-37.77 44.016,-37.77 15.395,0 30.073,3.368 40.175,14.911 l 0.484,0 z"
           style="fill:#1d1d1b;fill-opacity:1;fill-rule:nonzero;stroke:none"
           id="path54"
           inkscape:connector-curvature="0" /><path
           d="m 4355.819,-2451.7341 c -1.215,-9.563 -8.297,-17.622 -18.401,-17.622 -18.287,0 -20.928,15.632 -20.928,30.794 0,15.157 2.641,31.026 20.928,31.026 5.05,0 9.141,-1.444 12.026,-4.087 2.819,-2.39 4.408,-5.995 5.06,-10.371 l 43.655,8.896 c -7.13,27.288 -32.471,40.199 -61.705,40.199 -11.687,0 -22.65,-2.546 -32.206,-7.239 l -18.211,-103.29 c 12.344,-13.029 30.282,-20.565 50.417,-20.565 16.842,0 31.99,4.816 43.301,13.712 9.252,7.329 16.13,17.327 19.635,29.666 l -43.571,8.881 z"
           style="fill:#1d1d1b;fill-opacity:1;fill-rule:nonzero;stroke:none"
           id="path58"
           inkscape:connector-curvature="0" /><path
           d="m 4195.5905,-2597.3357 c -0.725,-12.99 -9.141,-19.482 -19.964,-19.482 -8.661,0 -14.922,5.776 -14.922,11.545 0,8.419 5.538,11.062 16.123,13.473 6.492,1.438 12.991,3.121 18.763,6.009 l 0,-11.545 z m 1.203,-32.717 c -0.242,-3.364 0.483,-8.419 1.682,-11.784 l 8.327,0 20.881,118.421 c -8.599,5.879 -22.626,9.547 -45.563,9.547 -14.679,0 -30.55,-1.444 -42.579,-7.214 -12.266,-5.775 -20.928,-16.115 -21.646,-33.675 l 44.26,0 c 0.24,5.292 3.124,12.75 17.799,12.75 7.697,0 15.636,-3.133 15.636,-11.545 0,-7.941 -6.496,-9.869 -12.992,-11.068 -24.295,-4.571 -70.48,-3.127 -70.48,-42.576 0,-26.22 19.965,-37.77 44.019,-37.77 15.398,0 30.07,3.369 40.174,14.914 l 0.482,0 z"
           style="fill:#1d1d1b;fill-opacity:1;fill-rule:nonzero;stroke:none"
           id="path62"
           inkscape:connector-curvature="0" /><path
           d="m 4330.9255,-2592.7019 c -1.211,-9.572 -8.293,-17.624 -18.4,-17.624 -18.28,0 -20.926,15.632 -20.926,30.787 0,15.156 2.646,31.034 20.926,31.034 5.053,0 9.14,-1.444 12.027,-4.088 2.818,-2.384 4.411,-5.994 5.061,-10.378 l 43.648,8.902 c -7.126,27.288 -32.463,40.2 -61.697,40.2 -11.691,0 -22.65,-2.547 -32.21,-7.239 l -18.211,-103.29 c 12.348,-13.032 30.282,-20.569 50.421,-20.569 16.838,0 31.99,4.814 43.299,13.709 9.258,7.336 16.133,17.334 19.636,29.672 l -43.574,8.884 z"
           style="fill:#1d1d1b;fill-opacity:1;fill-rule:nonzero;stroke:none"
           id="path66"
           inkscape:connector-curvature="0" /><path
           d="m 4607.4929,-2328.8474 -62.663,0 104.993,-181.855 -99.123,-171.682 62.662,0 99.123,171.682 -104.992,181.855 z"
           style="fill:#fcbe00;fill-opacity:1;fill-rule:nonzero;stroke:none"
           id="path82"
           inkscape:connector-curvature="0" /><path
           d="m 3829.8249,-2682.3845 -99.12,171.682 104.993,181.855 -62.666,0 -104.992,-181.855 99.119,-171.682 62.666,0 z"
           style="fill:#fcbe00;fill-opacity:1;fill-rule:nonzero;stroke:none"
           id="path86"
           inkscape:connector-curvature="0" /><path
           inkscape:connector-curvature="0"
           id="path90"
           style="fill:#1d1d1b;fill-opacity:1;fill-rule:nonzero;stroke:none"
           d="m 3736.1266,-2799.4983 c 1.491,1.988 2.237,4.673 2.237,8.053 l -0.1,0.894 0,0.895 c -1.59,-0.731 -4.01,-1.458 -7.256,-2.187 -2.983,-0.664 -5.137,-1.377 -6.462,-2.137 -1.326,-0.763 -1.988,-2.138 -1.988,-4.125 0,-1.328 0.579,-2.386 1.739,-3.182 1.159,-0.795 2.767,-1.192 4.822,-1.192 3.181,0 5.517,0.994 7.008,2.981 m 4.225,-13.221 -0.994,5.567 c -2.784,-2.584 -5.716,-4.408 -8.798,-5.467 -3.081,-1.06 -6.677,-1.591 -10.786,-1.591 -5.303,0 -9.726,1.342 -13.27,4.026 -3.546,2.684 -5.318,6.577 -5.318,11.68 0,3.38 0.728,6.179 2.187,8.401 1.456,2.219 3.362,3.909 5.715,5.069 2.352,1.159 4.788,1.988 7.307,2.485 2.518,0.497 5.632,0.978 9.344,1.442 4.439,0.53 7.638,1.109 9.593,1.74 1.954,0.629 2.932,1.805 2.932,3.528 0,1.656 -0.713,2.783 -2.137,3.38 -1.426,0.597 -2.967,0.895 -4.623,0.895 -1.856,0 -3.479,-0.348 -4.87,-1.043 -1.392,-0.697 -2.187,-2.038 -2.386,-4.027 l -19.882,0 c 0,5.698 2.253,10.04 6.76,13.023 4.506,2.982 11.73,4.472 21.671,4.472 5.964,0 10.719,-0.513 14.265,-1.54 3.544,-1.028 6.163,-2.485 7.853,-4.374 1.69,-1.888 2.783,-4.043 3.28,-6.462 0.497,-2.42 0.746,-5.484 0.746,-9.195 l 0,-24.354 c 0,-1.658 0.149,-2.933 0.447,-3.828 0.299,-0.894 1.077,-1.838 2.337,-2.833 l 0,-0.994 -21.373,0 z" /><path
           inkscape:connector-curvature="0"
           id="path94"
           style="fill:#1d1d1b;fill-opacity:1;fill-rule:nonzero;stroke:none"
           d="m 3837.4211,-2795.8196 c 1.491,2.318 2.237,5.201 2.237,8.648 0,3.38 -0.68,6.229 -2.038,8.549 -1.359,2.32 -3.628,3.48 -6.809,3.48 -1.658,0 -3.05,-0.348 -4.176,-1.044 -1.127,-0.696 -2.037,-1.641 -2.733,-2.833 -0.696,-1.194 -1.178,-2.52 -1.441,-3.977 -0.266,-1.458 -0.398,-2.949 -0.398,-4.473 0,-1.525 0.115,-2.966 0.348,-4.325 0.231,-1.358 0.646,-2.601 1.242,-3.727 0.597,-1.128 1.442,-2.038 2.535,-2.734 1.094,-0.696 2.436,-1.043 4.026,-1.043 3.313,0 5.716,1.159 7.207,3.479 m 3.628,-16.899 0,6.959 c -2.385,-3.117 -4.805,-5.304 -7.256,-6.562 -2.453,-1.258 -5.368,-1.889 -8.748,-1.889 -7.555,0 -13.387,2.486 -17.496,7.456 -4.109,4.97 -6.163,11.332 -6.163,19.086 0,4.241 0.547,8.118 1.64,11.631 1.094,3.512 2.65,6.543 4.672,9.096 2.021,2.55 4.39,4.488 7.108,5.815 2.717,1.325 5.599,1.988 8.648,1.988 3.38,0 6.279,-0.496 8.698,-1.491 2.419,-0.994 4.688,-2.751 6.81,-5.268 l 0,24.752 20.677,0 0,-71.573 -18.59,0 z" /><path
           inkscape:connector-curvature="0"
           id="path98"
           style="fill:#1d1d1b;fill-opacity:1;fill-rule:nonzero;stroke:none"
           d="m 3906.9557,-2780.8088 c 0,2.386 -0.912,4.488 -2.734,6.312 -1.823,1.822 -3.961,2.734 -6.412,2.734 -3.049,0 -5.417,-0.796 -7.107,-2.386 -1.69,-1.591 -2.535,-3.811 -2.535,-6.66 l 18.788,0 z m -18.788,-10.537 c 0,-2.983 1.01,-5.436 3.032,-7.357 2.02,-1.922 4.423,-2.882 7.207,-2.882 1.722,0 3.263,0.38 4.622,1.142 1.357,0.762 2.401,1.905 3.132,3.43 l 19.782,0 c -0.862,-3.115 -2.254,-5.782 -4.175,-8.002 -1.923,-2.221 -4.209,-3.993 -6.859,-5.318 -2.652,-1.327 -5.485,-2.304 -8.5,-2.933 -3.016,-0.629 -6.113,-0.944 -9.294,-0.944 -4.176,0 -8.07,0.596 -11.681,1.789 -3.613,1.193 -6.759,2.948 -9.443,5.268 -2.685,2.32 -4.772,5.17 -6.263,8.55 -1.491,3.38 -2.237,7.19 -2.237,11.432 0,4.174 0.746,8.002 2.237,11.481 1.491,3.48 3.578,6.461 6.263,8.946 2.684,2.486 5.815,4.374 9.394,5.667 3.578,1.292 7.455,1.938 11.63,1.938 4.705,0 8.947,-0.762 12.724,-2.286 3.778,-1.526 7.009,-3.712 9.692,-6.561 2.685,-2.85 4.722,-6.262 6.114,-10.239 1.392,-3.977 2.088,-8.35 2.088,-13.121 l -39.465,0 z" /><path
           inkscape:connector-curvature="0"
           id="path102"
           style="fill:#1d1d1b;fill-opacity:1;fill-rule:nonzero;stroke:none"
           d="m 3931.7072,-2760.6292 20.677,0 9.145,-32.904 9.046,32.904 19.882,0 -17.595,-52.09 -23.063,0 -18.092,52.09 z" /><path
           inkscape:connector-curvature="0"
           id="path106"
           style="fill:#1d1d1b;fill-opacity:1;fill-rule:nonzero;stroke:none"
           d="m 4033.9963,-2780.8088 c 0,2.386 -0.911,4.488 -2.733,6.312 -1.824,1.822 -3.961,2.734 -6.413,2.734 -3.048,0 -5.417,-0.796 -7.106,-2.386 -1.69,-1.591 -2.536,-3.811 -2.536,-6.66 l 18.788,0 z m -18.788,-10.537 c 0,-2.983 1.01,-5.436 3.032,-7.357 2.021,-1.922 4.424,-2.882 7.207,-2.882 1.723,0 3.264,0.38 4.623,1.142 1.358,0.762 2.402,1.905 3.131,3.43 l 19.782,0 c -0.862,-3.115 -2.254,-5.782 -4.174,-8.002 -1.923,-2.221 -4.21,-3.993 -6.86,-5.318 -2.651,-1.327 -5.484,-2.304 -8.499,-2.933 -3.017,-0.629 -6.114,-0.944 -9.295,-0.944 -4.175,0 -8.069,0.596 -11.68,1.789 -3.613,1.193 -6.76,2.948 -9.444,5.268 -2.684,2.32 -4.771,5.17 -6.263,8.55 -1.491,3.38 -2.236,7.19 -2.236,11.432 0,4.174 0.745,8.002 2.236,11.481 1.492,3.48 3.579,6.461 6.263,8.946 2.684,2.486 5.816,4.374 9.394,5.667 3.579,1.292 7.456,1.938 11.631,1.938 4.705,0 8.947,-0.762 12.724,-2.286 3.778,-1.526 7.008,-3.712 9.692,-6.561 2.684,-2.85 4.722,-6.262 6.114,-10.239 1.391,-3.977 2.087,-8.35 2.087,-13.121 l -39.465,0 z" /><path
           d="m 4063.9171,-2741.1455 20.677,0 0,-71.573 -20.677,0 0,71.573 z"
           style="fill:#1d1d1b;fill-opacity:1;fill-rule:nonzero;stroke:none"
           id="path108"
           inkscape:connector-curvature="0" /><path
           inkscape:connector-curvature="0"
           id="path112"
           style="fill:#1d1d1b;fill-opacity:1;fill-rule:nonzero;stroke:none"
           d="m 4119.8332,-2774.2483 c -1.228,-0.795 -2.172,-1.823 -2.833,-3.082 -0.664,-1.26 -1.161,-2.651 -1.491,-4.175 -0.333,-1.525 -0.497,-3.082 -0.497,-4.672 0,-4.771 0.795,-8.317 2.385,-10.636 1.59,-2.321 3.778,-3.48 6.561,-3.48 2.849,0 5.053,1.159 6.61,3.48 1.557,2.319 2.336,5.865 2.336,10.636 0,3.843 -0.779,6.992 -2.336,9.444 -1.557,2.451 -3.695,3.677 -6.411,3.677 -1.657,0 -3.098,-0.397 -4.324,-1.192 m -17.446,7.704 c 5.368,4.937 12.525,7.405 21.471,7.405 9.146,0 16.386,-2.468 21.721,-7.405 5.334,-4.937 8.002,-11.481 8.002,-19.633 0,-4.639 -0.745,-8.732 -2.236,-12.277 -1.491,-3.546 -3.564,-6.479 -6.213,-8.797 -2.652,-2.321 -5.782,-4.06 -9.394,-5.22 -3.613,-1.158 -7.54,-1.739 -11.78,-1.739 -8.683,0 -15.79,2.336 -21.323,7.009 -5.534,4.672 -8.3,11.314 -8.3,19.931 0,8.879 2.684,15.789 8.052,20.726" /><path
           inkscape:connector-curvature="0"
           id="path116"
           style="fill:#1d1d1b;fill-opacity:1;fill-rule:nonzero;stroke:none"
           d="m 4196.7736,-2795.1741 c 1.623,2.153 2.435,5.021 2.435,8.6 0,4.041 -0.812,7.073 -2.435,9.095 -1.625,2.021 -3.827,3.032 -6.611,3.032 -2.452,0 -4.457,-1.078 -6.014,-3.231 -1.558,-2.154 -2.336,-4.987 -2.336,-8.499 0,-3.713 0.745,-6.678 2.236,-8.897 1.492,-2.221 3.562,-3.33 6.213,-3.33 2.717,0 4.887,1.076 6.512,3.23 m -16.651,34.545 0,-7.754 0.199,0 c 1.325,2.982 3.544,5.269 6.66,6.858 3.114,1.591 6.328,2.386 9.643,2.386 3.777,0 7.139,-0.713 10.089,-2.137 2.949,-1.425 5.401,-3.414 7.357,-5.964 1.953,-2.552 3.412,-5.452 4.373,-8.699 0.96,-3.247 1.441,-6.694 1.441,-10.338 0,-4.905 -0.695,-9.162 -2.087,-12.773 -1.391,-3.613 -3.248,-6.528 -5.567,-8.748 -2.32,-2.222 -4.92,-3.845 -7.803,-4.871 -2.883,-1.026 -5.849,-1.541 -8.897,-1.541 -5.368,0 -9.809,2.22 -13.32,6.66 l 0,-22.863 -20.677,0 0,69.784 18.589,0 z" /><path
           inkscape:connector-curvature="0"
           id="path120"
           style="fill:#1d1d1b;fill-opacity:1;fill-rule:nonzero;stroke:none"
           d="m 4266.009,-2780.8088 c 0,2.386 -0.911,4.488 -2.733,6.312 -1.824,1.822 -3.961,2.734 -6.413,2.734 -3.048,0 -5.417,-0.796 -7.107,-2.386 -1.689,-1.591 -2.534,-3.811 -2.534,-6.66 l 18.787,0 z m -18.787,-10.537 c 0,-2.983 1.009,-5.436 3.031,-7.357 2.021,-1.922 4.424,-2.882 7.207,-2.882 1.723,0 3.264,0.38 4.623,1.142 1.358,0.762 2.402,1.905 3.131,3.43 l 19.782,0 c -0.862,-3.115 -2.254,-5.782 -4.174,-8.002 -1.923,-2.221 -4.21,-3.993 -6.86,-5.318 -2.651,-1.327 -5.484,-2.304 -8.499,-2.933 -3.017,-0.629 -6.114,-0.944 -9.295,-0.944 -4.175,0 -8.069,0.596 -11.68,1.789 -3.613,1.193 -6.76,2.948 -9.444,5.268 -2.684,2.32 -4.771,5.17 -6.263,8.55 -1.491,3.38 -2.236,7.19 -2.236,11.432 0,4.174 0.745,8.002 2.236,11.481 1.492,3.48 3.579,6.461 6.263,8.946 2.684,2.486 5.816,4.374 9.394,5.667 3.579,1.292 7.456,1.938 11.631,1.938 4.705,0 8.947,-0.762 12.724,-2.286 3.778,-1.526 7.008,-3.712 9.692,-6.561 2.684,-2.85 4.722,-6.262 6.114,-10.239 1.391,-3.977 2.087,-8.35 2.087,-13.121 l -39.464,0 z" /><path
           inkscape:connector-curvature="0"
           id="path124"
           style="fill:#1d1d1b;fill-opacity:1;fill-rule:nonzero;stroke:none"
           d="m 4294.9357,-2760.6292 18.788,0 0,-10.537 0.199,0 c 2.849,8.017 8.184,12.027 16.004,12.027 0.399,0 0.994,-0.066 1.79,-0.198 l 0.895,-0.1 0,-20.676 c -0.266,0.065 -0.731,0.131 -1.392,0.199 -1.26,0.264 -2.221,0.397 -2.883,0.397 -4.374,0 -7.589,-1.16 -9.642,-3.479 -2.055,-2.32 -3.082,-6.23 -3.082,-11.73 l 0,-17.993 -20.677,0 0,52.09 z" /><path
           inkscape:connector-curvature="0"
           id="path128"
           style="fill:#1d1d1b;fill-opacity:1;fill-rule:nonzero;stroke:none"
           d="m 4356.8654,-2796.5159 c 0,-2.055 0.729,-3.646 2.188,-4.771 1.391,-1.061 3.081,-1.59 5.069,-1.59 1.854,0 3.412,0.363 4.672,1.092 1.259,0.729 1.888,1.922 1.888,3.58 0,1.457 -0.861,2.535 -2.584,3.23 -1.724,0.696 -4.473,1.441 -8.251,2.236 -3.116,0.597 -5.783,1.194 -8.002,1.79 -2.221,0.596 -4.324,1.474 -6.312,2.634 -1.988,1.159 -3.613,2.717 -4.871,4.672 -1.26,1.954 -1.889,4.39 -1.889,7.307 0,3.181 0.729,5.897 2.187,8.151 1.457,2.253 3.395,4.042 5.815,5.368 2.419,1.325 5.07,2.27 7.953,2.833 2.883,0.563 5.782,0.845 8.699,0.845 3.18,0 6.195,-0.232 9.045,-0.695 2.849,-0.465 5.5,-1.292 7.953,-2.486 2.451,-1.192 4.473,-2.867 6.064,-5.019 1.59,-2.156 2.518,-4.889 2.783,-8.201 l -18.788,0 c -0.199,1.589 -0.862,2.848 -1.988,3.777 -1.061,0.86 -2.452,1.292 -4.175,1.292 -1.856,0 -3.298,-0.298 -4.324,-0.895 -1.028,-0.596 -1.541,-1.525 -1.541,-2.783 0,-1.26 0.828,-2.204 2.485,-2.833 1.655,-0.631 4.374,-1.343 8.152,-2.138 3.379,-0.729 6.195,-1.425 8.449,-2.087 2.252,-0.663 4.456,-1.59 6.61,-2.784 2.153,-1.192 3.893,-2.783 5.22,-4.771 1.324,-1.988 1.987,-4.408 1.987,-7.257 0,-5.634 -2.352,-10.074 -7.057,-13.32 -4.707,-3.248 -11.698,-4.871 -20.975,-4.871 -3.248,0 -6.33,0.283 -9.245,0.844 -2.917,0.565 -5.616,1.525 -8.102,2.883 -2.485,1.358 -4.508,3.197 -6.064,5.518 -1.558,2.319 -2.469,5.135 -2.734,8.449 l 19.683,0 z" /><path
           inkscape:connector-curvature="0"
           id="path132"
           style="fill:#1d1d1b;fill-opacity:1;fill-rule:nonzero;stroke:none"
           d="m 4398.8146,-2768.9797 c 2.849,0.529 4.871,1.557 6.064,3.082 1.258,1.655 1.889,3.842 1.889,6.561 l -7.953,0 0,18.191 18.191,0 0,-15.706 c 0,-3.049 -0.481,-5.816 -1.441,-8.301 -0.961,-2.485 -2.303,-4.622 -4.025,-6.412 -1.725,-1.789 -3.679,-3.148 -5.866,-4.075 -2.186,-0.929 -4.473,-1.392 -6.859,-1.392 l 0,8.052 z" /><path
           inkscape:connector-curvature="0"
           id="path136"
           style="fill:#fcbe00;fill-opacity:1;fill-rule:nonzero;stroke:none"
           d="m 4460.1476,-2741.1458 20.677,0 0,-26.045 c 2.186,2.717 4.523,4.737 7.008,6.065 2.485,1.324 5.418,1.987 8.797,1.987 6.76,0 11.813,-1.905 15.161,-5.716 3.345,-3.812 5.019,-9.361 5.019,-16.65 l 0,-31.214 -20.677,0 0,27.536 c 0,2.981 -0.531,5.35 -1.59,7.107 -1.061,1.755 -2.95,2.634 -5.666,2.634 -2.983,0 -5.07,-0.894 -6.263,-2.683 -1.193,-1.79 -1.789,-4.474 -1.789,-8.052 l 0,-26.542 -20.677,0 0,71.573 z" /><path
           d="m 4527.8431,-2760.6295 20.677,0 0,-52.09 -20.677,0 0,52.09 z m 0,21.372 20.677,0 0,-14.712 -20.677,0 0,14.712 z"
           style="fill:#fcbe00;fill-opacity:1;fill-rule:nonzero;stroke:none"
           id="path138"
           inkscape:connector-curvature="0" /><path
           inkscape:connector-curvature="0"
           id="path142"
           style="fill:#fcbe00;fill-opacity:1;fill-rule:nonzero;stroke:none"
           d="m 4555.7756,-2760.6292 20.677,0 9.145,-32.904 9.046,32.904 19.882,0 -17.596,-52.09 -23.062,0 -18.092,52.09 z" /><path
           inkscape:connector-curvature="0"
           id="path146"
           style="fill:#fcbe00;fill-opacity:1;fill-rule:nonzero;stroke:none"
           d="m 4658.0646,-2780.8088 c 0,2.386 -0.911,4.488 -2.733,6.312 -1.824,1.822 -3.961,2.734 -6.413,2.734 -3.048,0 -5.417,-0.796 -7.107,-2.386 -1.689,-1.591 -2.534,-3.811 -2.534,-6.66 l 18.787,0 z m -18.787,-10.537 c 0,-2.983 1.009,-5.436 3.031,-7.357 2.021,-1.922 4.424,-2.882 7.207,-2.882 1.723,0 3.264,0.38 4.623,1.142 1.358,0.762 2.402,1.905 3.131,3.43 l 19.782,0 c -0.862,-3.115 -2.254,-5.782 -4.174,-8.002 -1.923,-2.221 -4.21,-3.993 -6.86,-5.318 -2.651,-1.327 -5.484,-2.304 -8.499,-2.933 -3.017,-0.629 -6.114,-0.944 -9.295,-0.944 -4.175,0 -8.069,0.596 -11.68,1.789 -3.613,1.193 -6.76,2.948 -9.444,5.268 -2.684,2.32 -4.771,5.17 -6.263,8.55 -1.491,3.38 -2.236,7.19 -2.236,11.432 0,4.174 0.745,8.002 2.236,11.481 1.492,3.48 3.579,6.461 6.263,8.946 2.684,2.486 5.816,4.374 9.394,5.667 3.579,1.292 7.456,1.938 11.631,1.938 4.705,0 8.947,-0.762 12.724,-2.286 3.778,-1.526 7.008,-3.712 9.692,-6.561 2.684,-2.85 4.722,-6.262 6.114,-10.239 1.391,-3.977 2.087,-8.35 2.087,-13.121 l -39.464,0 z" /></g></g></g></svg>